<svg xmlns="http://www.w3.org/2000/svg" viewBox="0 0 288 288"><defs><style>.cls-1{fill:none;stroke:#c84d00;stroke-miterlimit:10;stroke-width:0.5px;}</style></defs><g id="Layer_2" data-name="Layer 2"><path class="cls-1" d="M26.75,216.53l4.32,47.84,8,2.43,13.29.09L60.78,263V215.78"/><path class="cls-1" d="M37.52,216.33l1.56,50.47"/><path class="cls-1" d="M51.65,216.07l.72,50.82"/><path class="cls-1" d="M45.77,269.86c.09,1.58.17,3.16.25,4.75l31.39-6.92L77,263.5Z"/><path class="cls-1" d="M60.78,260.91,77,263.5"/><path class="cls-1" d="M30.86,262.21l-16.69,3.85v4.62l31.67,4"/><line class="cls-1" x1="45.77" y1="269.86" x2="14.17" y2="266.06"/><line class="cls-1" x1="15.47" y1="266.22" x2="15.47" y2="270.84"/><line class="cls-1" x1="16.9" y1="266.38" x2="16.9" y2="271.01"/><line class="cls-1" x1="18.34" y1="266.48" x2="18.34" y2="271.11"/><line class="cls-1" x1="19.92" y1="266.72" x2="19.92" y2="271.35"/><line class="cls-1" x1="21.57" y1="266.87" x2="21.57" y2="271.5"/><line class="cls-1" x1="23.25" y1="267.14" x2="23.25" y2="271.77"/><line class="cls-1" x1="24.93" y1="267.33" x2="24.93" y2="271.96"/><line class="cls-1" x1="26.75" y1="267.54" x2="26.75" y2="272.17"/><line class="cls-1" x1="28.26" y1="267.71" x2="28.26" y2="272.34"/><line class="cls-1" x1="29.97" y1="267.93" x2="29.97" y2="272.55"/><line class="cls-1" x1="31.69" y1="268.23" x2="31.69" y2="272.85"/><line class="cls-1" x1="33.64" y1="268.38" x2="33.64" y2="273.15"/><line class="cls-1" x1="36.06" y1="268.73" x2="36.06" y2="273.36"/><line class="cls-1" x1="38.17" y1="269.02" x2="38.17" y2="273.65"/><line class="cls-1" x1="40.2" y1="269.19" x2="40.2" y2="273.94"/><line class="cls-1" x1="42.83" y1="269.44" x2="42.83" y2="274.34"/><line class="cls-1" x1="48.58" y1="269.28" x2="49.15" y2="273.85"/><line class="cls-1" x1="50.8" y1="268.82" x2="51.38" y2="273.39"/><path class="cls-1" d="M75.58,263.8c.14,1.38.29,2.77.43,4.16"/><path class="cls-1" d="M74,264.1c.14,1.39.29,2.77.43,4.16"/><path class="cls-1" d="M72.44,264.44c.15,1.38.29,2.77.43,4.16"/><path class="cls-1" d="M70.78,264.81c.15,1.38.29,2.77.44,4.16"/><path class="cls-1" d="M68.91,265.23c.14,1.38.28,2.77.43,4.16"/><path class="cls-1" d="M66.82,265.55c.15,1.46.29,2.92.43,4.37"/><path class="cls-1" d="M64.72,265.92c.14,1.45.29,2.91.43,4.37"/><path class="cls-1" d="M62.41,266.41c.15,1.51.29,3,.43,4.54"/><path class="cls-1" d="M60.22,267c.15,1.45.29,2.91.43,4.37"/><path class="cls-1" d="M58,267.42c.14,1.46.28,2.92.43,4.38"/><path class="cls-1" d="M55.66,267.87c.14,1.53.29,3.05.43,4.58"/><line class="cls-1" x1="53.23" y1="268.37" x2="53.8" y2="272.94"/><path class="cls-1" d="M268.71,216.67q-1.63,24-3.26,47.92l-8,2.62-13.34.38-8.53-3.74-1.07-47.16"/><path class="cls-1" d="M257.89,216.71l-.43,50.5"/><path class="cls-1" d="M243.7,216.77l.42,50.82"/><path class="cls-1" d="M250.82,270.41c0,1.59-.1,3.17-.14,4.76L219,269l.28-4.19Z"/><path class="cls-1" d="M235.54,261.8l-16.25,3"/><path class="cls-1" d="M265.62,262.43l16.84,3.47.1,4.62-31.71,4.72"/><line class="cls-1" x1="250.82" y1="270.41" x2="282.46" y2="265.9"/><line class="cls-1" x1="281.16" y1="266.08" x2="281.26" y2="270.71"/><line class="cls-1" x1="279.72" y1="266.28" x2="279.83" y2="270.9"/><line class="cls-1" x1="278.28" y1="266.41" x2="278.39" y2="271.04"/><line class="cls-1" x1="276.7" y1="266.69" x2="276.8" y2="271.31"/><line class="cls-1" x1="275.04" y1="266.88" x2="275.15" y2="271.5"/><line class="cls-1" x1="273.36" y1="267.19" x2="273.47" y2="271.81"/><line class="cls-1" x1="271.68" y1="267.41" x2="271.79" y2="272.04"/><line class="cls-1" x1="269.87" y1="267.67" x2="269.97" y2="272.29"/><line class="cls-1" x1="268.35" y1="267.87" x2="268.45" y2="272.49"/><line class="cls-1" x1="266.64" y1="268.12" x2="266.74" y2="272.75"/><line class="cls-1" x1="264.92" y1="268.46" x2="265.02" y2="273.09"/><line class="cls-1" x1="262.97" y1="268.66" x2="263.07" y2="273.43"/><line class="cls-1" x1="260.55" y1="269.07" x2="260.65" y2="273.69"/><line class="cls-1" x1="258.43" y1="269.4" x2="258.54" y2="274.03"/><line class="cls-1" x1="256.39" y1="269.61" x2="256.5" y2="274.36"/><line class="cls-1" x1="253.76" y1="269.93" x2="253.87" y2="274.83"/><line class="cls-1" x1="247.98" y1="269.9" x2="247.51" y2="274.48"/><line class="cls-1" x1="245.74" y1="269.49" x2="245.27" y2="274.07"/><path class="cls-1" d="M220.76,265c-.12,1.39-.23,2.78-.34,4.17"/><path class="cls-1" d="M222.38,265.3c-.11,1.39-.22,2.78-.34,4.17"/><path class="cls-1" d="M223.92,265.6c-.11,1.39-.22,2.78-.34,4.17"/><path class="cls-1" d="M225.59,265.93l-.33,4.17"/><path class="cls-1" d="M227.49,266.31c-.12,1.39-.23,2.78-.34,4.17"/><path class="cls-1" d="M229.59,266.59c-.11,1.46-.23,2.92-.34,4.38"/><path class="cls-1" d="M231.71,266.9c-.11,1.46-.22,2.92-.34,4.38"/><path class="cls-1" d="M234,267.35l-.33,4.54"/><path class="cls-1" d="M236.25,267.85c-.12,1.46-.23,2.92-.34,4.38"/><path class="cls-1" d="M238.48,268.26l-.33,4.38"/><path class="cls-1" d="M240.85,268.65l-.33,4.59"/><line class="cls-1" x1="243.3" y1="269.1" x2="242.82" y2="273.68"/></g></svg>