<svg xmlns="http://www.w3.org/2000/svg" viewBox="0 0 288 288"><defs><style>.cls-1{fill:none;stroke:#c84d00;stroke-miterlimit:10;stroke-width:0.5px;}</style></defs><g id="Layer_2" data-name="Layer 2"><path class="cls-1" d="M24.39,227.64a47.43,47.43,0,0,0,30.53.59"/><path class="cls-1" d="M24.39,227.64a81.85,81.85,0,0,1-.9,11.33,35.8,35.8,0,0,1-2.08,8.46c-1.13,2.86-1.7,4.28-3.21,5.81A31.4,31.4,0,0,0,14.37,257a19.69,19.69,0,0,0-1.69,2.58c-2.06,3.9-1.11,8.82-.79,10.27"/><path class="cls-1" d="M11.91,269.75l-3.42,2"/><path class="cls-1" d="M8.84,271.57a1.81,1.81,0,0,0-.69.39c-.47.46-.55,1.14-.3,2.57a15.47,15.47,0,0,0,.69,2.63c1.9,4,58.89-.54,58.58-3.28,0-.32-.88-.82-.94-1.93,0-.63.21-.78.39-1.7.08-.39.48-2.41-.38-2.85-.6-.32-1.58.27-1.88-.1a.34.34,0,0,1-.06-.27c.1-1.4-.57-2.77-.74-4.17-.45-3.79-4.1-8.67-4.89-9.74s-.77-.88-1.33-1.66c-2.9-4.05-3.17-8.2-3.37-12.06a40.53,40.53,0,0,1,1-11.17"/><path class="cls-1" d="M8.72,271.54a21.25,21.25,0,0,0,2.78,1.14,22.67,22.67,0,0,0,5.1,1,186.35,186.35,0,0,0,21.67.58c8.82-.33,13.32-.51,17.54-1.33a70.52,70.52,0,0,0,10.82-3"/><path class="cls-1" d="M65.05,267.94c-1.06.43-2.64,1-4.59,1.66-2.5.8-11.36,3.49-28.81,3.35a168.61,168.61,0,0,1-21.23-1.54"/><path class="cls-1" d="M12.45,270.19a1.94,1.94,0,0,0,1.34.61,1.84,1.84,0,0,0,1.15-.36c.54-.44.39-1,.59-2.22a12.91,12.91,0,0,1,.49-1.76,11.27,11.27,0,0,1,2.4-3.83,10.28,10.28,0,0,1,2.45-2.26c.6-.38.51-.22,2.26-1.11A7.46,7.46,0,0,0,26.2,257c.15-.24.29-.53.17-.76-.21-.41-1.06-.44-1.27-.44a4.9,4.9,0,0,0-1.19.17c-1.45.29-1.56.27-1.6.22s.11-.39,1.33-1.59c.89-.87,1.34-1.3,1.61-1.51,1.14-.85,1.4-.61,2.66-1.44a7.92,7.92,0,0,0,2.18-2.24c.57-.92.46-1.26.36-1.43a1.09,1.09,0,0,0-1-.47c-.34,0-.51.24-.88.57a9.23,9.23,0,0,1-1.71,1.21c-.35.17-1.38.69-1.88.35s-.29-.9-.24-1.16a3.51,3.51,0,0,1,1-1.86c1-1.08,1.47-2.35,2.4-4.88.09-.24.94-2.58.59-2.71-.13,0-.34.24-.83.68s-2.05,1.67-2.52,1.42-.12-1,.3-2.79c.35-1.47.59-2,.34-2.87-.17-.58-.57-1.3-.94-1.28-.1,0-.2.07-.45.43a7,7,0,0,0-.73,1.24"/><path class="cls-1" d="M18.46,253l-2.16,3.12c-2.29,3.33-3.07,4.54-3.54,6.32-.1.39-.17.8-.31,1.6-.48,2.75-.07,2.17-.17,4.79,0,.19,0,.68.28.85a.52.52,0,0,0,.41,0c.35-.15.28-.81.28-1.39,0-.76.22-1.5.28-2.26a20.57,20.57,0,0,1,.76-3.84,14.83,14.83,0,0,1,2.34-4.11c2-2.91,2.64-3,4.07-5.4a16.17,16.17,0,0,0,1.64-3.59c.37-1.23.2-1.37.6-3.25.6-2.81,1-2.6,1.14-4.27a25.77,25.77,0,0,1,.38-3.74,2.76,2.76,0,0,1,1-1.7,2.68,2.68,0,0,1,.66-.37"/><path class="cls-1" d="M63.66,263.7a4.54,4.54,0,0,1-.76,3.73c-.74.94-2.14,1.88-2.83,1.55-.48-.23-.34-.93-.44-2.07a9.3,9.3,0,0,0-2.46-5.63,6.18,6.18,0,0,0-3.44-2c-.72-.1-1.53-.05-3.15-.35a2.34,2.34,0,0,1-1.61-.72,1,1,0,0,1-.08-1.15c.22-.34.67-.43,1.22-.55.93-.21,1.39,0,1.49-.21s-.57-.74-1.81-1.66c-2.07-1.55-2.51-1.92-2.91-2.57a2.27,2.27,0,0,1-.39-2.05.9.9,0,0,1,.39-.55c.35-.18.77,0,2.24.35.46.1.68.14.83,0s.18-.41,0-.94a5.55,5.55,0,0,0-1.32-2A9.71,9.71,0,0,1,47,244.4a6.91,6.91,0,0,1-1-4.6c.09-.46.26-1.29.87-1.49a1.85,1.85,0,0,1,1.3.28c1.05.52,1.11,1.2,2,1.39a1.12,1.12,0,0,0,.78,0c.4-.23.27-.78.32-1.87a5.11,5.11,0,0,1,.59-2.57c.18-.29.57-.93,1-.9s.82.64,1,1.54"/><path class="cls-1" d="M62.36,259.18l.36,1.71a8.92,8.92,0,0,1,.1,3.19c-.17,1.11-.57,2.34-.78,2.32s0-1.29-.25-2.89a12.33,12.33,0,0,0-2.1-5.12c-1.64-2.47-2.65-2.27-4.42-4.54a14.12,14.12,0,0,1-2.64-5.78c-.56-2.67.29-2.72.23-9,0-.81,0-2.11.2-2.14s.57,1,.84,2"/><path class="cls-1" d="M34.3,262.06c-.08-.42-2.17-.61-4.45-.42a21.38,21.38,0,0,0-7.55,2.19,10,10,0,0,0-3.4,2.85c0,.05-.31.41-.21.5s1.29-.58,2.7-1.11a7,7,0,0,1,.74-.21c.8-.2,1-.14,1.09-.08s.35.31.3.48-.42.24-.68.36c-.94.42-1.13,2.17-.71,2.36.23.11.7-.28,1.63-1.05s1.38-1.31,1.94-1.22a.56.56,0,0,1,.37.17c.22.25,0,.58-.13,1.26-.08.45-.18,1.06.17,1.32a.78.78,0,0,0,.64.12c.36-.08.5-.39.79-.81a4.21,4.21,0,0,1,1.83-1.68c.18-.06.51-.18.68-.06s.07.33.07,1,.12.87.24,1a.68.68,0,0,0,.41.15c.5,0,.87-.69,1.05-1.05a6.07,6.07,0,0,0,.61-2.81c0-1-.12-1.07,0-1.47C32.92,262.63,34.37,262.42,34.3,262.06Z"/><path class="cls-1" d="M41.8,262.17a1.19,1.19,0,0,1,.67-.2,1.45,1.45,0,0,1,1,.66,2.59,2.59,0,0,1,.15,2.26,9.23,9.23,0,0,0-.53,1.43,2,2,0,0,0,.08,1.16,1.24,1.24,0,0,0,.45.64,1.2,1.2,0,0,0,1.21.09c.15-.1.15-.21.38-1s.26-.77.37-.86a1.16,1.16,0,0,1,.95-.23c.63.14.61.87,1.35,1.06a.8.8,0,0,0,.53,0c.3-.15.19-.53.45-1.06.15-.3.33-.68.64-.74s.5.08,1.85,1.5c.55.58.78.85.91.8s0-1.09-.08-1.37c-.11-.47-.21-.67-.07-.86a1,1,0,0,1,.86-.3c.72.09.76.87,1.85,1.76.56.46,1.24.82,1.4.7s-.77-1.39-.53-1.56c.09-.06.26.09.72.13.24,0,.54,0,.61-.06.19-.25-.8-1.42-2.24-2-.92-.37-1.23-.18-2.12-.61a6.06,6.06,0,0,1-1.57-1.21c-1.92-1.67-5.71-1.67-8-.8A14.64,14.64,0,0,0,41.8,262.17Z"/><ellipse class="cls-1" cx="38.05" cy="265.96" rx="2.48" ry="1.98"/><ellipse class="cls-1" cx="38.01" cy="265.78" rx="0.78" ry="0.76"/><path class="cls-1" d="M37.75,239.24c.13-.61-.74-1.43-1.61-1.62a3.33,3.33,0,0,0-1.55.13,5.05,5.05,0,0,1-1,.38,1.67,1.67,0,0,1-1.11-.16,4.21,4.21,0,0,1-.75-1c-.15-.21-.2-.29-.26-.29s-.22.75-.14,1.27a3.26,3.26,0,0,0,1.51,2.18C34.62,241.19,37.54,240.21,37.75,239.24Z"/><path class="cls-1" d="M39,239.17c-.19-.33.88-1.27,2-1.83.94-.47,1.28-.37,1.9-.89s.9-1.13,1-1.07,0,.31,0,.62a8.36,8.36,0,0,1-.82,2.67c-.41.74-.61,1.11-1,1.2-.59.16-1-.37-2.3-.55C39.3,239.25,39.08,239.3,39,239.17Z"/><path class="cls-1" d="M38.47,238.17c-.48,8.64.09,12.65.74,14.7a41.36,41.36,0,0,1,.78,4.58c.24,1.64.38,2.86-.46,3.79A2.27,2.27,0,0,1,38,262c-1.3,0-2.2-1.61-2.43-2-.84-1.51-.78-3-.31-5.68.55-3,1.11-4.46,1.65-6.69a38.77,38.77,0,0,0,1-6.86"/><path class="cls-1" d="M41,234.55a2.37,2.37,0,1,1-2.36-2.39A2.38,2.38,0,0,1,41,234.55Z"/><path class="cls-1" d="M38.19,234.44a.62.62,0,0,1,.12-.77.9.9,0,0,1,.69-.11,1.13,1.13,0,0,1,.84,1,1,1,0,0,1-.38.8,1.59,1.59,0,0,1-1.74-.06c-.11-.07-.49-.33-.44-.66a.6.6,0,0,1,.21-.32"/><path class="cls-1" d="M34.37,231.6a1.26,1.26,0,0,1-.38,1,1.7,1.7,0,0,1-1.09.33c-2.8.09-4.12.49-6-.13-.56-.19-.86-.37-1-.64s.21-.73,0-1.3c-.09-.23-.21-.35-.16-.39s1.08.57,1.23.67c.84.57,2.66,1,6.9.36"/><path class="cls-1" d="M44.2,232.2a2.37,2.37,0,0,0,1,1.08c.39.2.8.27,2.93.06s2.61-.36,2.7-.66-.14-.29-.17-.69c0-.68.5-1,.37-1.2s-1.76.55-3.2.93a10.11,10.11,0,0,1-4.84,0"/><path class="cls-1" d="M16.71,268.53a56.64,56.64,0,0,0,9,1.76,91.71,91.71,0,0,0,9.79.31c7.37,0,11.13,0,14.42-.47a50,50,0,0,0,8.56-2.06"/><path class="cls-1" d="M15.77,270.55A99.13,99.13,0,0,0,40.51,272a97.41,97.41,0,0,0,18.47-3"/><path class="cls-1" d="M24.39,227.64a10.5,10.5,0,0,1-1-2.59,5.5,5.5,0,0,0,1.23,1.45,3.11,3.11,0,0,0,2.37.66c1.26-.42,1-2.56,1.78-2.65s.87,1.76,2.19,2.08,3-.92,5.32-1.57a1.45,1.45,0,0,1,1,0c.4.2.33.57.72,1a2.24,2.24,0,0,0,1.44.66c.55,0,.86-.24,1.82-.87,2.34-1.55,2.69-1.45,2.81-1.39.39.18.06.74.62,1.39a2.3,2.3,0,0,0,1.57.75c.46,0,.83-.12,2-.82C50,224.64,50.68,224,51,224.2s0,.43.3,1.11c.09.22.41,1,1,1.1.4.08.75-.24,1.34-.69,1-.77,2.31-1.79,2.63-1.64s.14.95-1.35,4.15"/><path class="cls-1" d="M27.9,227.24c.51.63,1,1.19,1.29,1.1.43-.17-.29-2.39-.11-2.44s.62,2.47,2,2.79c1.57.37,3.67-2.29,4-2s-.83,1.39-.3,2.11a1,1,0,0,0,1,.39c.84-.26.31-2.73.74-2.82s.52,2.6,1.69,2.88c1.63.39,4.33-4,4.92-3.74.26.13-.28.95.1,2.11.09.26.4,1.17,1,1.42,1.75.67,5.6-3.67,5.84-3.49s-1.7,1.81-1.16,2.69a1.35,1.35,0,0,0,.91.47c2.29.46,5.21-2.84,5.6-3.29"/><path class="cls-1" d="M21.9,216.09a21.18,21.18,0,0,0-1.37,5.34c0,.4-.14,1.49.25,1.63.19.06.37-.12,1.24-.67,1.12-.71,1.29-.71,1.38-.7.52.06.55.61,1.43,1.26a3.14,3.14,0,0,0,1.12.6c.57.14.95,0,2.81-.6a4.92,4.92,0,0,1,1.88-.42c.67.08.94.4,1.72.81a7.86,7.86,0,0,0,2.55.8c1.21.14,2.18-.29,4.12-1.15s2.44-1.43,3.45-1.3a5.78,5.78,0,0,1,2,.84c1.31.72,1.3,1,2,1.26a4.71,4.71,0,0,0,3.15-.28c1.28-.49,1.58-1.14,3.07-1.47a2.89,2.89,0,0,1,1.13-.1c1.07.17,1.42,1.09,2.17,1a1.93,1.93,0,0,0,.75-.46,13.81,13.81,0,0,0,1.09-1.08c.58-.52.94-.65.9-.81s-.7,0-1.13-.2c-.64-.24-1.16-1.26-1-4.28"/><path class="cls-1" d="M23.4,221.69c.33,1.54.65,3.07,1,4.61"/><path class="cls-1" d="M54.64,222.25c-.14,1-.27,2.05-.41,3.08"/><line class="cls-1" x1="22.89" y1="216.71" x2="21.81" y2="220.84"/><line class="cls-1" x1="25.07" y1="216.99" x2="26.21" y2="221.4"/><line class="cls-1" x1="28.98" y1="216.48" x2="29.45" y2="221.69"/><line class="cls-1" x1="30.96" y1="216.71" x2="32.48" y2="222.54"/><line class="cls-1" x1="41.5" y1="216.99" x2="39.88" y2="221.69"/><line class="cls-1" x1="43.44" y1="217.17" x2="45.97" y2="222.05"/><line class="cls-1" x1="37.28" y1="217.17" x2="37.28" y2="222.05"/><line class="cls-1" x1="34.37" y1="216.71" x2="34.37" y2="222.54"/><line class="cls-1" x1="53.23" y1="216.71" x2="54.65" y2="221.02"/><line class="cls-1" x1="51.87" y1="217.17" x2="50.46" y2="222.05"/><line class="cls-1" x1="48.16" y1="217.17" x2="48.35" y2="222.54"/><line class="cls-1" x1="55.48" y1="217.17" x2="56.37" y2="220.37"/><path class="cls-1" d="M263,227.55a48.28,48.28,0,0,1-30.81.59"/><path class="cls-1" d="M263,227.55a82,82,0,0,0,.9,11.33,36,36,0,0,0,2.1,8.46c1.15,2.86,1.72,4.28,3.25,5.81a32.05,32.05,0,0,1,3.86,3.77,19.88,19.88,0,0,1,1.71,2.58c2.07,3.89,1.12,8.82.79,10.27"/><path class="cls-1" d="M275.6,269.65l3.44,2"/><path class="cls-1" d="M278.69,271.48a1.74,1.74,0,0,1,.69.39c.48.45.56,1.14.3,2.57a13.68,13.68,0,0,1-.69,2.63c-1.91,4-59.42-.54-59.11-3.28,0-.32.89-.82,1-1.94,0-.62-.22-.77-.4-1.69-.08-.39-.48-2.41.38-2.85.61-.32,1.59.27,1.89-.1a.31.31,0,0,0,.07-.27c-.1-1.41.57-2.77.74-4.17.46-3.79,4.14-8.67,4.94-9.74s.78-.88,1.34-1.66c2.93-4.05,3.2-8.2,3.4-12.06a40.22,40.22,0,0,0-1-11.17"/><path class="cls-1" d="M278.81,271.45a24.11,24.11,0,0,1-2.8,1.14,23.19,23.19,0,0,1-5.15,1,189.81,189.81,0,0,1-21.87.58c-8.9-.33-13.44-.51-17.7-1.34a72,72,0,0,1-10.91-3"/><path class="cls-1" d="M222,267.85c1.08.43,2.67,1,4.64,1.66,2.52.8,11.46,3.49,29.07,3.34a169.31,169.31,0,0,0,21.41-1.53"/><path class="cls-1" d="M275.05,270.1a2,2,0,0,1-1.35.61,1.9,1.9,0,0,1-1.17-.36c-.54-.44-.38-1-.59-2.22a12.33,12.33,0,0,0-.5-1.76,11.29,11.29,0,0,0-2.42-3.84,10.57,10.57,0,0,0-2.47-2.25c-.61-.38-.51-.22-2.28-1.11a7.46,7.46,0,0,1-3.09-2.31c-.16-.24-.3-.53-.18-.76.21-.41,1.07-.44,1.28-.45a5.23,5.23,0,0,1,1.2.18c1.47.28,1.58.27,1.62.22s-.11-.39-1.35-1.59c-.9-.87-1.35-1.31-1.62-1.51-1.14-.86-1.42-.61-2.68-1.45a7.52,7.52,0,0,1-2.2-2.23c-.57-.92-.47-1.26-.37-1.43a1.15,1.15,0,0,1,1-.48c.35,0,.52.25.89.58a9.29,9.29,0,0,0,1.73,1.21c.35.17,1.39.69,1.9.35s.28-.9.24-1.16a3.58,3.58,0,0,0-1-1.86c-1-1.08-1.49-2.35-2.43-4.88-.08-.24-.94-2.58-.59-2.71.13,0,.34.24.84.68s2.06,1.66,2.54,1.42c.32-.17.12-1.05-.3-2.79-.35-1.47-.6-2-.35-2.87.18-.58.58-1.3,1-1.28.11,0,.2.07.46.42a8.57,8.57,0,0,1,.74,1.24"/><path class="cls-1" d="M269,252.87c.52.74,1.28,1.81,2.18,3.12,2.31,3.33,3.1,4.54,3.57,6.32a16.15,16.15,0,0,1,.32,1.6c.48,2.75.07,2.17.17,4.79,0,.19,0,.68-.28.84a.49.49,0,0,1-.41,0c-.36-.15-.29-.81-.29-1.4,0-.75-.22-1.5-.29-2.25a19,19,0,0,0-.76-3.84,15,15,0,0,0-2.36-4.11c-2-2.91-2.66-3-4.11-5.4a15.91,15.91,0,0,1-1.65-3.59c-.38-1.23-.2-1.37-.61-3.25-.6-2.81-1-2.6-1.15-4.27a25.63,25.63,0,0,0-.38-3.74,2.74,2.74,0,0,0-1-1.7,2.42,2.42,0,0,0-.67-.37"/><path class="cls-1" d="M223.37,263.6a4.55,4.55,0,0,0,.78,3.74c.74.94,2.15,1.87,2.85,1.55.49-.23.34-.93.44-2.07a9.28,9.28,0,0,1,2.48-5.63,6.22,6.22,0,0,1,3.48-2c.72-.1,1.54-.05,3.18-.35a2.37,2.37,0,0,0,1.62-.72,1,1,0,0,0,.08-1.15c-.22-.34-.68-.44-1.23-.55-1-.21-1.41,0-1.51-.21s.58-.75,1.83-1.67c2.09-1.54,2.54-1.92,2.94-2.56a2.27,2.27,0,0,0,.39-2.05.9.9,0,0,0-.39-.55c-.36-.18-.78,0-2.27.34-.46.11-.68.15-.83,0s-.18-.41,0-.94a5.69,5.69,0,0,1,1.33-2.05,9.43,9.43,0,0,0,1.64-2.5,6.85,6.85,0,0,0,1-4.6c-.09-.47-.26-1.29-.87-1.49a1.82,1.82,0,0,0-1.31.28c-1.06.52-1.13,1.19-2,1.38a1.09,1.09,0,0,1-.79,0c-.41-.23-.27-.78-.32-1.87a5,5,0,0,0-.6-2.57c-.18-.29-.57-.93-1-.9s-.83.64-1,1.54"/><path class="cls-1" d="M224.69,259.09c-.12.57-.25,1.14-.37,1.71a8.86,8.86,0,0,0-.1,3.18c.17,1.12.57,2.35.79,2.33s0-1.29.25-2.89a12.17,12.17,0,0,1,2.12-5.12c1.66-2.47,2.67-2.27,4.46-4.55A13.76,13.76,0,0,0,234.5,248c.57-2.68-.29-2.72-.23-9,0-.81,0-2.1-.2-2.13s-.58,1-.85,2"/><path class="cls-1" d="M253,262c.08-.42,2.19-.62,4.49-.42a21.81,21.81,0,0,1,7.62,2.19,10.26,10.26,0,0,1,3.43,2.84c0,.06.31.42.21.51s-1.3-.58-2.72-1.11c0,0-.25-.09-.75-.22-.8-.19-1-.13-1.1-.08s-.35.32-.31.48.43.25.69.36c.95.43,1.15,2.18.72,2.37-.23.11-.7-.28-1.65-1.05s-1.39-1.31-1.95-1.23a.69.69,0,0,0-.38.18c-.22.25,0,.58.14,1.26.07.45.18,1.06-.17,1.32a.86.86,0,0,1-.66.12c-.36-.08-.5-.39-.78-.81A4.19,4.19,0,0,0,258,267c-.17-.06-.51-.18-.68-.06s-.07.33-.07,1-.12.87-.24,1a.68.68,0,0,1-.41.15c-.51,0-.88-.69-1.07-1.05a6.16,6.16,0,0,1-.62-2.81c0-1,.13-1.07,0-1.47C254.39,262.54,252.93,262.33,253,262Z"/><path class="cls-1" d="M245.44,262.08a1.25,1.25,0,0,0-.69-.2,1.45,1.45,0,0,0-1,.66,2.59,2.59,0,0,0-.16,2.26,8.32,8.32,0,0,1,.54,1.43,2,2,0,0,1-.08,1.16,1.2,1.2,0,0,1-1.67.73c-.16-.1-.15-.21-.38-1s-.27-.77-.39-.86a1.16,1.16,0,0,0-1-.24c-.64.15-.62.87-1.37,1.07a.8.8,0,0,1-.53,0c-.3-.15-.19-.53-.46-1.07-.14-.29-.33-.67-.64-.73s-.5.08-1.87,1.5c-.55.57-.78.85-.91.8s0-1.09.08-1.37c.11-.47.21-.67.07-.86a1,1,0,0,0-.87-.3c-.72.09-.76.87-1.87,1.76-.56.46-1.25.82-1.4.7s.77-1.4.53-1.56-.27.09-.73.13c-.24,0-.54,0-.62-.07s.81-1.41,2.26-2c.93-.37,1.25-.18,2.15-.61a6.09,6.09,0,0,0,1.58-1.22c1.94-1.66,5.76-1.66,8-.79C244.67,261.68,245.44,262.08,245.44,262.08Z"/><ellipse class="cls-1" cx="249.22" cy="265.87" rx="2.5" ry="1.98"/><ellipse class="cls-1" cx="249.26" cy="265.69" rx="0.79" ry="0.76"/><path class="cls-1" d="M249.51,239.14c-.13-.6.75-1.42,1.64-1.61a3.17,3.17,0,0,1,1.55.13,5.35,5.35,0,0,0,1.05.38,1.72,1.72,0,0,0,1.13-.16,4.72,4.72,0,0,0,.76-1c.14-.21.19-.29.25-.29s.23.75.15,1.27a3.32,3.32,0,0,1-1.53,2.18C252.68,241.1,249.73,240.12,249.51,239.14Z"/><path class="cls-1" d="M248.25,239.08c.19-.33-.89-1.27-2-1.83-.95-.47-1.29-.37-1.92-.89s-.91-1.13-1.05-1.08-.05.32,0,.63a7.88,7.88,0,0,0,.82,2.67c.41.74.62,1.1,1,1.2.59.15.95-.37,2.32-.55C248,239.16,248.17,239.21,248.25,239.08Z"/><path class="cls-1" d="M248.79,238.08c.49,8.64-.09,12.65-.75,14.7a43.59,43.59,0,0,0-.78,4.58c-.25,1.64-.39,2.85.47,3.79a2.28,2.28,0,0,0,1.54.79c1.3,0,2.22-1.62,2.45-2,.84-1.51.79-3,.31-5.68-.56-3-1.12-4.47-1.66-6.69a37.7,37.7,0,0,1-1-6.86"/><path class="cls-1" d="M246.25,234.46a2.39,2.39,0,1,0,2.39-2.39A2.39,2.39,0,0,0,246.25,234.46Z"/><path class="cls-1" d="M249.08,234.35a.62.62,0,0,0-.13-.77.82.82,0,0,0-.69-.11,1.12,1.12,0,0,0-.85,1,1,1,0,0,0,.38.8,1.62,1.62,0,0,0,1.76-.06c.11-.07.49-.33.44-.66a.6.6,0,0,0-.21-.32"/><path class="cls-1" d="M252.93,231.51a1.26,1.26,0,0,0,.38,1,1.75,1.75,0,0,0,1.11.33c2.82.09,4.15.49,6-.13.57-.19.87-.37,1-.64s-.22-.73,0-1.3c.08-.23.2-.35.15-.39s-1.09.57-1.23.67c-.85.57-2.69,1-7,.35"/><path class="cls-1" d="M243,232.11a2.46,2.46,0,0,1-1,1.08c-.39.2-.8.27-3,.06s-2.62-.37-2.72-.66.15-.29.18-.69c.05-.68-.51-1-.38-1.2s1.77.55,3.23.93a10.27,10.27,0,0,0,4.88,0"/><path class="cls-1" d="M270.75,268.44a58.88,58.88,0,0,1-9.11,1.76,93.51,93.51,0,0,1-9.88.31c-7.44,0-11.23,0-14.55-.47a51,51,0,0,1-8.64-2.06"/><path class="cls-1" d="M271.69,270.46a100.86,100.86,0,0,1-25,1.49,98.9,98.9,0,0,1-18.63-3"/><path class="cls-1" d="M263,227.55a11.28,11.28,0,0,0,1-2.59,5.36,5.36,0,0,1-1.25,1.45c-.17.12-1.42,1-2.38.66-1.27-.42-1-2.56-1.8-2.65s-.88,1.76-2.21,2.08-3-.92-5.37-1.57a1.48,1.48,0,0,0-1,0c-.4.19-.33.57-.73,1a2.22,2.22,0,0,1-1.45.66c-.55,0-.87-.25-1.83-.88-2.36-1.54-2.72-1.44-2.84-1.39-.39.19-.06.75-.62,1.39a2.29,2.29,0,0,1-1.59.76c-.46,0-.84-.12-2-.82-1.81-1.1-2.49-1.72-2.84-1.54s0,.43-.31,1.11c-.09.22-.41,1-1,1.1-.41.08-.76-.24-1.35-.69-1-.77-2.34-1.79-2.66-1.64s-.14.95,1.36,4.15"/><path class="cls-1" d="M259.45,227.15c-.51.63-1.05,1.19-1.29,1.1-.44-.17.29-2.39.1-2.44s-.61,2.47-2,2.79c-1.59.37-3.7-2.29-4.09-2s.84,1.39.31,2.11a1,1,0,0,1-1,.39c-.84-.26-.3-2.73-.74-2.82s-.53,2.6-1.71,2.88c-1.64.39-4.37-4-5-3.74-.26.12.29.95-.1,2.1-.09.27-.4,1.18-1.06,1.43-1.77.67-5.65-3.67-5.89-3.49s1.72,1.8,1.16,2.69a1.35,1.35,0,0,1-.91.47c-2.31.46-5.26-2.85-5.65-3.29"/><path class="cls-1" d="M265.51,216a20.92,20.92,0,0,1,1.38,5.33c.05.41.15,1.49-.25,1.64-.19.06-.37-.12-1.25-.67-1.12-.71-1.3-.71-1.4-.7-.52.06-.54.61-1.43,1.26a3.24,3.24,0,0,1-1.14.6c-.57.13-.95,0-2.83-.6a5,5,0,0,0-1.89-.42c-.69.08-.95.4-1.74.81a8,8,0,0,1-2.58.8c-1.21.14-2.19-.29-4.16-1.15s-2.45-1.43-3.47-1.3a5.85,5.85,0,0,0-2,.84c-1.32.72-1.31,1-2,1.26a4.8,4.8,0,0,1-3.18-.28c-1.29-.49-1.59-1.14-3.1-1.47a2.89,2.89,0,0,0-1.13-.1c-1.08.17-1.44,1.09-2.2,1a1.93,1.93,0,0,1-.75-.46,13.88,13.88,0,0,1-1.1-1.08c-.58-.52-1-.65-.91-.81s.7,0,1.14-.21c.65-.23,1.17-1.26,1-4.27"/><path class="cls-1" d="M264,221.6c-.32,1.54-.65,3.07-1,4.6"/><path class="cls-1" d="M232.48,222.16c.14,1,.27,2.05.41,3.08"/><line class="cls-1" x1="264.51" y1="216.62" x2="265.6" y2="220.75"/><line class="cls-1" x1="262.31" y1="216.9" x2="261.16" y2="221.3"/><line class="cls-1" x1="258.37" y1="216.38" x2="257.9" y2="221.6"/><line class="cls-1" x1="256.37" y1="216.62" x2="254.84" y2="222.45"/><line class="cls-1" x1="245.73" y1="216.9" x2="247.37" y2="221.6"/><line class="cls-1" x1="243.78" y1="217.08" x2="241.23" y2="221.95"/><line class="cls-1" x1="249.99" y1="217.08" x2="249.99" y2="221.95"/><line class="cls-1" x1="252.93" y1="216.62" x2="252.93" y2="222.45"/><line class="cls-1" x1="233.89" y1="216.62" x2="232.46" y2="220.93"/><line class="cls-1" x1="235.27" y1="217.08" x2="236.69" y2="221.95"/><line class="cls-1" x1="239.02" y1="217.08" x2="238.83" y2="222.45"/><line class="cls-1" x1="231.63" y1="217.08" x2="230.73" y2="220.28"/></g></svg>