<svg xmlns="http://www.w3.org/2000/svg" viewBox="0 0 288 288"><defs><style>.cls-1{fill:none;stroke:#c84d00;stroke-miterlimit:10;stroke-width:0.5px;}</style></defs><g id="Layer_2" data-name="Layer 2"><polyline class="cls-1" points="24.95 216.54 24.95 245.97 46.96 249.97 57.8 247.25 59.46 216.91"/><line class="cls-1" x1="27.41" y1="216.54" x2="27.99" y2="243.25"/><polyline class="cls-1" points="44.42 217.44 42.8 246.72 27.41 244.23"/><polyline class="cls-1" points="57.8 247.25 58.85 247.84 41.78 268.28 40.09 268.53"/><path class="cls-1" d="M28.52,250.5l14.8,2.66L38.2,263.85l-6.94-11.29"/><path class="cls-1" d="M71.93,272.08a3,3,0,0,0-.88-2.89,2.26,2.26,0,0,0-1.28-.54,2.45,2.45,0,0,0-1.19.23c-1,.44-11.81,3.51-28.52,8.13-18.1-4-26.39-5.91-26.67-6.07l-.1-.05a2.6,2.6,0,0,0-.93-.27,3.14,3.14,0,0,0-1.63.37,2.44,2.44,0,0,0-1.1,1.06,1.77,1.77,0,0,0,.64,1.9l29.64,6.16Z"/><path class="cls-1" d="M18.36,266.9a2.89,2.89,0,0,0-.22,3.49L40,275.06l23-6.46a3.54,3.54,0,0,0,.15-1.31,3.27,3.27,0,0,0-.15-.78"/><path class="cls-1" d="M40.11,271.89c-.07,2.74-.13,5.48-.2,8.22"/><path class="cls-1" d="M12.53,270.48l5.14-1.05"/><path class="cls-1" d="M68.58,268.88l-5.37-1.23"/><path class="cls-1" d="M25,246l-1.74.44,15.23,22.12h1.65L47,250l1.84-33.42"/><line class="cls-1" x1="25.36" y1="247.25" x2="45.68" y2="251.16"/><line class="cls-1" x1="57.98" y1="247.95" x2="47.8" y2="250.63"/><line class="cls-1" x1="46.21" y1="252" x2="57.91" y2="248.98"/><line class="cls-1" x1="45.78" y1="253.15" x2="56.64" y2="250.49"/><line class="cls-1" x1="45.27" y1="254.54" x2="55.38" y2="252"/><line class="cls-1" x1="44.9" y1="255.53" x2="54.42" y2="253.15"/><line class="cls-1" x1="44.42" y1="256.82" x2="53.16" y2="254.65"/><line class="cls-1" x1="44.03" y1="257.89" x2="52.15" y2="255.86"/><line class="cls-1" x1="43.7" y1="258.76" x2="51.31" y2="256.88"/><line class="cls-1" x1="43.42" y1="259.52" x2="50.32" y2="258.05"/><line class="cls-1" x1="43.07" y1="260.49" x2="49.66" y2="258.96"/><line class="cls-1" x1="42.75" y1="261.34" x2="48.6" y2="260.12"/><line class="cls-1" x1="42.44" y1="262.18" x2="47.75" y2="261.12"/><line class="cls-1" x1="42.17" y1="262.9" x2="46.88" y2="262.18"/><path class="cls-1" d="M41.76,264l3.84-.31,18.31,2.58-23.8,5.61-22.59-5.21,17.57-3"/><line class="cls-1" x1="41.99" y1="263.4" x2="46.14" y2="263.05"/><line class="cls-1" x1="41.47" y1="264.79" x2="45.03" y2="264.39"/><line class="cls-1" x1="41.25" y1="265.39" x2="44.42" y2="265.11"/><line class="cls-1" x1="41.04" y1="265.96" x2="43.91" y2="265.73"/><line class="cls-1" x1="40.72" y1="266.51" x2="43.42" y2="266.31"/><line class="cls-1" x1="40.58" y1="267.21" x2="42.84" y2="267.01"/><line class="cls-1" x1="40.34" y1="267.85" x2="42.23" y2="267.73"/><line class="cls-1" x1="47.02" y1="248.98" x2="57.84" y2="246.54"/><line class="cls-1" x1="47.06" y1="248.16" x2="57.87" y2="246"/><line class="cls-1" x1="47.06" y1="247.43" x2="57.91" y2="245.29"/><line class="cls-1" x1="47.16" y1="246.36" x2="57.98" y2="244.31"/><line class="cls-1" x1="47.22" y1="245.29" x2="58.01" y2="243.46"/><line class="cls-1" x1="47.28" y1="244.16" x2="58.06" y2="242.53"/><line class="cls-1" x1="47.22" y1="243.25" x2="58.1" y2="241.77"/><line class="cls-1" x1="47.39" y1="242.19" x2="58.1" y2="240.85"/><line class="cls-1" x1="47.45" y1="241.15" x2="58.2" y2="239.88"/><line class="cls-1" x1="47.5" y1="240.16" x2="58.25" y2="239.04"/><line class="cls-1" x1="47.55" y1="239.35" x2="58.3" y2="238.15"/><path class="cls-1" d="M47.69,238.4l10.66-1.3"/><line class="cls-1" x1="47.62" y1="237.5" x2="58.51" y2="236.02"/><line class="cls-1" x1="47.79" y1="236.44" x2="58.51" y2="235.09"/><line class="cls-1" x1="47.85" y1="235.4" x2="58.61" y2="234.13"/><line class="cls-1" x1="47.91" y1="234.4" x2="58.66" y2="233.28"/><line class="cls-1" x1="47.95" y1="233.59" x2="58.7" y2="232.4"/><path class="cls-1" d="M48.08,232.59l10.58-1.13"/><path class="cls-1" d="M48,231.69l10.7-1.11"/><path class="cls-1" d="M48.18,231l10.72-1.35"/><line class="cls-1" x1="48.24" y1="229.96" x2="59" y2="228.68"/><line class="cls-1" x1="48.3" y1="228.96" x2="59.04" y2="227.84"/><line class="cls-1" x1="48.34" y1="228.15" x2="59.09" y2="226.96"/><line class="cls-1" x1="48.15" y1="227.11" x2="58.9" y2="225.92"/><path class="cls-1" d="M48.27,226.11,58.86,225"/><path class="cls-1" d="M48.21,225.2l10.7-1.1"/><path class="cls-1" d="M48.38,224.51l10.71-1.34"/><line class="cls-1" x1="48.44" y1="223.47" x2="59.19" y2="222.2"/><line class="cls-1" x1="48.49" y1="222.48" x2="59.24" y2="221.36"/><line class="cls-1" x1="48.54" y1="221.67" x2="59.29" y2="220.48"/><line class="cls-1" x1="48.55" y1="220.76" x2="59.3" y2="219.57"/><path class="cls-1" d="M48.67,219.76l10.59-1.13"/><path class="cls-1" d="M48.61,218.85l10.7-1.1"/><path class="cls-1" d="M48.78,218.16l10.71-1.35"/><line class="cls-1" x1="48.84" y1="217.49" x2="59.59" y2="216.21"/><polyline class="cls-1" points="229.22 216.53 229.22 245.96 251.23 249.96 262.06 247.24 263.72 216.91"/><line class="cls-1" x1="231.68" y1="216.53" x2="232.26" y2="243.24"/><polyline class="cls-1" points="248.69 217.44 247.06 246.71 231.68 244.22"/><polyline class="cls-1" points="262.06 247.24 263.12 247.84 246.04 268.27 244.35 268.52"/><path class="cls-1" d="M232.78,250.49l14.8,2.67-5.11,10.69-6.95-11.3"/><path class="cls-1" d="M276.2,272.08a3,3,0,0,0-.88-2.89,2.36,2.36,0,0,0-1.28-.55,2.41,2.41,0,0,0-1.19.24c-1,.43-11.81,3.5-28.53,8.12-18.09-4-26.39-5.9-26.67-6.06l-.09-.06a2.45,2.45,0,0,0-.94-.26A3.2,3.2,0,0,0,215,271,2.34,2.34,0,0,0,213.9,272c-.42,1,.53,1.81.64,1.91l29.64,6.15Z"/><path class="cls-1" d="M222.62,266.89a3.18,3.18,0,0,0-.67,1.5,2.54,2.54,0,0,0,0,.67,3.25,3.25,0,0,0,.47,1.32l21.9,4.67,23-6.45a3.38,3.38,0,0,0,.16-1.32,3.86,3.86,0,0,0-.16-.77"/><path class="cls-1" d="M244.37,271.88c-.06,2.74-.13,5.48-.19,8.22"/><path class="cls-1" d="M216.8,270.48l5.13-1.05"/><path class="cls-1" d="M272.85,268.88l-5.37-1.23"/><path class="cls-1" d="M229.22,246l-1.75.45,15.24,22.11h1.65L251.23,250l1.84-33.43"/><line class="cls-1" x1="229.62" y1="247.24" x2="249.94" y2="251.15"/><line class="cls-1" x1="262.25" y1="247.94" x2="252.07" y2="250.62"/><line class="cls-1" x1="250.47" y1="252" x2="262.17" y2="248.97"/><line class="cls-1" x1="250.05" y1="253.15" x2="260.91" y2="250.48"/><line class="cls-1" x1="249.53" y1="254.53" x2="259.64" y2="252"/><line class="cls-1" x1="249.17" y1="255.53" x2="258.68" y2="253.15"/><line class="cls-1" x1="248.69" y1="256.81" x2="257.43" y2="254.65"/><line class="cls-1" x1="248.29" y1="257.88" x2="256.42" y2="255.86"/><line class="cls-1" x1="247.97" y1="258.76" x2="255.57" y2="256.87"/><line class="cls-1" x1="247.69" y1="259.52" x2="254.59" y2="258.05"/><line class="cls-1" x1="247.33" y1="260.48" x2="253.92" y2="258.95"/><line class="cls-1" x1="247.02" y1="261.33" x2="252.86" y2="260.11"/><line class="cls-1" x1="246.71" y1="262.17" x2="252.02" y2="261.12"/><line class="cls-1" x1="246.44" y1="262.9" x2="251.14" y2="262.17"/><path class="cls-1" d="M246,264l3.83-.3,18.32,2.58-23.81,5.6-22.59-5.21,17.57-3"/><line class="cls-1" x1="246.25" y1="263.39" x2="250.41" y2="263.05"/><line class="cls-1" x1="245.74" y1="264.79" x2="249.29" y2="264.38"/><line class="cls-1" x1="245.52" y1="265.38" x2="248.69" y2="265.11"/><line class="cls-1" x1="245.31" y1="265.95" x2="248.17" y2="265.72"/><line class="cls-1" x1="244.98" y1="266.51" x2="247.69" y2="266.3"/><line class="cls-1" x1="244.84" y1="267.2" x2="247.1" y2="267"/><line class="cls-1" x1="244.61" y1="267.84" x2="246.5" y2="267.73"/><line class="cls-1" x1="251.28" y1="248.97" x2="262.1" y2="246.54"/><line class="cls-1" x1="251.33" y1="248.15" x2="262.13" y2="246"/><line class="cls-1" x1="251.33" y1="247.42" x2="262.17" y2="245.29"/><line class="cls-1" x1="251.42" y1="246.35" x2="262.25" y2="244.3"/><line class="cls-1" x1="251.48" y1="245.29" x2="262.27" y2="243.46"/><line class="cls-1" x1="251.55" y1="244.15" x2="262.32" y2="242.53"/><line class="cls-1" x1="251.48" y1="243.24" x2="262.36" y2="241.76"/><line class="cls-1" x1="251.65" y1="242.19" x2="262.36" y2="240.84"/><line class="cls-1" x1="251.71" y1="241.15" x2="262.47" y2="239.88"/><line class="cls-1" x1="251.77" y1="240.15" x2="262.51" y2="239.03"/><line class="cls-1" x1="251.81" y1="239.34" x2="262.56" y2="238.15"/><path class="cls-1" d="M252,238.4l10.67-1.31"/><line class="cls-1" x1="251.89" y1="237.49" x2="262.77" y2="236.01"/><line class="cls-1" x1="252.06" y1="236.44" x2="262.77" y2="235.09"/><line class="cls-1" x1="252.12" y1="235.4" x2="262.87" y2="234.12"/><line class="cls-1" x1="252.17" y1="234.4" x2="262.92" y2="233.28"/><line class="cls-1" x1="252.22" y1="233.59" x2="262.97" y2="232.4"/><path class="cls-1" d="M252.34,232.59l10.59-1.13"/><path class="cls-1" d="M252.28,231.68l10.7-1.1"/><path class="cls-1" d="M252.45,231l10.71-1.35"/><line class="cls-1" x1="252.51" y1="229.95" x2="263.26" y2="228.68"/><line class="cls-1" x1="252.56" y1="228.95" x2="263.31" y2="227.83"/><line class="cls-1" x1="252.61" y1="228.14" x2="263.36" y2="226.95"/><line class="cls-1" x1="252.41" y1="227.11" x2="263.16" y2="225.92"/><path class="cls-1" d="M252.54,226.11,263.12,225"/><path class="cls-1" d="M252.47,225.2l10.7-1.1"/><path class="cls-1" d="M252.64,224.51l10.72-1.35"/><line class="cls-1" x1="252.7" y1="223.47" x2="263.46" y2="222.2"/><line class="cls-1" x1="252.76" y1="222.47" x2="263.5" y2="221.35"/><line class="cls-1" x1="252.8" y1="221.66" x2="263.55" y2="220.47"/><line class="cls-1" x1="252.81" y1="220.75" x2="263.56" y2="219.56"/><path class="cls-1" d="M252.94,219.75l10.58-1.13"/><path class="cls-1" d="M252.87,218.84l10.7-1.1"/><path class="cls-1" d="M253,218.16l10.71-1.35"/><line class="cls-1" x1="253.1" y1="217.48" x2="263.86" y2="216.21"/></g></svg>