<svg id="Layer_1" data-name="Layer 1" xmlns="http://www.w3.org/2000/svg" viewBox="0 0 288 288"><defs><style>.cls-1{fill:none;stroke:#c84d00;stroke-miterlimit:10;stroke-width:0.5px;}</style></defs><path class="cls-1" d="M21.33,238.63c.39,4.5.75,8.18,1,10.87.32,3.12.51,4.69.56,5.08q.49,3.87,1.12,7.62a4.85,4.85,0,0,1-1.5,5.54,5.47,5.47,0,0,1-1.83,1c-.61.15-1.3.2-1.58.49-.11.11-.09.2-.24.46a3,3,0,0,1-.36.47"/><path class="cls-1" d="M54.71,237.63c-.36,1.83-.58,3.32-.71,4.32-.37,3-.31,4.29-.83,7.26-.18,1-.34,1.77-.57,2.88-1.71,8-3,10.75-.88,14.53.26.45.49.81.61,1,0,0,2.68.38,2.77.73,0,.08,0,.13-.06.22h0a.24.24,0,0,1,0,.12h0s.07.17.36.49"/><path class="cls-1" d="M56.49,271.17l-.42-2c-1.49.17-3.72.42-6.46.63-3.68.29-7.81.48-17.75.49-4.07,0-9.33,0-15.52-.13l-.5,1.89"/><path class="cls-1" d="M24,268.32a117.39,117.39,0,0,0,13.83.55c4.42-.09,8.23-.41,11.27-.77"/><path class="cls-1" d="M61.87,273.46l-.6-2.6c-7.54.65-16.31,1.17-26.11,1.34-9,.15-17.2,0-24.35-.35l-.15,2.7"/><path class="cls-1" d="M8.1,274.55c12,.12,24.89,0,38.53-.45q9.66-.32,18.67-.83c.2.8.39,1.59.58,2.39q-11.83.58-24.83.89c-11.94.28-23.25.31-33.85.18Z"/><path class="cls-1" d="M21.53,222.57A85.75,85.75,0,0,0,39.31,224a83.22,83.22,0,0,0,16.51-2"/><path class="cls-1" d="M21.82,222.63c-1.63-1.61-2.05-2.18-1.87-2.23s2.06,1.22,2.4,1.12-.68-1.09-.52-1.12,1.39,1.14,1.65,1.09-.33-.76-.08-.81.82.71,1.8.74c.76,0,1-.41,1.73-.39,1,0,1.3.82,2.1.81s.77-.66,1.58-.74c1.06-.1,1.77,1,3.07.91,1.11,0,1.63-.83,2.33-.73s.4.58,1,.66c.75.11,1.48-.7,2.41-.63s1,.89,1.72.91,1.24-1,2.33-1.05,1.39.77,2.4.77,1.35-1.11,2.1-1.08.84,1,1.5,1c.82,0,1.44-1.4,2.1-1.37s.5,1,1.13,1.09,1.65-1.21,1.95-1.16-.29.89,0,.95,2.07-1.67,2.63-1.58c.32.06.1.69.07.77a3.18,3.18,0,0,1-1.5,1.51"/><path class="cls-1" d="M21.82,222.63a11.67,11.67,0,0,0-2.95,2.1c-.72.73-1.47,1.79-1.24,6.41.11,2.38.38,3.56.41,6.75v.81"/><path class="cls-1" d="M18,238.55a2.11,2.11,0,0,0,.81,0,1.18,1.18,0,0,0,.6-.38c.33-.33.35-.54.46-.54s0,.56.63.84a3.4,3.4,0,0,0,1.77.08,2.42,2.42,0,0,0,1.05-.56c.35-.29.4-.49.63-.5s.27.12.56.3a4.94,4.94,0,0,0,1,.49,4.84,4.84,0,0,0,2.49.11c1-.28,1.06-1,1.42-1,.16,0,.17.14.4.38a2.49,2.49,0,0,0,1.16.74,4.07,4.07,0,0,0,2.19,0c.89-.33.63-1.08,1-1.1.16,0,.27.13.6.37a5.76,5.76,0,0,0,1,.61,5.3,5.3,0,0,0,3,.19,3.41,3.41,0,0,0,1.56-1c.11-.11.12-.26.26-.27s.35.33.75.64a4.05,4.05,0,0,0,2.46.76,3.08,3.08,0,0,0,2-.93c.22-.24.31-.5.42-.49s0,.31.25.62a3.14,3.14,0,0,0,1.57.59A4.48,4.48,0,0,0,50,238.4c.89-.25.76-.93,1.07-.92.14,0,.17.15.46.39a2.07,2.07,0,0,0,1.19.53,2,2,0,0,0,1.36-.64c.29-.3.24-.54.38-.55s.09.38.6.72a2.44,2.44,0,0,0,1.36.4c.76-.05.65-1,1.1-1a.93.93,0,0,1,.54.31c.22.21.15.35.38.43a1.28,1.28,0,0,0,.55,0c.38-.09.47-.48.21-1"/><path class="cls-1" d="M55.82,222.05A11.63,11.63,0,0,1,58,224.74c1.49,2.62.73,4.34.83,8.41a32.12,32.12,0,0,0,.35,4"/><path class="cls-1" d="M20.09,236.72A40.89,40.89,0,0,0,20,232c-.23-3-.71-4.57.74-6.67a9.82,9.82,0,0,1,1.66-1.81"/><path class="cls-1" d="M23.73,236.79A34.34,34.34,0,0,0,23.4,231a8.52,8.52,0,0,1-.09-3.39A8.9,8.9,0,0,1,25.13,224"/><path class="cls-1" d="M29.35,236.6a51,51,0,0,1-.25-5.51,22.67,22.67,0,0,1,.48-5.12c.15-.66.31-1.2.43-1.58"/><path class="cls-1" d="M34.14,236.52a68,68,0,0,0,.16-8.13c0-1.26-.13-2.51-.24-3.73"/><path class="cls-1" d="M40.5,236.41l-.82-11.64"/><path class="cls-1" d="M46,236.45a70.83,70.83,0,0,0-.38-9.84,4.32,4.32,0,0,0-.51-1.1,5.37,5.37,0,0,0-1-1.08"/><path class="cls-1" d="M50.78,236.72a37.12,37.12,0,0,0,.58-5.41c.1-3.16-.27-4.76-1.76-6.48a10.78,10.78,0,0,0-.9-.9"/><path class="cls-1" d="M54.26,236.38a49.22,49.22,0,0,0,.5-4.95c.18-3.59-.13-5.25-2-7a12,12,0,0,0-1.09-.88"/><path class="cls-1" d="M54.09,223a11.37,11.37,0,0,1,1.41,1.51c1.65,2.14,1.49,3.82,1.5,6.18a53.5,53.5,0,0,0,.33,5.8"/><path class="cls-1" d="M22.23,216l.05,4.69"/><path class="cls-1" d="M56.42,216.19c-.19,1.46-.37,2.92-.56,4.38"/><path class="cls-1" d="M23.36,238q1.09,13.25,2.21,26.49"/><path class="cls-1" d="M26.35,238.52c.94,14.81,1.62,25.31,1.7,26a5.73,5.73,0,0,0,0,.77c0,.72,0,.93-.31,1a2.49,2.49,0,0,1-1.24-.07c-.24-.08-.52-.22-.78-1.06a4.6,4.6,0,0,1-.17-.82"/><path class="cls-1" d="M29.42,237.39c.63,15.63,1.09,27,1.12,27.62a4.27,4.27,0,0,0,.18.86A1.52,1.52,0,0,0,32,267.09a1.3,1.3,0,0,0,.85-.37,1,1,0,0,0,.34-.83,9.59,9.59,0,0,0,0-1.18c-.17-.61-.34-7.6-.46-26.21"/><path class="cls-1" d="M35,237.92c.62,16.42,1,27.36.89,27.91a1.07,1.07,0,0,0,.08.68c.13.37.23.62.68.74a2.4,2.4,0,0,0,1.25,0c.31-.11.36-.28.43-.77a6.48,6.48,0,0,0,.11-.91c-.06-.63.48-11.5,1.33-27.49"/><path class="cls-1" d="M42.73,238.55c-.73,14.74-1.28,24.92-1.49,25.84,0,0,0,.74.09,1.56,0,.41,0,.67.45.83a3,3,0,0,0,1.79,0c.38-.14.42-.34.63-1.13s.24-.82.26-.93c.12-.78,1.32-11.61,2.92-26.4"/><path class="cls-1" d="M49.65,238.48C48.18,252,47.11,261.8,47,263c0,.05,0,.44-.1,1.23-.08,1.17-.11,1.74.57,1.92a1.2,1.2,0,0,0,.51.05c.41-.05.58-.35.82-.9a3.93,3.93,0,0,0,.35-1c.06-.77,1.53-11.29,3.56-25.82"/><path class="cls-1" d="M24.51,216.08l0,5.18"/><path class="cls-1" d="M28.66,216.2c-.13,1.8-.27,3.59-.4,5.39"/><path class="cls-1" d="M30.51,216.14l.1,5"/><path class="cls-1" d="M35.64,216.26l-.42,5.22"/><path class="cls-1" d="M37.45,216.21c.17,1.84.33,3.67.5,5.51"/><path class="cls-1" d="M42.17,216.22,41.75,222"/><path class="cls-1" d="M44.94,216.23l-.06,5.46"/><path class="cls-1" d="M49.5,216.09l-.81,5.24"/><path class="cls-1" d="M51.6,216.21l-.39,4.35"/><path class="cls-1" d="M54.73,216.17l-1,4.84"/><path class="cls-1" d="M266.35,238.63c-.39,4.5-.75,8.18-1,10.87-.32,3.12-.52,4.69-.57,5.08-.33,2.58-.7,5.12-1.13,7.62a4.8,4.8,0,0,0,1.52,5.54,5.54,5.54,0,0,0,1.85,1c.62.15,1.32.2,1.6.49.11.11.09.2.25.46a3,3,0,0,0,.36.47"/><path class="cls-1" d="M232.54,237.63c.37,1.83.59,3.32.72,4.32.38,3,.31,4.29.84,7.26.18,1,.34,1.77.58,2.88,1.73,8,3,10.75.88,14.53a11.35,11.35,0,0,1-.61,1s-2.71.38-2.8.73c0,.08,0,.13.06.22h0a.26.26,0,0,0,0,.12h0s-.07.17-.36.49"/><path class="cls-1" d="M230.73,271.17c.15-.67.29-1.34.43-2,1.52.17,3.77.42,6.54.63,3.74.29,7.91.48,18,.49,4.12,0,9.45,0,15.72-.13l.5,1.89"/><path class="cls-1" d="M263.6,268.32a120.31,120.31,0,0,1-14,.55c-4.47-.09-8.33-.41-11.41-.77"/><path class="cls-1" d="M225.29,273.46c.2-.87.4-1.73.61-2.6,7.63.65,16.52,1.17,26.45,1.34,9.13.15,17.42,0,24.66-.35l.15,2.7"/><path class="cls-1" d="M279.76,274.55c-12.16.12-25.21,0-39-.45q-9.78-.32-18.92-.83c-.2.8-.39,1.59-.59,2.39,8,.39,16.39.69,25.15.89,12.1.28,23.56.31,34.29.18Z"/><path class="cls-1" d="M266.16,222.57a88.14,88.14,0,0,1-18,1.44,85.23,85.23,0,0,1-16.72-2"/><path class="cls-1" d="M265.86,222.63c1.65-1.61,2.07-2.18,1.89-2.23s-2.08,1.22-2.43,1.12.68-1.09.53-1.12-1.41,1.14-1.67,1.09.33-.76.08-.81-.83.71-1.83.74c-.76,0-1-.41-1.75-.39-1,0-1.32.82-2.13.81s-.77-.66-1.59-.74c-1.08-.1-1.8,1-3.12.91-1.12,0-1.65-.83-2.36-.73-.55.07-.41.58-1,.66-.76.11-1.5-.7-2.44-.63s-1,.89-1.74.91-1.26-1-2.36-1.05-1.41.77-2.43.77-1.38-1.11-2.13-1.08-.85,1-1.52,1c-.83,0-1.46-1.4-2.13-1.37s-.51,1-1.14,1.09-1.67-1.21-2-1.16.29.89,0,.95-2.09-1.67-2.66-1.58c-.32.06-.1.69-.07.77a3.17,3.17,0,0,0,1.52,1.51"/><path class="cls-1" d="M265.86,222.63a12,12,0,0,1,3,2.1c.73.73,1.49,1.79,1.25,6.41-.11,2.38-.39,3.56-.41,6.75v.81"/><path class="cls-1" d="M269.69,238.55a2.17,2.17,0,0,1-.82,0,1.15,1.15,0,0,1-.61-.38c-.34-.33-.36-.54-.47-.54s0,.56-.64.84a3.47,3.47,0,0,1-1.79.08,2.4,2.4,0,0,1-1.06-.56c-.35-.29-.41-.49-.64-.5s-.28.12-.57.3a5.21,5.21,0,0,1-1,.49,5,5,0,0,1-2.52.11c-1-.28-1.08-1-1.45-1-.15,0-.17.14-.4.38a2.47,2.47,0,0,1-1.18.74,4.15,4.15,0,0,1-2.21,0c-.9-.33-.64-1.08-1-1.1-.17,0-.27.13-.61.37a5.81,5.81,0,0,1-1,.61,5.45,5.45,0,0,1-3,.19,3.46,3.46,0,0,1-1.58-1c-.12-.11-.13-.26-.27-.27s-.35.33-.76.64a4.11,4.11,0,0,1-2.49.76,3.09,3.09,0,0,1-2-.93c-.23-.24-.32-.5-.43-.49s0,.31-.26.62a3.2,3.2,0,0,1-1.59.59,4.57,4.57,0,0,1-1.93-.06c-.9-.25-.77-.93-1.08-.92-.15,0-.17.15-.47.39a2.1,2.1,0,0,1-1.21.53,2,2,0,0,1-1.37-.64c-.29-.3-.25-.54-.39-.55s-.09.38-.6.72a2.53,2.53,0,0,1-1.38.4c-.77-.05-.66-1-1.11-1a1,1,0,0,0-.56.31c-.21.21-.15.35-.38.43a1.33,1.33,0,0,1-.56,0c-.38-.09-.47-.48-.21-1"/><path class="cls-1" d="M231.42,222.05a11.38,11.38,0,0,0-2.2,2.69c-1.51,2.62-.74,4.34-.84,8.41a32.54,32.54,0,0,1-.36,4"/><path class="cls-1" d="M267.61,236.72a40.89,40.89,0,0,1,.08-4.7c.24-3,.72-4.57-.75-6.67a9.82,9.82,0,0,0-1.68-1.81"/><path class="cls-1" d="M263.93,236.79a33.3,33.3,0,0,1,.33-5.78,8.34,8.34,0,0,0,.08-3.39A8.55,8.55,0,0,0,262.5,224"/><path class="cls-1" d="M258.23,236.6a48.52,48.52,0,0,0,.25-5.51A21.92,21.92,0,0,0,258,226c-.15-.66-.31-1.2-.43-1.58"/><path class="cls-1" d="M253.38,236.52a68,68,0,0,1-.17-8.13c0-1.26.14-2.51.25-3.73"/><path class="cls-1" d="M246.93,236.41l.84-11.64"/><path class="cls-1" d="M241.41,236.45a70.09,70.09,0,0,1,.39-9.84,4.32,4.32,0,0,1,.51-1.1,5.39,5.39,0,0,1,1-1.08"/><path class="cls-1" d="M236.52,236.72a35.78,35.78,0,0,1-.58-5.41c-.11-3.16.26-4.76,1.78-6.48a12.56,12.56,0,0,1,.9-.9"/><path class="cls-1" d="M233,236.38a49.56,49.56,0,0,1-.51-4.95c-.18-3.59.13-5.25,2-7a11.83,11.83,0,0,1,1.11-.88"/><path class="cls-1" d="M233.16,223a11.34,11.34,0,0,0-1.42,1.51c-1.67,2.14-1.51,3.82-1.52,6.18a53.5,53.5,0,0,1-.33,5.8"/><path class="cls-1" d="M265.44,216l-.05,4.69"/><path class="cls-1" d="M230.81,216.19c.19,1.46.38,2.92.56,4.38"/><path class="cls-1" d="M264.3,238q-1.11,13.25-2.24,26.49"/><path class="cls-1" d="M261.27,238.52c-.95,14.81-1.64,25.31-1.72,26,0-.1,0,.18,0,.77s0,.93.32,1a2.53,2.53,0,0,0,1.25-.07c.25-.08.54-.22.8-1.06a4.6,4.6,0,0,0,.17-.82"/><path class="cls-1" d="M258.15,237.39c-.63,15.63-1.1,27-1.13,27.62a4.13,4.13,0,0,1-.17.86,1.58,1.58,0,0,1-1.29,1.22,1.33,1.33,0,0,1-.86-.37,1,1,0,0,1-.34-.83,9.59,9.59,0,0,1,0-1.18c.18-.61.34-7.6.47-26.21"/><path class="cls-1" d="M252.5,237.92c-.63,16.42-1,27.36-.9,27.91a1.15,1.15,0,0,1-.09.68c-.13.37-.23.62-.68.74a2.48,2.48,0,0,1-1.27,0c-.32-.11-.37-.28-.44-.77a6.48,6.48,0,0,1-.11-.91c.06-.63-.49-11.5-1.35-27.49"/><path class="cls-1" d="M244.67,238.55c.74,14.74,1.3,24.92,1.51,25.84,0,0,0,.74-.09,1.56,0,.41,0,.67-.45.83a3.1,3.1,0,0,1-1.81,0c-.39-.14-.43-.34-.65-1.13s-.24-.82-.26-.93c-.12-.78-1.33-11.61-2.95-26.4"/><path class="cls-1" d="M237.67,238.48c1.49,13.51,2.57,23.32,2.7,24.48,0,.05,0,.44.1,1.23.09,1.17.11,1.74-.57,1.92a1.29,1.29,0,0,1-.52.05c-.42-.05-.59-.35-.83-.9a3.93,3.93,0,0,1-.35-1c-.07-.77-1.55-11.29-3.61-25.82"/><path class="cls-1" d="M263.13,216.08c0,1.73,0,3.45,0,5.18"/><path class="cls-1" d="M258.93,216.2c.13,1.8.27,3.59.4,5.39"/><path class="cls-1" d="M257.05,216.14l-.09,5"/><path class="cls-1" d="M251.86,216.26l.42,5.22"/><path class="cls-1" d="M250,216.21c-.16,1.84-.33,3.67-.5,5.51"/><path class="cls-1" d="M245.24,216.22c.14,1.94.29,3.88.43,5.81"/><path class="cls-1" d="M242.44,216.23l.05,5.46"/><path class="cls-1" d="M237.82,216.09q.41,2.63.82,5.24"/><path class="cls-1" d="M235.69,216.21l.39,4.35"/><path class="cls-1" d="M232.52,216.17l1,4.84"/></svg>