<svg xmlns="http://www.w3.org/2000/svg" viewBox="0 0 288 288"><defs><style>.cls-1{fill:none;stroke:#c84d00;stroke-miterlimit:10;stroke-width:0.5px;}</style></defs><g id="Layer_2" data-name="Layer 2"><path class="cls-1" d="M32,114.17A55.4,55.4,0,0,0,28.64,100C27.19,96.15,26,94.4,25,90.08s-2-8.45.24-11.4c1.73-2.3,4.55-2.79,7.16-3.24,1.29-.22,10.51-1.67,14.78,3.41,2.42,2.87,2,6.34,1.58,12.59-.35,5.64-.69,13.93-.45,24.44"/><path class="cls-1" d="M48.32,115.88a143.33,143.33,0,0,0,1.12-23.47,12.43,12.43,0,0,1,1.34-7c2.64-4.67,8.22-5.87,9-6,1.64-.33,2.56-.51,3.59-.06,3.38,1.46,4.63,8.2,2.4,12.43C64.66,93.8,63.7,93.39,62,96.16a23.75,23.75,0,0,0-2.38,7.38A29,29,0,0,0,60,113.2"/><path class="cls-1" d="M24.31,86.89a5.92,5.92,0,0,0-6.51-1.76,5.38,5.38,0,0,0-3.1,4c-.57,3,1.79,5.59,3.38,7.75a34.84,34.84,0,0,1,6.06,15.07"/><path class="cls-1" d="M25,126.35a25.83,25.83,0,0,0,17.8,6.74,25.57,25.57,0,0,0,15.5-5.87"/><path class="cls-1" d="M25.24,129.07A23.74,23.74,0,0,0,42,136.73a23.57,23.57,0,0,0,16-6.13"/><path class="cls-1" d="M22.26,216c1-16.86,2-29.9,2.59-37.79,0,0,1.34-17.67-.1-58.6a9.6,9.6,0,0,0-.47-2.82c-.4-1.16-.83-1.77-.67-1.63a29.41,29.41,0,0,0,19.16,6.62,29.07,29.07,0,0,0,16.37-5.71c.09-.07.16-.09.21-.07.36.13-.12,2.07-.21,2.48-.89,3.84-.71,7.85-1.07,11.77-.33,3.58-.83,21.5-1.54,85.75"/><path class="cls-1" d="M25.33,142.52a24.83,24.83,0,0,0,32.54-1.11"/><path class="cls-1" d="M25.28,139.35a24.71,24.71,0,0,0,32.41-.11"/><path class="cls-1" d="M25.25,166.38a24.61,24.61,0,0,0,31.91-1.47"/><path class="cls-1" d="M25.32,163.32a24.5,24.5,0,0,0,31.9-.76"/><path class="cls-1" d="M24.32,185.46c2.52,1.57,9.7,5.63,17.92,5a28.53,28.53,0,0,0,5.65-1,27.17,27.17,0,0,0,9.19-4.77"/><path class="cls-1" d="M24.49,182.88a27.24,27.24,0,0,0,32.42-.09"/><path class="cls-1" d="M22.86,209.32a31.62,31.62,0,0,0,18.35,4.37,29.76,29.76,0,0,0,15.38-5.26"/><path class="cls-1" d="M22.81,206.77a30.58,30.58,0,0,0,17.1,4.82,30.3,30.3,0,0,0,16.51-4.91"/><path class="cls-1" d="M25.08,170.31a24.81,24.81,0,0,0,32.08-1.46"/><path class="cls-1" d="M25.79,116.78q.62,4.47,1.11,9.11c.08.76.16,1.51.23,2.27"/><line class="cls-1" x1="27.94" y1="118.1" x2="28.75" y2="129.23"/><line class="cls-1" x1="29.51" y1="118.91" x2="30.9" y2="130.43"/><line class="cls-1" x1="31.94" y1="119.95" x2="33.15" y2="131.41"/><line class="cls-1" x1="33.9" y1="120.62" x2="35.12" y2="131.89"/><line class="cls-1" x1="36.32" y1="121.23" x2="37.09" y2="132.4"/><line class="cls-1" x1="38.69" y1="121.79" x2="38.97" y2="132.9"/><line class="cls-1" x1="41.01" y1="121.79" x2="41.17" y2="133.08"/><line class="cls-1" x1="43.48" y1="121.79" x2="43.48" y2="133.1"/><line class="cls-1" x1="46.06" y1="121.51" x2="45.91" y2="132.81"/><line class="cls-1" x1="48.89" y1="120.94" x2="48.51" y2="132.12"/><line class="cls-1" x1="51.3" y1="120.22" x2="50.99" y2="131.47"/><line class="cls-1" x1="53.36" y1="119.25" x2="53.07" y2="130.58"/><line class="cls-1" x1="55.21" y1="118.53" x2="55.06" y2="129.52"/><path class="cls-1" d="M57.42,117.26c-.1.79-.2,1.6-.28,2.42-.33,3.08-.49,6-.53,8.84"/><path class="cls-1" d="M23.61,115.17c-1.52-1-2.1-2.29-1.73-2.94a1.8,1.8,0,0,1,2.26-.33c.86.58.66,2,1.15,2.06s.48-.78,1.22-1.07a1.77,1.77,0,0,1,2.09.72c.28.67-.47,1.45-.26,1.63s.85-.65,2-1c.28-.07,1.49-.4,2,.15s0,2.4.15,2.45.32-1.26,1.28-1.84a1.78,1.78,0,0,1,2,0c.69.6.17,2.19.21,2.19s0-2.44,1.08-3a2.2,2.2,0,0,1,2.09.51c1.37,1.08,1.42,3.22,1.53,3.2s-.43-1.48.24-2.56c.44-.72,1.41-1.23,1.85-1,.79.48-.51,3.21.32,3.71a.91.91,0,0,0,1.14-.35c.27-.6-1-1.36-.77-2a1.44,1.44,0,0,1,1.94-.31c.63.6-.08,2.29.1,2.35S46,116.33,47,115.9a1.68,1.68,0,0,1,2,.51c.37.71-.39,1.91-.45,1.88s.24-2.33,1.48-2.83a1.41,1.41,0,0,1,1.13,0c.83.47.74,2.05.85,2s-.32-2.66.68-3.24a1.72,1.72,0,0,1,1.81.41,3.12,3.12,0,0,1,.77,2s-.88-2.53.11-3.54a1.93,1.93,0,0,1,2.45-.09c.75.73.18,2.35.44,2.41s.5-1.76,1.74-2.29c.82-.35,2-.19,2.24.41s-.71,1.45-1.28,1.83a3.6,3.6,0,0,1-1.64.57"/><path class="cls-1" d="M38.42,114.29c1.07-9.61-.89-16.29-2.76-20.48a49.17,49.17,0,0,0-3.39-6.06,43.91,43.91,0,0,1,8.11,15.51A40.6,40.6,0,0,1,42,114.5"/><path class="cls-1" d="M38.46,113.87c-1.1-2-2.14-4-1.81-4.2s.94.8,1.32.62c.85-.4-.06-6.57-3.79-11.52-1.49-2-3.17-3.4-3-3.65s4.29,2.66,4.59,2.3-4.72-4.8-4.31-5.33c.24-.32,2.4.92,4.33,2.11"/><path class="cls-1" d="M42,114.25c1.32-2.24,2.64-4.64,2.32-4.86s-1.17,1.18-1.74,1c-1.47-.55,1.3-11,.49-11.21-.42-.12-1.34,2.79-2,2.67-1.24-.23-.13-10.8-.78-10.88-.44,0-1.32,4.59-1.68,4.53s.35-4.59-.34-4.77c-.39-.1-1.1,1.2-1.87,2.93"/><path class="cls-1" d="M28.54,114.9A49.12,49.12,0,0,0,22.9,95.63c-1.91-3.44-4.22-6.39-4.35-6.27s2.74,4.13,4.78,9.57A44.33,44.33,0,0,1,26,113.46"/><path class="cls-1" d="M25.77,113.61c-1.19-3-2-5.53-1.63-5.83.21-.16.64.38.78.24.42-.45-3.47-6.36-3-6.9.25-.29,1.59,1.15,1.74.95.29-.38-4.46-5.83-4-6.5.15-.22.86.05,2.63,1.31"/><path class="cls-1" d="M23.47,96c-1.46-4-1.69-4.93-1.57-5s2.43,2.79,3.3,6.77c.22,1,.5,2.78.84,2.76s.29-.91.47-.92c.57,0,1.07,8.93,1.66,8.92.2,0,.28-1,.41-.94s.29,3.05.25,7.38"/><path class="cls-1" d="M51.18,115.49C52.28,101,56,93.81,58.51,90.3c.45-.63,2.93-4,3.17-3.9s-2.1,4.06-3.28,6.35c-2.29,4.46-4.48,11.3-3.81,21.69"/><path class="cls-1" d="M54.5,112.55c1.93-3.53,3.31-6.33,3-6.55s-2,2.09-2.37,1.85c-.79-.47,5-10.92,4-11.5-.41-.25-1.75,1.63-2.09,1.39S57.83,94,60.67,92c.85-.63,1.85-.86,1.81-1s-1.82.09-3.32.4"/><path class="cls-1" d="M50.68,115.36c-.4-7.84-.35-10.8,0-10.83s.5,1.55.76,1.52c.6-.07-.48-8.72.94-9.07.38-.09.63.88,1.13.83.78-.08.88-2.41,1.89-5.76a16.91,16.91,0,0,1,1.82-4.42,28,28,0,0,0-.53,3,11.75,11.75,0,0,0,0,2.3"/><path class="cls-1" d="M17.89,72q.59,6.41,1.16,12.81"/><path class="cls-1" d="M60.77,72.15l-.66,7.09"/><path class="cls-1" d="M255.6,114.14A54.88,54.88,0,0,1,258.93,100c1.46-3.8,2.65-5.54,3.66-9.86s2-8.44-.24-11.38c-1.74-2.31-4.59-2.79-7.22-3.24-1.29-.22-10.59-1.67-14.9,3.4-2.43,2.87-2,6.34-1.59,12.58.36,5.63.7,13.91.46,24.41"/><path class="cls-1" d="M239.1,115.86A142.1,142.1,0,0,1,238,92.42a12.37,12.37,0,0,0-1.35-7c-2.66-4.66-8.28-5.86-9.08-6-1.65-.33-2.57-.51-3.61-.06-3.41,1.46-4.67,8.19-2.41,12.42,1.11,2.09,2.07,1.67,3.75,4.44a23.42,23.42,0,0,1,2.4,7.37,28.93,28.93,0,0,1-.37,9.65"/><path class="cls-1" d="M263.3,86.9a6,6,0,0,1,6.56-1.76A5.42,5.42,0,0,1,273,89.08c.57,3-1.81,5.59-3.41,7.75a34.55,34.55,0,0,0-6.11,15.06"/><path class="cls-1" d="M262.64,126.31a26.19,26.19,0,0,1-17.95,6.74,25.89,25.89,0,0,1-15.62-5.86"/><path class="cls-1" d="M262.36,129a23.36,23.36,0,0,1-33.06,1.53"/><path class="cls-1" d="M265.37,215.87c-1.06-16.84-2-29.86-2.62-37.74,0,0-1.34-17.65.11-58.53a9.15,9.15,0,0,1,.47-2.82c.4-1.17.83-1.77.67-1.63a29.77,29.77,0,0,1-19.31,6.61,29.45,29.45,0,0,1-16.5-5.7c-.09-.07-.16-.09-.21-.07-.36.13.12,2.07.21,2.47.9,3.84.71,7.84,1.08,11.76.34,3.58.84,21.47,1.55,85.65"/><path class="cls-1" d="M262.27,142.47a25.83,25.83,0,0,1-17.84,5.44,25.51,25.51,0,0,1-15-6.55"/><path class="cls-1" d="M262.32,139.3a25.09,25.09,0,0,1-32.67-.11"/><path class="cls-1" d="M262.35,166.3a25,25,0,0,1-32.17-1.47"/><path class="cls-1" d="M262.28,163.24a24.9,24.9,0,0,1-32.16-.75"/><path class="cls-1" d="M263.29,185.35c-2.55,1.57-9.78,5.63-18.07,5a29,29,0,0,1-5.69-1,27.45,27.45,0,0,1-9.26-4.76"/><path class="cls-1" d="M263.12,182.78a27.64,27.64,0,0,1-32.68-.09"/><path class="cls-1" d="M264.76,209.19a32.15,32.15,0,0,1-18.5,4.37,30.26,30.26,0,0,1-15.5-5.27"/><path class="cls-1" d="M264.81,206.64a32,32,0,0,1-33.87-.09"/><path class="cls-1" d="M262.52,170.23a25.18,25.18,0,0,1-32.34-1.47"/><path class="cls-1" d="M261.81,116.76c-.42,3-.79,6-1.12,9.1l-.24,2.26"/><line class="cls-1" x1="259.64" y1="118.07" x2="258.83" y2="129.19"/><line class="cls-1" x1="258.05" y1="118.89" x2="256.65" y2="130.39"/><line class="cls-1" x1="255.61" y1="119.93" x2="254.39" y2="131.37"/><line class="cls-1" x1="253.64" y1="120.59" x2="252.4" y2="131.85"/><line class="cls-1" x1="251.2" y1="121.2" x2="250.41" y2="132.36"/><line class="cls-1" x1="248.8" y1="121.76" x2="248.52" y2="132.86"/><line class="cls-1" x1="246.46" y1="121.76" x2="246.3" y2="133.04"/><line class="cls-1" x1="243.97" y1="121.76" x2="243.97" y2="133.06"/><line class="cls-1" x1="241.38" y1="121.48" x2="241.53" y2="132.77"/><line class="cls-1" x1="238.53" y1="120.92" x2="238.91" y2="132.07"/><line class="cls-1" x1="236.09" y1="120.19" x2="236.41" y2="131.43"/><line class="cls-1" x1="234.02" y1="119.22" x2="234.31" y2="130.54"/><line class="cls-1" x1="232.15" y1="118.51" x2="232.31" y2="129.48"/><path class="cls-1" d="M229.92,117.23c.11.8.2,1.61.29,2.43.33,3.07.49,6,.53,8.83"/><path class="cls-1" d="M264,115.15c1.53-1,2.12-2.29,1.75-2.94a1.82,1.82,0,0,0-2.28-.32c-.87.57-.67,2-1.16,2s-.48-.77-1.23-1.06a1.78,1.78,0,0,0-2.11.71c-.28.67.47,1.45.26,1.63s-.85-.65-2.05-1c-.28-.07-1.5-.4-2.06.15s0,2.4-.15,2.44-.32-1.26-1.28-1.83a1.83,1.83,0,0,0-2,0c-.69.59-.16,2.19-.2,2.19s0-2.44-1.1-3a2.22,2.22,0,0,0-2.1.51c-1.38,1.08-1.43,3.22-1.54,3.19s.43-1.48-.24-2.55c-.45-.72-1.43-1.23-1.87-1-.79.48.52,3.21-.33,3.71a.92.92,0,0,1-1.14-.35c-.27-.6,1-1.37.77-2a1.45,1.45,0,0,0-2-.31c-.64.6.08,2.29-.1,2.34s-.44-1.5-1.49-1.93a1.69,1.69,0,0,0-2,.51c-.37.71.4,1.9.46,1.88s-.24-2.33-1.5-2.83a1.41,1.41,0,0,0-1.13,0c-.84.47-.75,2-.86,2s.33-2.66-.68-3.24a1.74,1.74,0,0,0-1.83.41,3.12,3.12,0,0,0-.78,2s.89-2.53-.1-3.54a2,2,0,0,0-2.48-.09c-.75.73-.18,2.35-.45,2.41s-.5-1.76-1.74-2.29c-.83-.35-2-.19-2.26.41s.71,1.45,1.28,1.83A3.7,3.7,0,0,0,228,116"/><path class="cls-1" d="M249.08,114.27c-1.08-9.6.89-16.28,2.78-20.46a51,51,0,0,1,3.41-6,44.06,44.06,0,0,0-8.17,15.49,40.68,40.68,0,0,0-1.62,11.23"/><path class="cls-1" d="M249,113.85c1.12-1.95,2.16-4,1.83-4.2s-1,.81-1.33.63c-.86-.4.06-6.57,3.82-11.51,1.51-2,3.2-3.4,3-3.65s-4.33,2.66-4.63,2.3,4.75-4.8,4.34-5.32c-.24-.32-2.42.92-4.36,2.1"/><path class="cls-1" d="M245.49,114.23c-1.34-2.24-2.66-4.63-2.34-4.86s1.18,1.19,1.75,1c1.48-.55-1.31-11-.49-11.2.43-.12,1.35,2.79,2,2.66,1.24-.22.13-10.78.79-10.86.44,0,1.32,4.58,1.68,4.52s-.34-4.58.35-4.76c.39-.1,1.11,1.2,1.88,2.93"/><path class="cls-1" d="M259,114.88a48.84,48.84,0,0,1,5.69-19.25c1.92-3.43,4.25-6.38,4.38-6.26s-2.76,4.13-4.82,9.56a43.54,43.54,0,0,0-2.68,14.52"/><path class="cls-1" d="M261.82,113.59c1.21-3,2-5.52,1.65-5.82-.21-.16-.65.38-.78.23-.43-.44,3.49-6.35,3-6.88-.26-.29-1.61,1.14-1.76.94-.3-.38,4.5-5.82,4.06-6.49-.14-.22-.86.06-2.65,1.31"/><path class="cls-1" d="M264.14,96c1.48-4,1.7-4.93,1.59-5s-2.45,2.78-3.33,6.76c-.22,1-.5,2.78-.84,2.76s-.3-.92-.48-.92c-.58,0-1.07,8.92-1.67,8.91-.2,0-.28-1-.42-1s-.29,3-.25,7.38"/><path class="cls-1" d="M236.22,115.47c-1.12-14.51-4.88-21.65-7.39-25.16-.45-.63-3-4-3.2-3.89s2.12,4,3.31,6.34c2.31,4.45,4.51,11.28,3.84,21.66"/><path class="cls-1" d="M232.87,112.53c-1.94-3.53-3.34-6.32-3-6.54s2,2.08,2.38,1.85c.8-.48-5-10.91-4.06-11.49.41-.25,1.76,1.63,2.1,1.39S229.51,94,226.65,92c-.86-.62-1.87-.85-1.82-1s1.83.1,3.34.4"/><path class="cls-1" d="M236.72,115.34c.4-7.83.36-10.79.05-10.82s-.51,1.55-.77,1.52c-.6-.07.49-8.71-.95-9.06-.37-.09-.63.88-1.13.83-.79-.08-.89-2.41-1.91-5.75a16.71,16.71,0,0,0-1.83-4.42,25.3,25.3,0,0,1,.53,3,12.72,12.72,0,0,1,0,2.3"/><path class="cls-1" d="M269.76,72l-1.17,12.8"/><path class="cls-1" d="M226.55,72.18l.66,7.08"/></g></svg>