<svg xmlns="http://www.w3.org/2000/svg" viewBox="0 0 288 288"><defs><style>.cls-1{fill:none;stroke:#c84d00;stroke-miterlimit:10;stroke-width:0.5px;}</style></defs><g id="Layer_2" data-name="Layer 2"><path class="cls-1" d="M61,72H14.77v4.48L18,76.32l43.29-1.53C61.2,73.86,61.08,72.93,61,72Z"/><path class="cls-1" d="M18,78.09l0-1.77Z"/><path class="cls-1" d="M58.87,75v1.31l-2.23.1L18,78.09"/><polyline class="cls-1" points="58.49 76.42 58.36 78.46 22.11 79.73 19.98 79.81 19.38 78.04"/><path class="cls-1" d="M55.33,90.28a21.23,21.23,0,0,0,.43-4.87,21.48,21.48,0,0,0-.48-3.83"/><path class="cls-1" d="M23.83,83.3a27.9,27.9,0,0,1,.25,3.33,26.86,26.86,0,0,1-.25,4.07"/><path class="cls-1" d="M56.37,90.23l-34.84.66-.05,2.86L56.62,92Z"/><path class="cls-1" d="M21.49,93.12a23,23,0,0,0-2.81.57l-1,.3a1.18,1.18,0,0,0-.37.68,1.15,1.15,0,0,0,.12.58c.17.33.69.54,1.37.66a29.86,29.86,0,0,0,6.7-.14c10.81-1.39,34.28-1.15,36.26-3.25.17-.17.63-.67.44-1.07S61.52,91,61,90.91a15,15,0,0,0-4.49.07"/><path class="cls-1" d="M60.56,93.09c0,1.09-.05,2.19-.07,3.28l-41.61,2.9c0-1.12,0-2.24-.05-3.36"/><path class="cls-1" d="M18.88,98.94a6.06,6.06,0,0,1-.77.64,5.89,5.89,0,0,1-.63.4c-.21.15-.4.34-.37.52s.54.4.72.45c2,.54,45-2.36,44.72-3.12,0,0-.17-.08-.63-.37a7.18,7.18,0,0,1-.64-.47,2.63,2.63,0,0,1-.78-1.32"/><path class="cls-1" d="M61.08,98.16a466.23,466.23,0,0,0-1.65,99.78"/><path class="cls-1" d="M18.75,101q1.34,20.7,1.78,42.69c.37,19.53.12,38.35-.62,56.4"/><path class="cls-1" d="M17.55,201.62a166.44,166.44,0,0,0,21.2.84,165.5,165.5,0,0,0,21.67-2v-2.8a117.84,117.84,0,0,1-14.22,2.45,119.74,119.74,0,0,1-28.42-.32Z"/><path class="cls-1" d="M19.92,201.72c.2,3,.39,6,.59,9"/><path class="cls-1" d="M59.54,200.51v8.67"/><path class="cls-1" d="M59.69,212.17l.35-3L18.9,210.72l.71,3.13,43.6-1.77-.6,3.92H18.21l-.66-2.38,2.06.23"/><line class="cls-1" x1="15.92" y1="74.91" x2="59.74" y2="73.41"/><line class="cls-1" x1="20.91" y1="77.97" x2="21.26" y2="79.81"/><line class="cls-1" x1="23.22" y1="77.97" x2="23.22" y2="79.69"/><line class="cls-1" x1="25.34" y1="77.78" x2="25.34" y2="79.61"/><line class="cls-1" x1="27.53" y1="77.78" x2="27.53" y2="79.53"/><line class="cls-1" x1="30" y1="77.58" x2="30" y2="79.53"/><line class="cls-1" x1="32.68" y1="77.46" x2="32.68" y2="79.34"/><line class="cls-1" x1="35.15" y1="77.35" x2="35.15" y2="79.25"/><line class="cls-1" x1="37.51" y1="77.35" x2="37.51" y2="79.16"/><line class="cls-1" x1="39.48" y1="77.21" x2="39.48" y2="79.09"/><line class="cls-1" x1="41.35" y1="77.08" x2="41.35" y2="79.02"/><line class="cls-1" x1="43.64" y1="76.98" x2="43.64" y2="78.89"/><line class="cls-1" x1="46.07" y1="76.88" x2="46.07" y2="78.83"/><line class="cls-1" x1="48.61" y1="76.77" x2="48.61" y2="78.65"/><line class="cls-1" x1="50.73" y1="76.68" x2="50.73" y2="78.69"/><line class="cls-1" x1="52.52" y1="76.6" x2="52.52" y2="78.55"/><polyline class="cls-1" points="57.51 76.48 57.51 78.53 56.38 81.53 55.6 81.58 23.38 83.33 21.98 79.73"/><path class="cls-1" d="M18.93,104.31a2.29,2.29,0,0,1,1.74-1.12,2.06,2.06,0,0,1,1.09.22c1.13.62,1,2.32,1,2.64-1.15,29.82.61,59.69-.76,89.5a1.78,1.78,0,0,1-.56,1.29,2.59,2.59,0,0,1-1.42.53"/><path class="cls-1" d="M25.45,105.86c0-1.58-.12-2,.2-2.53a2.16,2.16,0,0,1,1.66-1,1.79,1.79,0,0,1,1.18.53c.49.49.53,1.08.64,2.38.06.76.19,1.51.2,2.27,0,0,.8,80.37-.52,88.05a3,3,0,0,1-.57,1.75c-.13.17-.81,1.07-1.59,1s-1.07-.9-1.23-1.28a3.55,3.55,0,0,1-.26-1.84c-.05-4.71.32-85.07.27-87.36C25.41,107.14,25.45,106.5,25.45,105.86Z"/><path class="cls-1" d="M32.62,105.62a6.23,6.23,0,0,1,.28-1.83c.32-1.06.51-1.64,1.28-1.93a3.13,3.13,0,0,1,2,0c.26.09.85.35,1.34,1.7a4.13,4.13,0,0,1,.37,2c-.26,3.65.31,85.94,1.13,89.5a3.51,3.51,0,0,1,0,1.39,3,3,0,0,1-2.11,2.6,3.43,3.43,0,0,1-2.29-.2c-.47-.27-.61-.78-.9-1.78-.09-.31-.14-.55-.15-.57C33.32,195.4,32.87,139.67,32.62,105.62Z"/><path class="cls-1" d="M41.34,107.09a32,32,0,0,1,.44-4c.15-1.08.27-1.82,1-2.19a2.28,2.28,0,0,1,2.14.07c.13.1.39.32.68,2.42.06.39.08.58.1.8.85,9.31,1,36.14,1.28,89.8a6.23,6.23,0,0,1-.91,3c-.34.57-1,1.66-1.95,1.68a2.47,2.47,0,0,1-1.69-1,4,4,0,0,1-.9-1.88C40.76,190.89,41.61,110.65,41.34,107.09Z"/><path class="cls-1" d="M49.45,106.62c0-.45.08-1.62.29-4,.09-1.07.17-1.8.64-2.17a1.05,1.05,0,0,1,1.39.08c.09.09.25.31.45,2.39,0,.38.05.57.06.78.56,9.21.65,35.73.84,88.76a8.65,8.65,0,0,1-.59,3c-.23.57-.66,1.64-1.28,1.66s-.91-.67-1.1-1a4.87,4.87,0,0,1-.59-1.85C49.07,189.45,49.63,110.15,49.45,106.62Z"/><path class="cls-1" d="M59.71,110.49a77.74,77.74,0,0,0-.26-9.14,1.35,1.35,0,0,0-.72-1.13,1.76,1.76,0,0,0-1.24.18,2.08,2.08,0,0,0-1.05,1.43,2.38,2.38,0,0,0-.06,1c.28,2.07-1.5,84.25-1,88.36.05.43.23,1,.41,2.28a3.26,3.26,0,0,0,.38,1.34c.09.17.57,1.05,1.14,1.07s1.31-1,1.74-2.43"/><line class="cls-1" x1="54.05" y1="76.71" x2="54.05" y2="78.66"/><line class="cls-1" x1="55.77" y1="76.37" x2="55.77" y2="78.33"/><path class="cls-1" d="M28.23,84.27c-.65,0-1.09,1.5-1.06,2.57,0,1.37.85,2.9,1.59,2.87.57,0,1-1,1.14-1.55C30.37,86.33,29.05,84.2,28.23,84.27Z"/><path class="cls-1" d="M33.41,84.27c-.8,0-1.42,1.36-1.46,2.37,0,1.3.86,2.8,1.75,2.81.71,0,1.29-.88,1.5-1.41C35.89,86.33,34.41,84.25,33.41,84.27Z"/><path class="cls-1" d="M39.45,83.71c-1-.06-1.88,1.39-2.06,2.53-.25,1.47.6,3.25,1.66,3.36.83.09,1.65-.86,2-1.43C42.08,86.31,40.64,83.8,39.45,83.71Z"/><path class="cls-1" d="M44.28,83.35c-.83.08-1.33,1.71-1.26,2.91.09,1.54,1.18,3.24,2.12,3.19.73,0,1.24-1.14,1.41-1.77C47.08,85.61,45.32,83.25,44.28,83.35Z"/><path class="cls-1" d="M50,89.21c.84,0,1.59-1.56,1.7-2.76.14-1.54-.68-3.33-1.62-3.38-.73,0-1.41,1-1.67,1.62C47.6,86.69,49,89.2,50,89.21Z"/><path class="cls-1" d="M55.61,83.43s-.44-.73-1-.69a.74.74,0,0,0-.52.3,3.67,3.67,0,0,0-.75,2.57c.12,1.11.63,3,1.45,3,.18,0,.44-.08.76-.48"/><path class="cls-1" d="M24,85.36c.38-.54.62-.63.77-.62.51.05.67,1.38.72,1.73,0,.14,0,.44,0,1a2.67,2.67,0,0,1-.34,1.73c-.23.32-.4.37-.5.38a.88.88,0,0,1-.71-.46"/><line class="cls-1" x1="23.92" y1="81.58" x2="55.25" y2="80.07"/><path class="cls-1" d="M24.84,203.52c-.7,0-1.22,1.61-1.24,2.78,0,1.5.76,3.21,1.54,3.2.61,0,1.1-1.05,1.28-1.66C27,205.85,25.71,203.47,24.84,203.52Z"/><path class="cls-1" d="M29.06,203.56c-.79,0-1.41,1.56-1.46,2.72-.06,1.48.8,3.17,1.68,3.18.7,0,1.28-1,1.49-1.62C31.47,205.89,30.05,203.53,29.06,203.56Z"/><path class="cls-1" d="M33.94,203.45c-.83,0-1.67,1.34-1.85,2.43-.24,1.39.46,3.07,1.38,3.17.72.07,1.45-.85,1.75-1.4C36.18,205.87,35,203.51,33.94,203.45Z"/><path class="cls-1" d="M38.6,203.32c-.82.07-1.31,1.63-1.24,2.77.08,1.46,1.16,3.08,2.08,3,.72,0,1.22-1.09,1.38-1.69C41.35,205.47,39.62,203.22,38.6,203.32Z"/><path class="cls-1" d="M44.52,208.71c.82,0,1.55-1.49,1.66-2.63.15-1.46-.67-3.18-1.59-3.22-.72,0-1.38,1-1.64,1.54C42.12,206.31,43.49,208.7,44.52,208.71Z"/><path class="cls-1" d="M59.54,202.9s-.43-.69-.94-.66a.8.8,0,0,0-.51.28,3.45,3.45,0,0,0-.73,2.46c.11,1.05.62,2.83,1.42,2.86.18,0,.43-.08.75-.46"/><path class="cls-1" d="M20.12,204.62c.36-.61.61-.73.77-.72.54,0,.83,1.48.9,1.87,0,.15.06.48.12,1.14a3.07,3.07,0,0,1-.22,1.93c-.21.37-.39.43-.49.44a.9.9,0,0,1-.79-.47"/><path class="cls-1" d="M49.24,202.73c-.82,0-1.46,1.55-1.5,2.69-.06,1.47.86,3.15,1.78,3.16.72,0,1.32-1,1.54-1.61C51.78,205,50.27,202.7,49.24,202.73Z"/><path class="cls-1" d="M54.61,202.49c-.82,0-1.57,1.46-1.69,2.58-.16,1.44.64,3.14,1.56,3.19.72,0,1.39-.93,1.65-1.51C57,204.88,55.64,202.5,54.61,202.49Z"/><line class="cls-1" x1="19.92" y1="210.72" x2="20.38" y2="213.61"/><line class="cls-1" x1="21.69" y1="210.62" x2="22.16" y2="213.75"/><line class="cls-1" x1="23.41" y1="210.56" x2="23.81" y2="213.61"/><line class="cls-1" x1="25.08" y1="210.56" x2="25.38" y2="213.61"/><line class="cls-1" x1="27.01" y1="210.43" x2="27.32" y2="213.41"/><line class="cls-1" x1="28.46" y1="210.36" x2="28.58" y2="213.48"/><line class="cls-1" x1="30.29" y1="210.27" x2="30.29" y2="213.39"/><line class="cls-1" x1="32.59" y1="210.27" x2="32.77" y2="213.32"/><line class="cls-1" x1="34.68" y1="210.12" x2="34.83" y2="213.32"/><line class="cls-1" x1="36.51" y1="210.06" x2="36.68" y2="213.15"/><line class="cls-1" x1="38.44" y1="210.06" x2="38.63" y2="213.08"/><line class="cls-1" x1="40.49" y1="209.92" x2="40.76" y2="213"/><line class="cls-1" x1="42.29" y1="209.92" x2="42.46" y2="212.93"/><line class="cls-1" x1="43.92" y1="209.8" x2="44.19" y2="212.78"/><line class="cls-1" x1="45.92" y1="209.73" x2="46.09" y2="212.79"/><line class="cls-1" x1="47.73" y1="209.66" x2="47.95" y2="212.72"/><line class="cls-1" x1="49.67" y1="209.62" x2="50.05" y2="212.72"/><line class="cls-1" x1="51.51" y1="209.53" x2="51.79" y2="212.59"/><line class="cls-1" x1="53.37" y1="209.47" x2="53.54" y2="212.51"/><line class="cls-1" x1="55.15" y1="209.47" x2="55.23" y2="212.45"/><line class="cls-1" x1="56.81" y1="209.35" x2="56.64" y2="212.45"/><line class="cls-1" x1="58.36" y1="209.35" x2="58.1" y2="212.24"/><path class="cls-1" d="M59.86,209.23c-.1,1-.21,2-.31,3.05"/><path class="cls-1" d="M226.26,72h46.16v4.48l-3.26-.16-43.25-1.53C226,73.86,226.14,72.93,226.26,72Z"/><path class="cls-1" d="M269.15,78.09v0Z"/><path class="cls-1" d="M228.35,75v1.31l2.23.1,38.57,1.67"/><polyline class="cls-1" points="228.73 76.42 228.86 78.46 265.08 79.73 267.21 79.81 267.81 78.04"/><path class="cls-1" d="M231.89,90.28a20.68,20.68,0,0,1-.43-4.87,19.79,19.79,0,0,1,.48-3.83"/><path class="cls-1" d="M263.36,83.3a27.9,27.9,0,0,0-.25,3.33,26.86,26.86,0,0,0,.25,4.07"/><path class="cls-1" d="M230.85,90.23l34.81.66,0,2.86L230.6,92Z"/><path class="cls-1" d="M265.7,93.12a22.84,22.84,0,0,1,2.8.57l1,.3a1.18,1.18,0,0,1,.36.68,1,1,0,0,1-.12.58c-.17.33-.68.54-1.37.66a29.79,29.79,0,0,1-6.69-.14c-10.8-1.39-34.24-1.15-36.23-3.25-.16-.17-.63-.67-.44-1.07s.71-.46,1.27-.54a14.91,14.91,0,0,1,4.48.07"/><path class="cls-1" d="M226.66,93.09c0,1.09.05,2.19.07,3.28l41.57,2.9c0-1.12,0-2.24.05-3.36"/><path class="cls-1" d="M268.31,98.94a5.9,5.9,0,0,0,.76.64,7.09,7.09,0,0,0,.63.4c.22.15.41.34.37.52s-.54.4-.72.45c-2,.54-44.91-2.36-44.68-3.12,0,0,.18-.08.64-.37.23-.16.48-.34.63-.47a2.63,2.63,0,0,0,.78-1.32"/><path class="cls-1" d="M226.14,98.16a468.21,468.21,0,0,1,3.45,47.15,468.14,468.14,0,0,1-1.8,52.63"/><path class="cls-1" d="M268.43,101q-1.33,20.7-1.77,42.69c-.37,19.53-.12,38.35.62,56.4"/><path class="cls-1" d="M269.64,201.62a166.19,166.19,0,0,1-21.18.84,164.84,164.84,0,0,1-21.65-2v-2.8a116.78,116.78,0,0,0,14.2,2.45,119.58,119.58,0,0,0,28.4-.32Z"/><path class="cls-1" d="M267.26,201.72c-.19,3-.39,6-.58,9"/><path class="cls-1" d="M227.68,200.51v8.67"/><path class="cls-1" d="M227.53,212.17l-.35-3,41.11,1.54-.71,3.13L224,212.08l.59,3.92H269l.66-2.38-2.06.23"/><line class="cls-1" x1="271.26" y1="74.91" x2="227.49" y2="73.41"/><line class="cls-1" x1="266.28" y1="77.97" x2="265.93" y2="79.81"/><line class="cls-1" x1="263.97" y1="77.97" x2="263.97" y2="79.69"/><line class="cls-1" x1="261.85" y1="77.78" x2="261.85" y2="79.61"/><line class="cls-1" x1="259.66" y1="77.78" x2="259.66" y2="79.53"/><line class="cls-1" x1="257.2" y1="77.58" x2="257.2" y2="79.53"/><line class="cls-1" x1="254.52" y1="77.46" x2="254.52" y2="79.34"/><line class="cls-1" x1="252.05" y1="77.35" x2="252.05" y2="79.25"/><line class="cls-1" x1="249.69" y1="77.35" x2="249.69" y2="79.16"/><line class="cls-1" x1="247.72" y1="77.21" x2="247.72" y2="79.09"/><line class="cls-1" x1="245.86" y1="77.08" x2="245.86" y2="79.02"/><line class="cls-1" x1="243.57" y1="76.98" x2="243.57" y2="78.89"/><line class="cls-1" x1="241.13" y1="76.88" x2="241.13" y2="78.83"/><line class="cls-1" x1="238.6" y1="76.77" x2="238.6" y2="78.65"/><line class="cls-1" x1="236.48" y1="76.68" x2="236.48" y2="78.69"/><line class="cls-1" x1="234.69" y1="76.6" x2="234.69" y2="78.55"/><polyline class="cls-1" points="229.71 76.48 229.71 78.53 230.83 81.53 231.62 81.58 263.81 83.33 265.21 79.73"/><path class="cls-1" d="M268.25,104.31a2.24,2.24,0,0,0-1.73-1.12,2.05,2.05,0,0,0-1.09.22c-1.13.62-1,2.32-1,2.64,1.14,29.82-.61,59.69.76,89.5a1.74,1.74,0,0,0,.56,1.29,2.59,2.59,0,0,0,1.42.53"/><path class="cls-1" d="M261.75,105.86c0-1.58.11-2-.21-2.53a2.15,2.15,0,0,0-1.65-1,1.82,1.82,0,0,0-1.19.53c-.48.49-.52,1.08-.63,2.38-.07.76-.2,1.51-.21,2.27,0,0-.79,80.37.52,88.05a3.06,3.06,0,0,0,.57,1.75c.13.17.81,1.07,1.59,1s1.07-.9,1.23-1.28a3.43,3.43,0,0,0,.26-1.84c.06-4.71-.31-85.07-.27-87.36C261.78,107.14,261.74,106.5,261.75,105.86Z"/><path class="cls-1" d="M254.58,105.62a6.58,6.58,0,0,0-.28-1.83c-.32-1.06-.51-1.64-1.28-1.93a3.13,3.13,0,0,0-2,0c-.26.09-.85.35-1.34,1.7a4.13,4.13,0,0,0-.37,2c.27,3.65-.31,85.94-1.13,89.5a3.4,3.4,0,0,0,0,1.39,3,3,0,0,0,2.1,2.6,3.43,3.43,0,0,0,2.29-.2c.46-.27.61-.78.9-1.78a5.36,5.36,0,0,0,.14-.57C253.88,195.4,254.32,139.67,254.58,105.62Z"/><path class="cls-1" d="M245.87,107.09a35.61,35.61,0,0,0-.45-4c-.14-1.08-.26-1.82-1-2.19a2.26,2.26,0,0,0-2.13.07c-.13.1-.39.32-.68,2.42a7.4,7.4,0,0,0-.1.8c-.85,9.31-1,36.14-1.28,89.8a6.23,6.23,0,0,0,.91,3c.34.57,1,1.66,2,1.68a2.49,2.49,0,0,0,1.69-1,4.24,4.24,0,0,0,.9-1.88C246.44,190.89,245.59,110.65,245.87,107.09Z"/><path class="cls-1" d="M237.76,106.62c0-.45-.08-1.62-.29-4-.09-1.07-.17-1.8-.64-2.17a1.05,1.05,0,0,0-1.39.08c-.08.09-.25.31-.44,2.39,0,.38-.06.57-.07.78-.55,9.21-.65,35.73-.83,88.76a8.65,8.65,0,0,0,.59,3c.22.57.65,1.64,1.27,1.66s.91-.67,1.11-1a5.16,5.16,0,0,0,.58-1.85C238.14,189.45,237.58,110.15,237.76,106.62Z"/><path class="cls-1" d="M227.51,110.49a80,80,0,0,1,.26-9.14,1.35,1.35,0,0,1,.72-1.13,1.76,1.76,0,0,1,1.24.18,2,2,0,0,1,1,1.43,2.28,2.28,0,0,1,.07,1c-.28,2.07,1.49,84.25,1,88.36,0,.43-.23,1-.41,2.28a3.42,3.42,0,0,1-.38,1.34c-.1.17-.58,1.05-1.14,1.07s-1.31-1-1.74-2.43"/><line class="cls-1" x1="233.17" y1="76.71" x2="233.17" y2="78.66"/><line class="cls-1" x1="231.45" y1="76.37" x2="231.45" y2="78.33"/><path class="cls-1" d="M259,84.27c.65,0,1.08,1.5,1,2.57,0,1.37-.85,2.9-1.58,2.87-.58,0-1-1-1.15-1.55C256.83,86.33,258.15,84.2,259,84.27Z"/><path class="cls-1" d="M253.79,84.27c.8,0,1.42,1.36,1.45,2.37,0,1.3-.85,2.8-1.75,2.81-.7,0-1.28-.88-1.49-1.41C251.31,86.33,252.79,84.25,253.79,84.27Z"/><path class="cls-1" d="M247.76,83.71c.94-.06,1.87,1.39,2.06,2.53.24,1.47-.61,3.25-1.67,3.36-.83.09-1.64-.86-2-1.43C245.12,86.31,246.57,83.8,247.76,83.71Z"/><path class="cls-1" d="M242.93,83.35c.83.08,1.33,1.71,1.26,2.91-.09,1.54-1.18,3.24-2.12,3.19-.73,0-1.24-1.14-1.41-1.77C240.13,85.61,241.88,83.25,242.93,83.35Z"/><path class="cls-1" d="M237.18,89.21c-.83,0-1.58-1.56-1.69-2.76-.15-1.54.68-3.33,1.61-3.38.74,0,1.41,1,1.67,1.62C239.61,86.69,238.23,89.2,237.18,89.21Z"/><path class="cls-1" d="M231.61,83.43s.43-.73.95-.69a.74.74,0,0,1,.52.3,3.67,3.67,0,0,1,.75,2.57c-.12,1.11-.64,3-1.45,3-.19,0-.44-.08-.76-.48"/><path class="cls-1" d="M263.18,85.36c-.38-.54-.62-.63-.77-.62-.51.05-.67,1.38-.72,1.73,0,.14,0,.44,0,1a2.67,2.67,0,0,0,.34,1.73c.23.32.4.37.5.38a.88.88,0,0,0,.71-.46"/><line class="cls-1" x1="263.27" y1="81.58" x2="231.97" y2="80.07"/><path class="cls-1" d="M262.36,203.52c.69,0,1.21,1.61,1.23,2.78,0,1.5-.76,3.21-1.54,3.2-.61,0-1.1-1.05-1.28-1.66C260.19,205.85,261.49,203.47,262.36,203.52Z"/><path class="cls-1" d="M258.14,203.56c.78,0,1.41,1.56,1.45,2.72.07,1.48-.8,3.17-1.68,3.18-.69,0-1.27-1-1.49-1.62C255.72,205.89,257.15,203.53,258.14,203.56Z"/><path class="cls-1" d="M253.26,203.45c.82,0,1.66,1.34,1.85,2.43.24,1.39-.46,3.07-1.38,3.17-.72.07-1.45-.85-1.75-1.4C251,205.87,252.22,203.51,253.26,203.45Z"/><path class="cls-1" d="M248.61,203.32c.81.07,1.31,1.63,1.24,2.77-.09,1.46-1.17,3.08-2.09,3-.72,0-1.22-1.09-1.38-1.69C245.86,205.47,247.58,203.22,248.61,203.32Z"/><path class="cls-1" d="M242.69,208.71c-.82,0-1.55-1.49-1.66-2.63-.15-1.46.66-3.18,1.58-3.22.73,0,1.39,1,1.64,1.54C245.08,206.31,243.72,208.7,242.69,208.71Z"/><path class="cls-1" d="M227.68,202.9s.43-.69.94-.66a.8.8,0,0,1,.51.28,3.45,3.45,0,0,1,.73,2.46c-.11,1.05-.62,2.83-1.42,2.86-.18,0-.43-.08-.75-.46"/><path class="cls-1" d="M267.06,204.62c-.35-.61-.6-.73-.76-.72-.54,0-.83,1.48-.9,1.87,0,.15-.06.48-.12,1.14a3.07,3.07,0,0,0,.22,1.93c.21.37.38.43.49.44a.9.9,0,0,0,.79-.47"/><path class="cls-1" d="M238,202.73c.82,0,1.46,1.55,1.5,2.69.06,1.47-.86,3.15-1.78,3.16-.72,0-1.32-1-1.54-1.61C235.44,205,236.94,202.7,238,202.73Z"/><path class="cls-1" d="M232.61,202.49c.82,0,1.57,1.46,1.69,2.58.15,1.44-.64,3.14-1.56,3.19-.72,0-1.39-.93-1.65-1.51C230.24,204.88,231.58,202.5,232.61,202.49Z"/><line class="cls-1" x1="267.26" y1="210.72" x2="266.8" y2="213.61"/><line class="cls-1" x1="265.5" y1="210.62" x2="265.03" y2="213.75"/><line class="cls-1" x1="263.78" y1="210.56" x2="263.38" y2="213.61"/><line class="cls-1" x1="262.11" y1="210.56" x2="261.82" y2="213.61"/><line class="cls-1" x1="260.19" y1="210.43" x2="259.88" y2="213.41"/><line class="cls-1" x1="258.73" y1="210.36" x2="258.61" y2="213.48"/><line class="cls-1" x1="256.91" y1="210.27" x2="256.91" y2="213.39"/><line class="cls-1" x1="254.6" y1="210.27" x2="254.43" y2="213.32"/><line class="cls-1" x1="252.52" y1="210.12" x2="252.37" y2="213.32"/><line class="cls-1" x1="250.69" y1="210.06" x2="250.52" y2="213.15"/><line class="cls-1" x1="248.77" y1="210.06" x2="248.57" y2="213.08"/><line class="cls-1" x1="246.72" y1="209.92" x2="246.45" y2="213"/><line class="cls-1" x1="244.92" y1="209.92" x2="244.75" y2="212.93"/><line class="cls-1" x1="243.28" y1="209.8" x2="243.02" y2="212.78"/><line class="cls-1" x1="241.29" y1="209.73" x2="241.12" y2="212.79"/><line class="cls-1" x1="239.48" y1="209.66" x2="239.26" y2="212.72"/><line class="cls-1" x1="237.54" y1="209.62" x2="237.17" y2="212.72"/><line class="cls-1" x1="235.71" y1="209.53" x2="235.43" y2="212.59"/><line class="cls-1" x1="233.85" y1="209.47" x2="233.68" y2="212.51"/><line class="cls-1" x1="232.07" y1="209.47" x2="231.99" y2="212.45"/><line class="cls-1" x1="230.41" y1="209.35" x2="230.57" y2="212.45"/><line class="cls-1" x1="228.86" y1="209.35" x2="229.12" y2="212.24"/><path class="cls-1" d="M227.36,209.23c.1,1,.21,2,.31,3.05"/></g></svg>