<svg xmlns="http://www.w3.org/2000/svg" viewBox="0 0 288 288"><defs><style>.cls-1{fill:none;stroke:#c84d00;stroke-miterlimit:10;stroke-width:0.5px;}</style></defs><g id="Layer_2" data-name="Layer 2"><path class="cls-1" d="M26,134.8q-.16,18.52,0,37.69.2,22.2.82,43.55"/><path class="cls-1" d="M56.07,133.34q1.65,20.86,2.79,42.94,1,19.44,1.45,38"/><path class="cls-1" d="M24.76,134.06a29.06,29.06,0,0,0,16.32,4.28,29.55,29.55,0,0,0,15.39-5.27"/><path class="cls-1" d="M56,131.06a46.29,46.29,0,0,1-13.21,4.33,18.78,18.78,0,0,1-2.35.31c-4.38.16-9.62-1.95-14.85-3.84-.28-.1-.9-.32-1.17,0s.14,1.6.48,2.3"/><path class="cls-1" d="M56,131.06a.73.73,0,0,1,.75,0,.92.92,0,0,1,.35.7,1.71,1.71,0,0,1-.88,1.5"/><path class="cls-1" d="M25.42,111v10.44"/><path class="cls-1" d="M56,113l0,4.23"/><path class="cls-1" d="M25.42,113.39a41.57,41.57,0,0,0,6.21,2.81c3.06,1.07,12.48,4.25,20.44.18,2-1,4.09-2.62,3.91-3.17-.13-.38-1.27-.14-1.42-.65s.58-.82,1.06-1.69c.82-1.5.53-3.61.15-3.72-.56-.14-1.72,3.76-2,3.66s1.21-4.54.65-4.86c-.36-.2-1.49,1.33-2.21,2.75-.84,1.66-1,3-1.2,3s.15-4.46-.15-4.52a16.71,16.71,0,0,0-1,2.46c-.46,1.13-.83,2-1,2-.57-.13.46-6.56-.2-6.74-.36-.1-1.11,1.68-1.51,3.08a26.51,26.51,0,0,0-.65,3.72c-.18,0,.13-7-.56-7.15-.33,0-.84,1.53-1.35,3.09-.68,2.08-.8,3.16-1,3.14-.51,0-.24-7-1-7.08-.39,0-1,2-1.26,3.71-.21,1.58-.06,2.72-.2,2.75s-.84-5.44-1.6-5.43c-.54,0-.94,2.7-1,2.85-.28,2,0,3.4-.15,3.43s-1.33-6.13-1.91-6c-.28,0-.38,1.58-.45,2.74-.14,2.22.06,3.5-.1,3.54-.37.09-1.73-7-2.51-6.91-.41.06-.55,2-.6,2.68-.15,1.91.14,3-.05,3.09-.47.18-2.34-6-3.22-5.77-.41.11-.47,1.59-.45,2.34A15.59,15.59,0,0,0,30,110c-.28.21-3.51-5.47-4.16-5.08-.25.14,0,1.24.15,2,.4,1.88,1.06,2.81.85,3s-.85-.37-1.25-1A3.57,3.57,0,0,1,25,107.3s.07.77.44,3.68"/><path class="cls-1" d="M54.56,112.56c-3.91,1.74-12.42,4.76-22.14,1.69a30.16,30.16,0,0,1-7-3.27"/><ellipse class="cls-1" cx="40.36" cy="88.35" rx="4.71" ry="6.01"/><ellipse class="cls-1" cx="40.36" cy="88.6" rx="2.27" ry="2.99"/><path class="cls-1" d="M26.31,105.19a14.57,14.57,0,0,0-3.71-6,5.18,5.18,0,0,0-2.47-1.55,6.85,6.85,0,0,1-2.22-.49,4.55,4.55,0,0,1-.93-.6"/><path class="cls-1" d="M27.52,104a12.09,12.09,0,0,0-2.1-3.17,10.75,10.75,0,0,0-3.72-2.63"/><path class="cls-1" d="M26.77,102c.72,1.28,1.16,1.89,1.32,1.8s.1-.35,0-.89"/><path class="cls-1" d="M20.79,94.14a3,3,0,0,0-2.49-.21c-.57.24-1.35.81-1.27,1.28,0,.19.22.43,1.27.71a13.47,13.47,0,0,0,3.25.32A6.12,6.12,0,0,1,25,98a10.43,10.43,0,0,1,3.2,5.28"/><path class="cls-1" d="M26.25,98.49c-6.65-4.76-8-6-7.9-6.27s1.54.41,2.68,1.12c1.72,1.08,1.74,1.73,3.87,3.58s3,2,3.25,3.19a11.67,11.67,0,0,1,.39,2.46,1.4,1.4,0,0,0,.1.83c.16.32.49.6.73.53s.5-.87.39-2"/><path class="cls-1" d="M27.6,98.43c-.09-.07-.68-.52-.6-1a.56.56,0,0,1,.31-.41c.73-.24,2.69,2.78,3.51,6.18.27,1.1.42,2.24.73,2.24s.32-.38,1.17-2.27c.36-.81.43-1,.57-1,.68-.08,1.35,3.41,1.66,3.34s.31-2-.15-3.84a11.57,11.57,0,0,0-5-6.68"/><path class="cls-1" d="M28.91,97.79c-2.33-3.76-4.72-5.3-6.58-6-2.6-.94-5.39-.65-5.47-1.37-.05-.44,1.91-.75,1.89-1.37,0-.32-.52-.35-1.07-.93s-1.16-1.9-.82-2.5,1.29-.44,2.11-.34c1.54.18,2.28.83,2.45.59s-.68-1.84-2-2.89c-1.85-1.45-4.53-2-5.3-.89-.46.67-.07,1.73-.47,1.91s-1-.44-1.25-1c-.86-1.7.14-5,2.11-6.57,3.18-2.45,7.69.74,8.1,1A11.56,11.56,0,0,1,26.53,83"/><path class="cls-1" d="M22.11,90.39c-1.61-2.3-1.47-2.77-1.38-2.89.3-.37,1.85.37,3,1.2s1.47,1.53,2.12,1.4a1.3,1.3,0,0,0,1-1.21c-.13-1-2.65-.52-3.68-2.13A4.66,4.66,0,0,1,23,83.2"/><path class="cls-1" d="M39.59,98.63c-.28.14-1-2-2.8-3.83-1.52-1.58-3.88-3-4.86-2.2-.39.32-.61,1-.43,1.27s.8-.05,1.29-.14c2-.4,4.91,2.34,5.38,5.34.3,1.86-.57,2.57,0,3.57,1,1.79,4.94,1.62,5.69,0,.41-.9-.43-1.7-.31-3.72a6.35,6.35,0,0,1,.91-3.09,5.11,5.11,0,0,1,3.44-2.15c1.58-.25,2.81.38,3-.05s-.45-.86-.47-.88c-1-1-2.58-.53-3.57-.25s-3.66,1-4.35,3.19a6.64,6.64,0,0,0-.26,1.51s.59-1.6,0-2.35a1.86,1.86,0,0,0-2.71.2C38.74,96.2,39.89,98.47,39.59,98.63Z"/><path class="cls-1" d="M43.55,99.56A5.14,5.14,0,0,1,46,96.37c1.09-.48,2.18-.13,2.28-.49s-.27-.68-2-1.72"/><path class="cls-1" d="M37.33,104.53c-.39-5.12-1.28-6.51-2-6.77-.22-.08-.7-.16-.7-.28s1-.47,1.77-.14c1.28.52,1.54,2.39,1.56,2.5"/><path class="cls-1" d="M45.33,85.55A5.18,5.18,0,0,1,46.6,82c2.51-2.74,8.36.68,8.28,1.17-.06.33-2.6-.71-4.49.94-.92.8-1.6,2.16-1.28,2.72.49.85,2.9-.88,4.32.46a2,2,0,0,1,.66,1.88c-.28.6-1.39.32-1.48.7s1.72,1,1.89,2.2c.08.57-.18,1.27-.57,1.41-.75.26-1.14-1.92-2.76-2.44a6,6,0,0,0-4.4.84c-.16.11-.55.4-.87.24s-.46-1-.49-1.31c-.11-1.28.36-1.67.41-2.81S45.39,86.67,45.33,85.55Z"/><path class="cls-1" d="M35.66,88.71a18.27,18.27,0,0,0-2.6-7C32,80,30.6,78.62,30.38,78.81s1.51,3.3,1.2,3.56c-.14.12-.66-.4-1-.8-1.49-1.78-1.68-4-1.89-3.93s.24,4.68-.5,4.92c-.48.15-1.28-1.71-1.6-1.55s-.07,1,.08,1.73"/><path class="cls-1" d="M35.75,89.57l-.63-1.35a36.53,36.53,0,0,0-2.35-4.73c-1.74-1.51-4.42-2-6.09-.75-.86.67-1.53,1.87-1.28,2.35s1.26,0,2.39.14,2.49.93,4,3.66"/><path class="cls-1" d="M33.88,85.79c-1.2-.88-1.92-1.19-2.14-.94-.42.48,2.18,3.53,1.77,4s-1.85-.79-1.89-.7,3,2.32,3,2.39a17.38,17.38,0,0,0-3.66-1.83c-1-.33-2.52-.84-2.92-.19a1.63,1.63,0,0,0,.45,1.74c.73.63,1.49-.24,3.05-.15a5.26,5.26,0,0,1,4,2.21c.44.7.7,1.58,1.36,1.68a1.1,1.1,0,0,0,.78-.23"/><path class="cls-1" d="M28.6,79.59a8,8,0,0,1-1.48-2.77c-.28-.95-.68-3,0-3.45s1.6.53,1.89.78c1.64,1.41,1.64,3,3.6,5.51.58.73,1,1.06,1.17,1s.16-1.36.11-1.64"/><path class="cls-1" d="M34.32,81.08c.57.26.76.22.83.13.3-.44-2-2.29-2.31-5.25-.09-1-.07-1.15,0-1.21.39-.29,1.78,1,2.73,2.41,1.4,2.14,1.24,3.75,2.72,4.78a3.18,3.18,0,0,0,1.15.51"/><path class="cls-1" d="M38.17,80.26c.16-1.3.13-2.73-.62-3.41-.6-.54-1.43-.38-1.45-.63s1.23-.8,2.51-1c2.08-.34,4.18.06,4.21.53s-1.06.24-1.62,1.11c-1.05,1.64.55,5.43,1.11,5.32.39-.07.75-2.11-.09-3.48a2.32,2.32,0,0,0-2.38-1.26A2.72,2.72,0,0,0,38.17,80.26Z"/><path class="cls-1" d="M42.52,78.18a6.15,6.15,0,0,1,2-3c.43-.33.82-.63,1.19-.49.78.28.92,2.21.87,3.33a12.21,12.21,0,0,1-.67,3.06,20.22,20.22,0,0,1,1.86-3.67C49,75.7,51.15,73.91,52,74.51c1.31,1-.85,8-1.27,7.87-.2,0-.37-1.87.34-3.37.87-1.86,2.76-2.52,4.88-3.25,1.21-.42,2.74-1,3-.46S57.13,77.48,55,81c-.79,1.31-1.87,2.18-1.73,3.44.06.6.37,1.28.7,1.29.51,0,.65-1.69,1.76-4.24.77-1.76,1.29-2.92,2.36-3.4s2.25-.48,2.56.15c.58,1.19-2.49,4.71-2.86,4.43s.28-2.56,1.9-3.6a3.49,3.49,0,0,1,3.82.11c1.61,1.12,2.13,4.57,1.53,6.78-.12.44-.52,1.67-.07,2.15.27.29.71.2.73.38s-.43.56-.79.46-.42-1.09-.93-2.05a3.45,3.45,0,0,0-2-1.7c-1.71-.37-3.35,2.22-4,3.29a11.9,11.9,0,0,0-2,5.42c-.19,2,.23,3.48-.74,5-.17.26-.54.83-.93.76-.72-.11-1-2.25-1.08-2.92a14.39,14.39,0,0,1,.5-5.82"/><path class="cls-1" d="M55,83.34a1.51,1.51,0,0,0,1,0c.45-.15.6-.49.88-.44s.6.58.66,1c.14.94-.71,1.48-1.76,3-1.36,2-1.61,3.55-2.06,3.44s-.43-1-.47-1.36a5.56,5.56,0,0,1,.88-3.43"/><path class="cls-1" d="M59.14,77.78c3.36-2.15,4.73-2,5.37-1.4s.81,2.14,2,2.67c.66.29,1.24.12,1.29.36s-.75,1-1.57,1.08a3.29,3.29,0,0,1-2.72-1.33"/><path class="cls-1" d="M53.09,94.49a7.71,7.71,0,0,0-4.68,3.61c-1.91,3.26-1.25,7.07-1,7.11s.21-1.56,1.18-3.67c1.33-2.91,3.56-4.92,3.94-4.6s-.8,4-1.89,6.17A6.34,6.34,0,0,0,50,106.2c0,.29,0,.77.2.82.35.09.89-1.8,1.9-3.85a22.61,22.61,0,0,1,2.16-3.53"/><path class="cls-1" d="M57.65,91.94a3.4,3.4,0,0,1,2.74-1.45A3.63,3.63,0,0,1,63,92.29c.68.93,1.29,2.37.94,2.75s-1.07-.37-1.85-.63c-1.21-.41-3.17-.07-6.45,3.5"/><path class="cls-1" d="M57.56,102.08a2.88,2.88,0,0,0,.45-2c-.11-.7-.53-1.62-1-1.61-.81,0-1.19,3.09-1.45,3A4.26,4.26,0,0,1,56,98.29c.52-1,1.74-2.41,2.8-2,.82.35,1.07,1.62,1.11,1.86"/><path class="cls-1" d="M58,96.05a4.69,4.69,0,0,1,3.19-.86,4.29,4.29,0,0,1,1.06.29,5.07,5.07,0,0,0-1.67-2.4,2,2,0,0,0-1.14-.54c-1,0-2.09,1.77-2.58,4.36"/><path class="cls-1" d="M54.82,105.49a7.69,7.69,0,0,1-.42-8.34,5.71,5.71,0,0,1,5.91-2.73"/><path class="cls-1" d="M54.93,107.07a4.56,4.56,0,0,1,1.13-3.41,3.11,3.11,0,0,1,2.81-1c.78.19,1.27.77,1.38.63s-.24-.59-.91-1.71a15,15,0,0,0-1-1.64c-1-1-3.1-.95-3.61,0-.23.42-.07.87.06,1.58a12.26,12.26,0,0,1-.11,4.52"/><path class="cls-1" d="M53,101.71c-.57,2.26-.53,3.09-.25,3.26s.47-.08.62.11,0,.52,0,.91a2.29,2.29,0,0,0,.55,1.52"/><path class="cls-1" d="M26.09,104.58a4.35,4.35,0,0,0-2.44-2.26c-1.76-.46-3.34,1.1-3.7.58-.24-.36.3-1.41.95-2a3,3,0,0,1,3-.44"/><path class="cls-1" d="M40.8,96a14.81,14.81,0,0,1,.72,4,15.57,15.57,0,0,1-.15,2.8"/><path class="cls-1" d="M45.06,104a6.55,6.55,0,0,1,.21-3.92,5.51,5.51,0,0,1,1.95-2.51"/><path class="cls-1" d="M28.27,92.79a16.34,16.34,0,0,1,2.57,4.85,25.22,25.22,0,0,1,.82,3.92,10.84,10.84,0,0,0-1.39-7.89A7,7,0,0,0,26.22,91"/><path class="cls-1" d="M24.07,84.55a7.89,7.89,0,0,0-2.73-4.68c-3.07-2.33-6.58-.43-6.73-.35"/><path class="cls-1" d="M18.34,72.08l.59,3.65"/><path class="cls-1" d="M60.58,72.06c-.27,1.83-.53,3.65-.8,5.47"/><path class="cls-1" d="M31.52,128.46a37.87,37.87,0,0,1-2.75-10.28c-.2-1.71-.1-1.93,0-2,.62-.26,3.21,5.91,5.5,11.7"/><path class="cls-1" d="M35,134.31a18.4,18.4,0,0,1-.66-9.39c.89-4.38,3.4-7.83,3.77-7.62.2.11-.33,1.28-.84,4a31,31,0,0,0-.48,8.24c.08.91.37,4.43,1.08,4.49s1.28-2.64,1.73-4.49c1.22-5,1.33-8.86,1.5-8.85s.15,1.29.18,5.72c0,3.76,0,5,.24,5,.54.1,1.75-6.43,2.27-6.33s-.19,6.91.36,7,1.49-5.21,2.09-5.1.21,5.36.78,5.44c.24,0,.58-.87.78-1.7.81-3.52-1.15-5.42-1-8.64s2.44-6.32,3.35-6.06,1.32,4.27.78,7.56c-.37,2.19-1.19,4.32-.54,7.14.24,1.07.44,1.09.48,1.09.47,0,.14-3.82,1.37-7.83.93-3,3.13-7.4,5.5-7.21a2.07,2.07,0,0,1,1.8,1.23c.58,1.94-3.82,3.74-5.15,8.91-.54,2.12-.36,4-.06,4.08s.8-2.21,2.75-4.08c.47-.45,1.41-1.23,1.62-1s-.2,1.29-2.65,5.12"/><path class="cls-1" d="M25.61,131.86a5.13,5.13,0,0,0-1.56-3c-1.19-1-2.53-.67-2.57-1.08s1.43-1.5,2.69-1.09c2,.65,2.34,4.63,2.63,4.56s.61-4.31-1.62-7.22c-2-2.62-5.06-2.81-5-3.4.08-.43,1.8-.65,3.41-.13,3.47,1.11,5,5.17,5.14,5.57.83,2.3.65,4.28,1,4.29s.47-.68.89-4"/><path class="cls-1" d="M26.14,138.48a.67.67,0,0,1,.68,0c1.06.64,1.13,4.73,1.14,6.47.36,34.23.7,71.12.7,71.12"/><path class="cls-1" d="M33.15,215.56c-.4-10.94-2.37-65.59-2-71.57.06-1,.24-3.88,1.35-4.24a1.41,1.41,0,0,1,1.22.4c1.1,1,1,3,1,3.52,0,3.75,1.12,32.16,2.72,71.89"/><path class="cls-1" d="M41,214.92c-.36-9.47-2.57-68.69-1.83-71.43a3.41,3.41,0,0,1,1.25-1.87,1.57,1.57,0,0,1,1-.44,1.92,1.92,0,0,1,1.42.91,4.1,4.1,0,0,1,.65,1.49c.39,2.09,4.08,63.81,4.53,71.26"/><path class="cls-1" d="M50.42,214.48c-.32-10.2-2.21-69.92-1.71-72.5a3.69,3.69,0,0,1,.76-1.72,1.29,1.29,0,0,1,1.46-.45c.68.35.93,1.63,1,2.08.66,3.4,2.39,59.4,2.8,72.59"/><path class="cls-1" d="M56.56,136.93a3.75,3.75,0,0,0-1.26,1.43,4.84,4.84,0,0,0-.41,1.51c-.19,2,3.09,65.4,3.56,74.46"/><path class="cls-1" d="M56.06,123.17c.06,1.56.11,3.12.17,4.68"/><path class="cls-1" d="M25.45,124.41l.16,3.65"/><line class="cls-1" x1="26.4" y1="114.64" x2="26.6" y2="121.65"/><line class="cls-1" x1="27.75" y1="115.14" x2="28.27" y2="123.17"/><line class="cls-1" x1="30.62" y1="116.58" x2="30.62" y2="118.4"/><line class="cls-1" x1="32.04" y1="117.04" x2="32.2" y2="121.42"/><line class="cls-1" x1="33.67" y1="117.49" x2="33.99" y2="123.92"/><line class="cls-1" x1="35.03" y1="117.85" x2="35.23" y2="120.48"/><line class="cls-1" x1="37.61" y1="122.56" x2="37.93" y2="132.08"/><line class="cls-1" x1="38.65" y1="118.71" x2="38.65" y2="130.07"/><line class="cls-1" x1="39.84" y1="118.71" x2="39.84" y2="124.96"/><line class="cls-1" x1="42.15" y1="119.15" x2="42.15" y2="127.32"/><line class="cls-1" x1="43.26" y1="119.15" x2="43.26" y2="124.41"/><line class="cls-1" x1="44.37" y1="119.15" x2="44.37" y2="124.39"/><line class="cls-1" x1="45.53" y1="119.16" x2="45.53" y2="126.23"/><line class="cls-1" x1="51.97" y1="117.25" x2="51.97" y2="123.17"/><line class="cls-1" x1="53" y1="117.04" x2="53" y2="120.7"/><line class="cls-1" x1="54.16" y1="116.06" x2="54.16" y2="118.4"/><line class="cls-1" x1="55.39" y1="114.95" x2="55.39" y2="117.49"/><line class="cls-1" x1="55.35" y1="125.82" x2="55.35" y2="128.06"/><line class="cls-1" x1="29.32" y1="123.84" x2="29.46" y2="126.23"/><line class="cls-1" x1="46.46" y1="118.99" x2="46.36" y2="120.7"/><path class="cls-1" d="M263.94,135.13q1.4,18.47,2.51,37.6,1.29,22.16,2.07,43.51"/><path class="cls-1" d="M233.43,135.7q-.28,20.93,0,43,.3,19.46,1.07,38"/><path class="cls-1" d="M265.18,134.3a29.85,29.85,0,0,1-16.24,5.38A30.25,30.25,0,0,1,233,135.46"/><path class="cls-1" d="M233.33,133.42A47.37,47.37,0,0,0,247,136.85a20,20,0,0,0,2.41.15c4.44-.13,9.61-2.59,14.77-4.84.27-.12.89-.38,1.18-.08s0,1.61-.32,2.33"/><path class="cls-1" d="M233.33,133.42a.78.78,0,0,0-.76,0,1,1,0,0,0-.31.72,1.69,1.69,0,0,0,1,1.44"/><path class="cls-1" d="M263,111.32l.69,10.42"/><path class="cls-1" d="M232.17,115.42l.24,4.23"/><path class="cls-1" d="M263.13,113.72a40.9,40.9,0,0,1-6.09,3.22c-3,1.29-12.36,5.1-20.68,1.57-2.15-.91-4.32-2.34-4.17-2.9.1-.39,1.27-.23,1.39-.75s-.64-.77-1.18-1.61c-.94-1.44-.79-3.57-.4-3.7.55-.18,2,3.64,2.22,3.52s-1.53-4.45-1-4.8c.35-.23,1.6,1.22,2.42,2.59,1,1.6,1.23,2.93,1.42,2.88s-.45-4.44-.15-4.52a16.35,16.35,0,0,1,1.13,2.39c.54,1.09,1,2,1.2,1.93.56-.17-.9-6.52-.25-6.74.36-.13,1.23,1.6,1.73,3a27.24,27.24,0,0,1,.91,3.66c.18,0-.61-7,.08-7.16.34-.08,1,1.46,1.58,3,.83,2,1,3.09,1.23,3.06.52-.06-.22-7,.49-7.13.39-.07,1.17,1.89,1.52,3.62.32,1.56.25,2.71.39,2.72.29,0,.49-5.48,1.26-5.52.54,0,1.13,2.63,1.16,2.79.42,2,.24,3.39.38,3.41s.94-6.21,1.53-6.18c.29,0,.49,1.56.64,2.71.29,2.21.17,3.5.34,3.53.38.06,1.28-7.13,2.08-7.07.41,0,.7,2,.79,2.64.27,1.9,0,3,.25,3.07.49.15,2-6.14,2.87-6,.43.08.59,1.56.62,2.31a16.07,16.07,0,0,1-.54,3.41c.31.19,3.2-5.7,3.88-5.36.26.13.09,1.25,0,2-.28,1.91-.89,2.88-.67,3s.84-.42,1.21-1a3.72,3.72,0,0,0,.46-1.71s0,.77-.21,3.7"/><path class="cls-1" d="M233.58,114.86c4.07,1.48,12.89,3.91,22.53.2a31.05,31.05,0,0,0,6.86-3.74"/><ellipse class="cls-1" cx="246.34" cy="89.75" rx="4.78" ry="6.01" transform="translate(-5.43 16.61) rotate(-3.82)"/><ellipse class="cls-1" cx="246.36" cy="90" rx="2.3" ry="2.99" transform="translate(-5.45 16.61) rotate(-3.82)"/><path class="cls-1" d="M261.69,105.6A14.45,14.45,0,0,1,265,99.32a5.34,5.34,0,0,1,2.39-1.72,6.81,6.81,0,0,0,2.23-.64,4.79,4.79,0,0,0,.9-.65"/><path class="cls-1" d="M260.38,104.52a12.29,12.29,0,0,1,1.92-3.3,10.94,10.94,0,0,1,3.59-2.88"/><path class="cls-1" d="M261,102.43c-.64,1.33-1.05,2-1.22,1.89s-.13-.34-.06-.89"/><path class="cls-1" d="M266.54,94.21a3.13,3.13,0,0,1,2.51-.38c.59.2,1.42.72,1.37,1.19,0,.2-.2.44-1.24.79a13.32,13.32,0,0,1-3.27.54,6.34,6.34,0,0,0-3.33,1.94,10.43,10.43,0,0,0-2.88,5.49"/><path class="cls-1" d="M261.3,98.91c6.42-5.19,7.71-6.57,7.58-6.78s-1.53.51-2.63,1.3c-1.67,1.19-1.65,1.84-3.68,3.83s-2.9,2.22-3.08,3.4a10.61,10.61,0,0,0-.23,2.48,1.54,1.54,0,0,1-.05.83c-.14.33-.46.64-.7.58s-.57-.84-.53-1.92"/><path class="cls-1" d="M259.93,99c.09-.08.65-.57.54-1a.54.54,0,0,0-.34-.39c-.76-.19-2.53,3-3.14,6.4-.2,1.12-.27,2.27-.59,2.29s-.35-.36-1.33-2.19c-.42-.78-.51-.93-.65-.93-.69,0-1.13,3.49-1.46,3.44s-.45-2-.1-3.84a11.52,11.52,0,0,1,4.61-7"/><path class="cls-1" d="M258.56,98.4c2.11-3.91,4.42-5.61,6.27-6.41,2.56-1.11,5.41-1,5.44-1.74,0-.44-2-.62-2-1.24,0-.31.51-.38,1-1s1-2,.66-2.55-1.33-.35-2.15-.2c-1.55.29-2.26,1-2.45.76s.56-1.88,1.86-3c1.77-1.56,4.45-2.29,5.3-1.23.51.63.19,1.72.61,1.87s.93-.51,1.19-1.11c.76-1.75-.48-5-2.57-6.41-3.38-2.22-7.74,1.26-8.13,1.58A11.57,11.57,0,0,0,260,83.52"/><path class="cls-1" d="M265,90.56c1.48-2.41,1.31-2.86,1.2-3-.32-.36-1.84.49-2.91,1.4s-1.39,1.62-2.06,1.54a1.32,1.32,0,0,1-1.1-1.14c.07-1,2.65-.7,3.59-2.37a4.61,4.61,0,0,0-.07-3.57"/><path class="cls-1" d="M247.8,100c.3.13.92-2.06,2.58-4,1.44-1.68,3.73-3.27,4.78-2.53.41.29.68,1,.52,1.24s-.82,0-1.32-.06c-2-.26-4.81,2.68-5.09,5.7-.17,1.88.75,2.53.24,3.56-.91,1.85-4.9,2-5.76.39-.48-.87.32-1.73.06-3.74a6.14,6.14,0,0,0-1.12-3,5.17,5.17,0,0,0-3.63-1.92c-1.62-.14-2.82.57-3,.15s.4-.89.42-.91c1-1,2.58-.7,3.6-.49s3.77.77,4.62,2.88a7,7,0,0,1,.36,1.5s-.71-1.56-.2-2.34a1.92,1.92,0,0,1,2.76,0C248.51,97.47,247.49,99.82,247.8,100Z"/><path class="cls-1" d="M243.86,101.15a5.18,5.18,0,0,0-2.66-3c-1.14-.4-2.22,0-2.34-.33s.23-.7,2-1.85"/><path class="cls-1" d="M250.49,105.69c0-5.14.86-6.58,1.62-6.9.22-.09.7-.2.69-.32s-1-.4-1.8,0c-1.26.61-1.4,2.49-1.41,2.6"/><path class="cls-1" d="M241.13,87.3a5.15,5.15,0,0,0-1.53-3.42c-2.72-2.57-8.42,1.24-8.3,1.73.08.32,2.58-.89,4.61.63,1,.74,1.76,2,1.47,2.62-.44.89-3-.67-4.34.76a1.94,1.94,0,0,0-.54,1.92c.33.58,1.43.22,1.54.6s-1.68,1.06-1.77,2.32c0,.57.28,1.26.68,1.37.78.2,1-2,2.63-2.62a6.13,6.13,0,0,1,4.51.54c.17.1.58.36.89.18s.41-1,.42-1.34c0-1.29-.48-1.65-.61-2.78S241.14,88.42,241.13,87.3Z"/><path class="cls-1" d="M251.13,89.8a17.9,17.9,0,0,1,2.16-7.16c1-1.75,2.28-3.25,2.52-3.08s-1.31,3.4-1,3.63c.16.11.64-.44.95-.86,1.4-1.88,1.44-4.07,1.66-4s.07,4.68.82,4.87c.51.13,1.19-1.79,1.53-1.65s.13,1,0,1.74"/><path class="cls-1" d="M251.09,90.66l.55-1.39a34.78,34.78,0,0,1,2.06-4.87c1.66-1.64,4.34-2.34,6.12-1.16.91.6,1.67,1.75,1.45,2.25s-1.28.07-2.41.3-2.46,1.09-3.81,3.92"/><path class="cls-1" d="M252.73,86.76q1.74-1.42,2.1-1.08c.46.45-2,3.66-1.52,4.14s1.82-.92,1.87-.83-2.88,2.52-2.84,2.58a17.94,17.94,0,0,1,3.59-2.07c1-.39,2.49-1,2.94-.38a1.6,1.6,0,0,1-.34,1.76c-.7.68-1.53-.13-3.09.06a5.38,5.38,0,0,0-3.86,2.47c-.4.73-.6,1.63-1.26,1.77a1.13,1.13,0,0,1-.81-.18"/><path class="cls-1" d="M257.66,80.22A7.65,7.65,0,0,0,259,77.36c.22-1,.5-3-.19-3.45s-1.59.64-1.86.9c-1.57,1.52-1.46,3.14-3.28,5.75-.54.77-.89,1.12-1.12,1s-.25-1.34-.23-1.62"/><path class="cls-1" d="M252,82.09c-.57.3-.77.27-.84.19-.33-.42,1.9-2.42,2-5.4,0-1,0-1.15-.08-1.2-.42-.27-1.73,1.08-2.6,2.59-1.28,2.22-1,3.82-2.44,5a3.51,3.51,0,0,1-1.13.59"/><path class="cls-1" d="M248,81.53c-.24-1.28-.31-2.71.4-3.44s1.42-.48,1.43-.72-1.3-.73-2.61-.85c-2.13-.2-4.23.35-4.23.82s1.09.17,1.71,1c1.18,1.57-.19,5.45-.76,5.38-.4,0-.9-2-.15-3.48a2.37,2.37,0,0,1,2.33-1.42A2.73,2.73,0,0,1,248,81.53Z"/><path class="cls-1" d="M243.47,79.75a6.2,6.2,0,0,0-2.18-2.85c-.46-.3-.87-.57-1.25-.41-.77.34-.78,2.27-.65,3.38a11.59,11.59,0,0,0,.88,3,18.93,18.93,0,0,0-2.13-3.54c-1.37-1.64-3.68-3.28-4.47-2.62-1.26,1,1.39,7.88,1.8,7.77.21-.06.25-1.89-.56-3.34-1-1.8-3-2.33-5.16-2.92-1.25-.33-2.84-.76-3.06-.25s1.95,2.05,4.31,5.4c.89,1.26,2,2,2,3.32,0,.6-.29,1.3-.62,1.33-.52,0-.78-1.64-2.07-4.11-.89-1.71-1.5-2.83-2.61-3.24s-2.32-.32-2.58.33c-.51,1.22,2.83,4.53,3.19,4.22s-.46-2.53-2.16-3.46a3.61,3.61,0,0,0-3.87.37c-1.56,1.23-1.85,4.7-1.09,6.87.15.43.63,1.63.21,2.14-.25.31-.71.25-.72.43s.48.53.84.4.35-1.11.81-2.1a3.45,3.45,0,0,1,1.94-1.84c1.7-.48,3.53,2,4.29,3A11.8,11.8,0,0,1,231,96.33c.32,2,0,3.49,1.08,4.93.19.25.6.79,1,.7.73-.17.86-2.32.9-3a14.38,14.38,0,0,0-.89-5.78"/><path class="cls-1" d="M231.21,85.74a1.59,1.59,0,0,1-1,.13c-.47-.13-.64-.45-.92-.39s-.57.62-.61,1.06c-.07,1,.82,1.44,2,2.91,1.51,1.9,1.86,3.43,2.32,3.29s.36-1,.38-1.39A5.43,5.43,0,0,0,232.21,88"/><path class="cls-1" d="M226.62,80.48c-3.54-1.92-4.92-1.64-5.52-1s-.68,2.18-1.88,2.8c-.65.33-1.25.19-1.29.44s.82.9,1.67,1a3.34,3.34,0,0,0,2.66-1.51"/><path class="cls-1" d="M233.86,96.74a7.77,7.77,0,0,1,5,3.29c2.15,3.11,1.73,7,1.46,7s-.32-1.54-1.44-3.58c-1.54-2.81-3.93-4.67-4.3-4.33s1.08,4,2.33,6a6.28,6.28,0,0,1,.88,3c0,.29,0,.78-.15.83-.34.12-1-1.73-2.18-3.71A21.51,21.51,0,0,0,233,102"/><path class="cls-1" d="M229.08,94.51a3.48,3.48,0,0,0-2.88-1.27,3.76,3.76,0,0,0-2.52,2c-.62,1-1.14,2.46-.77,2.81s1.07-.44,1.84-.76c1.19-.48,3.2-.28,6.75,3.06"/><path class="cls-1" d="M229.84,104.61a2.82,2.82,0,0,1-.58-1.92c.06-.7.42-1.66.88-1.67.82,0,1.4,3,1.66,2.92s.24-1.79-.64-3.21c-.59-1-1.92-2.29-3-1.77-.8.41-1,1.69-1,1.94"/><path class="cls-1" d="M229,98.62a4.73,4.73,0,0,0-3.28-.63,4.3,4.3,0,0,0-1,.35,5.08,5.08,0,0,1,1.52-2.51,2.18,2.18,0,0,1,1.12-.61c1.05-.06,2.24,1.63,2.9,4.17"/><path class="cls-1" d="M232.85,107.83a7.58,7.58,0,0,0-.14-8.35,5.84,5.84,0,0,0-6.16-2.33"/><path class="cls-1" d="M232.84,109.41a4.57,4.57,0,0,0-1.38-3.33,3.16,3.16,0,0,0-2.9-.78c-.78.24-1.24.86-1.36.72s.21-.6.81-1.76a14.18,14.18,0,0,1,.87-1.71c1-1.1,3.07-1.15,3.66-.24.25.41.13.86,0,1.58a11.88,11.88,0,0,0,.42,4.5"/><path class="cls-1" d="M234.43,103.93c.72,2.22.73,3.06.47,3.24s-.48,0-.63.15,0,.53.09.91a2.31,2.31,0,0,1-.46,1.55"/><path class="cls-1" d="M261.87,105a4.39,4.39,0,0,1,2.32-2.42c1.75-.58,3.46.88,3.78.33.23-.38-.39-1.39-1.09-1.92a3.07,3.07,0,0,0-3-.24"/><path class="cls-1" d="M246.4,97.42a14.66,14.66,0,0,0-.46,4,15.51,15.51,0,0,0,.34,2.79"/><path class="cls-1" d="M242.62,105.69a6.36,6.36,0,0,0-.47-3.89A5.4,5.4,0,0,0,240,99.43"/><path class="cls-1" d="M258.88,93.37a16.06,16.06,0,0,0-2.28,5,24,24,0,0,0-.57,4,10.6,10.6,0,0,1,.88-8,7.13,7.13,0,0,1,3.93-2.9"/><path class="cls-1" d="M262.58,84.86A7.83,7.83,0,0,1,265,80c2.95-2.53,6.62-.88,6.78-.8"/><path class="cls-1" d="M269.89,72l-.69,3.38"/><path class="cls-1" d="M227.1,72l.63,5.76"/><path class="cls-1" d="M258,129.17a37.25,37.25,0,0,0,2.1-10.44c.09-1.72,0-1.93-.13-2-.65-.22-2.86,6.12-4.79,12"/><path class="cls-1" d="M254.84,135.24a18.15,18.15,0,0,0,0-9.41c-1.19-4.31-4-7.58-4.32-7.35-.2.12.42,1.25,1.11,4a30.35,30.35,0,0,1,1,8.18c0,.92-.08,4.45-.79,4.55s-1.48-2.54-2.06-4.36c-1.56-4.89-1.93-8.74-2.1-8.72s-.06,1.29.2,5.71c.22,3.76.32,5,.09,5-.55.14-2.2-6.29-2.72-6.16s.65,6.88.1,7-1.86-5.1-2.46-4.95.15,5.36-.42,5.48c-.24.05-.65-.83-.9-1.64-1.06-3.46.8-5.49.45-8.69s-2.89-6.15-3.79-5.82-1.06,4.34-.29,7.59c.52,2.16,1.49,4.23,1,7.09-.18,1.09-.38,1.12-.42,1.12-.48,0-.39-3.8-1.91-7.72-1.14-2.94-3.66-7.17-6.05-6.82a2.08,2.08,0,0,0-1.73,1.34c-.47,2,4.11,3.49,5.8,8.55.69,2.08.63,4,.33,4.07s-.95-2.16-3.06-3.89c-.5-.41-1.5-1.14-1.7-.91s.29,1.28,3,4.93"/><path class="cls-1" d="M264.17,132.16a5.11,5.11,0,0,1,1.38-3.09c1.14-1,2.52-.84,2.54-1.26s-1.56-1.4-2.8-.9c-2,.78-2.07,4.78-2.36,4.72s-.91-4.26,1.15-7.3c1.86-2.75,4.94-3.16,4.8-3.73s-1.86-.53-3.46.09c-3.44,1.35-4.71,5.5-4.83,5.92-.69,2.34-.37,4.3-.69,4.34s-.52-.65-1.17-3.95"/><path class="cls-1" d="M264.08,138.81a.68.68,0,0,0-.7,0c-1,.7-.82,4.79-.72,6.52,1.92,34.17,4,71,4,71"/><path class="cls-1" d="M262.11,216.18c-.32-10.94-2-65.59-2.74-71.54-.13-1-.51-3.85-1.65-4.14a1.49,1.49,0,0,0-1.21.48c-1,1-.81,3.11-.78,3.59.25,3.73,1,32.16,2,71.9"/><path class="cls-1" d="M254.17,216.07c-.28-9.47-2-68.71-2.91-71.39a3.44,3.44,0,0,0-1.39-1.78,1.63,1.63,0,0,0-1.07-.37,2,2,0,0,0-1.37,1,3.85,3.85,0,0,0-.55,1.54c-.26,2.1.11,63.93.15,71.39"/><path class="cls-1" d="M244.55,216.27c-.35-10.2-2.41-69.91-3.09-72.44a3.58,3.58,0,0,0-.88-1.67,1.32,1.32,0,0,0-1.51-.36c-.67.4-.84,1.7-.89,2.15-.45,3.44,1.53,59.43,2,72.61"/><path class="cls-1" d="M233.18,139.31a3.94,3.94,0,0,1,1.37,1.34,4.71,4.71,0,0,1,.51,1.48c.33,2,1.23,65.46,1.36,74.54"/><path class="cls-1" d="M232.76,125.55l.15,4.69"/><path class="cls-1" d="M263.84,124.72l.08,3.65"/><line class="cls-1" x1="262.22" y1="115.04" x2="262.49" y2="122.05"/><line class="cls-1" x1="260.89" y1="115.62" x2="260.9" y2="123.67"/><line class="cls-1" x1="258.08" y1="117.26" x2="258.2" y2="119.07"/><line class="cls-1" x1="256.67" y1="117.81" x2="256.8" y2="122.2"/><line class="cls-1" x1="255.05" y1="118.37" x2="255.15" y2="124.81"/><line class="cls-1" x1="253.71" y1="118.82" x2="253.68" y2="121.46"/><line class="cls-1" x1="251.4" y1="123.7" x2="251.71" y2="133.22"/><line class="cls-1" x1="250.1" y1="119.93" x2="250.86" y2="131.26"/><line class="cls-1" x1="248.89" y1="120.01" x2="249.31" y2="126.24"/><line class="cls-1" x1="246.58" y1="120.6" x2="247.13" y2="128.75"/><line class="cls-1" x1="245.46" y1="120.68" x2="245.81" y2="125.92"/><line class="cls-1" x1="244.33" y1="120.75" x2="244.68" y2="125.98"/><line class="cls-1" x1="243.16" y1="120.84" x2="243.63" y2="127.9"/><line class="cls-1" x1="236.51" y1="119.37" x2="236.91" y2="125.27"/><line class="cls-1" x1="235.45" y1="119.23" x2="235.7" y2="122.89"/><line class="cls-1" x1="234.22" y1="118.33" x2="234.38" y2="120.66"/><line class="cls-1" x1="232.9" y1="117.31" x2="233.07" y2="119.84"/><line class="cls-1" x1="233.66" y1="128.15" x2="233.81" y2="130.38"/><line class="cls-1" x1="259.89" y1="124.41" x2="259.9" y2="126.81"/><line class="cls-1" x1="242.21" y1="120.73" x2="242.42" y2="122.44"/></g></svg>