<svg xmlns="http://www.w3.org/2000/svg" viewBox="0 0 288 288"><defs><style>.cls-1{fill:none;stroke:#c84d00;stroke-miterlimit:10;stroke-width:0.5px;}</style></defs><g id="Layer_2" data-name="Layer 2"><path class="cls-1" d="M22.32,72.56a11.23,11.23,0,0,0,2,4.64,15.33,15.33,0,0,0,7.42,5,22.84,22.84,0,0,0,13.66.13c2.32-.66,7-2,9.66-5.89A10.61,10.61,0,0,0,56.82,72"/><path class="cls-1" d="M22.09,72.32H56.77"/><path class="cls-1" d="M30.77,72.32A6.45,6.45,0,0,0,33,75.07a7.13,7.13,0,0,0,7.77,0A6.19,6.19,0,0,0,43,72.32"/><path class="cls-1" d="M22.09,72.32a6.14,6.14,0,0,1-2.4,3.53,6.34,6.34,0,0,1-5.21,1c-1-.28-1.54-.78-1.65-.66s1.65,2.57,4.3,4.16a11.38,11.38,0,0,0,4.21,1.56,5.06,5.06,0,0,0,2.56-.09,4.42,4.42,0,0,0,2.41-2.34"/><path class="cls-1" d="M56.82,72c1.85,1.26,3.53,2.37,5.13,3.43a4.35,4.35,0,0,0,2.47.95,7,7,0,0,0,2.25-.61c.11.15-1.65,1.92-3.86,2.93-3.51,1.61-7.35.93-9.9.12"/><path class="cls-1" d="M56,79.53a6.61,6.61,0,0,1-1.48,3.26c-1.33,1.58-4,3.19-6.62,2.33a5.54,5.54,0,0,1-3-2.64"/><path class="cls-1" d="M30.75,72.66l-7.88,1.83"/><path class="cls-1" d="M31.16,73.07,23.57,76"/><line class="cls-1" x1="31.41" y1="73.46" x2="24.95" y2="77.93"/><line class="cls-1" x1="32.08" y1="74.28" x2="27.14" y2="79.9"/><line class="cls-1" x1="33.02" y1="75.07" x2="29.29" y2="81.18"/><line class="cls-1" x1="34.58" y1="75.84" x2="31.78" y2="82.2"/><path class="cls-1" d="M36.58,76.23l-2,7A7.88,7.88,0,0,1,30,86.24c-.66.15-3.75.85-5.86-1.09A5.13,5.13,0,0,1,22.57,82"/><line class="cls-1" x1="37.95" y1="76.18" x2="37.95" y2="83.32"/><line class="cls-1" x1="39.03" y1="75.84" x2="40.65" y2="83.33"/><line class="cls-1" x1="40.79" y1="75.11" x2="43.56" y2="82.8"/><line class="cls-1" x1="42.17" y1="74" x2="47.79" y2="81.6"/><line class="cls-1" x1="42.41" y1="73.46" x2="52.66" y2="78.8"/><line class="cls-1" x1="42.71" y1="72.96" x2="55.1" y2="76.44"/><line class="cls-1" x1="42.87" y1="72.66" x2="56.36" y2="73.89"/><line class="cls-1" x1="39.57" y1="83.3" x2="39.57" y2="216.54"/><line class="cls-1" x1="44.48" y1="82.8" x2="44.48" y2="216.03"/><line class="cls-1" x1="35.14" y1="83.05" x2="35.14" y2="216.54"/><path class="cls-1" d="M44.48,120.54a20.21,20.21,0,0,0,6.68-1.31A19.35,19.35,0,0,0,57.79,115"/><path class="cls-1" d="M57.82,115.24l-.06,6.3a8.38,8.38,0,0,1-.85.85c-1,.92-2.51,1.85-6.35,2.86a47.72,47.72,0,0,1-6.08,1.16"/><path class="cls-1" d="M35.14,121a11.58,11.58,0,0,1-4.86-1.22,14.18,14.18,0,0,1-4.81-4"/><path class="cls-1" d="M25.45,116l0,5.93a9.06,9.06,0,0,0,.61.8c.76.87,1.83,1.74,4.62,2.69a26.11,26.11,0,0,0,4.42,1.09"/><polygon class="cls-1" points="35.14 94.88 44.48 95.17 58.55 86.49 58.55 91.33 44.48 99.17 35.14 99.17 24.05 96.41 23.29 90.15 35.14 94.88"/><path class="cls-1" d="M25.49,121.94a10.7,10.7,0,0,1-3.12,4.11c-.45.36-3.78,3-6.21,2.21-.27-.1-.62-.26-.72-.15S16.45,130,18,131a8.81,8.81,0,0,0,7.88.72A8.17,8.17,0,0,0,28.45,130"/><path class="cls-1" d="M28.42,124.33a5.64,5.64,0,0,0-.79,3.28,4.12,4.12,0,0,0,.82,2.42,3.21,3.21,0,0,0,2.89,1c1.79-.3,3.32-2.33,3.8-5.1"/><path class="cls-1" d="M57.76,121.54A7.17,7.17,0,0,0,60,123.88a7.29,7.29,0,0,0,3.72,1.21c1.14,0,1.72-.27,1.85,0,.24.41-1.28,1.87-3,2.74a10.52,10.52,0,0,1-5.68,1,12.52,12.52,0,0,1-7.35-3.31"/><path class="cls-1" d="M49.57,125.49a4.53,4.53,0,0,1,.62,2.69,2.69,2.69,0,0,1-.47,1.48,2.86,2.86,0,0,1-3.25.84,3.5,3.5,0,0,1-1.66-2.09,5.29,5.29,0,0,1-.33-1.27"/><polygon class="cls-1" points="34.96 147.53 44.57 147.53 58.29 140.6 58.29 146.15 44.57 152.06 34.96 152.06 25.39 149.41 25.39 144.62 34.96 147.53"/><polygon class="cls-1" points="60.24 173.36 44.48 179.56 35.14 179.85 24.16 175.98 24.16 181.89 35.14 184.59 44.14 184.23 60.24 178.17 60.24 173.36"/><path class="cls-1" d="M35.14,204.15l9.34-.25,15.69-4.72v5.22l-15.69,3.79-9.34-.25-11-2.79V201Z"/><line class="cls-1" x1="22.93" y1="83.74" x2="23.65" y2="90.15"/><line class="cls-1" x1="24.38" y1="96.49" x2="25.99" y2="116.41"/><line class="cls-1" x1="25.86" y1="131.7" x2="26.4" y2="144.8"/><path class="cls-1" d="M26,149.7q-.54,13.28-1.1,26.55"/><line class="cls-1" x1="24.92" y1="182.08" x2="24.92" y2="201.21"/><line class="cls-1" x1="24.92" y1="205.34" x2="24.92" y2="215.52"/><line class="cls-1" x1="58.06" y1="79.9" x2="58.06" y2="86.78"/><line class="cls-1" x1="57.82" y1="91.74" x2="56.82" y2="115.78"/><line class="cls-1" x1="56.92" y1="128.8" x2="57.32" y2="141.09"/><line class="cls-1" x1="57.28" y1="146.58" x2="59.07" y2="173.82"/><line class="cls-1" x1="59.32" y1="178.52" x2="59.58" y2="199.18"/><line class="cls-1" x1="59.45" y1="204.58" x2="59.58" y2="216.03"/><path class="cls-1" d="M266.54,72.79a11.07,11.07,0,0,1-2.08,4.64,15.64,15.64,0,0,1-7.6,5,23.85,23.85,0,0,1-14,.14c-2.38-.66-7.15-2-9.88-5.89a10.37,10.37,0,0,1-1.76-4.44"/><path class="cls-1" d="M266.77,72.55H231.31"/><path class="cls-1" d="M257.9,72.55a6.46,6.46,0,0,1-2.31,2.74,7.4,7.4,0,0,1-7.94,0,6.29,6.29,0,0,1-2.28-2.79"/><path class="cls-1" d="M266.77,72.55a6.18,6.18,0,0,0,2.46,3.53,6.65,6.65,0,0,0,5.33,1c1.05-.28,1.57-.79,1.69-.66s-1.69,2.57-4.4,4.16a11.61,11.61,0,0,1-4.31,1.55,5.19,5.19,0,0,1-2.62-.08,4.47,4.47,0,0,1-2.46-2.35"/><path class="cls-1" d="M231.26,72.23c-1.9,1.25-3.61,2.37-5.25,3.43a4.56,4.56,0,0,1-2.53.94,7.12,7.12,0,0,1-2.3-.61c-.11.16,1.7,1.93,3.95,2.94,3.6,1.61,7.52.93,10.13.12"/><path class="cls-1" d="M232.11,79.75A6.48,6.48,0,0,0,233.62,83c1.36,1.58,4.09,3.19,6.77,2.33a5.64,5.64,0,0,0,3.09-2.64"/><path class="cls-1" d="M257.92,72.88,266,74.72"/><path class="cls-1" d="M257.5,73.3l7.76,2.92"/><line class="cls-1" x1="257.24" y1="73.69" x2="263.85" y2="78.16"/><line class="cls-1" x1="256.55" y1="74.51" x2="261.61" y2="80.13"/><line class="cls-1" x1="255.59" y1="75.29" x2="259.41" y2="81.4"/><line class="cls-1" x1="254" y1="76.07" x2="256.86" y2="82.42"/><path class="cls-1" d="M252,76.46l2.05,7a8.09,8.09,0,0,0,4.69,3.06c.68.15,3.84.85,6-1.09a5.24,5.24,0,0,0,1.6-3.11"/><line class="cls-1" x1="250.56" y1="76.4" x2="250.56" y2="83.54"/><line class="cls-1" x1="249.45" y1="76.07" x2="247.8" y2="83.55"/><line class="cls-1" x1="247.65" y1="75.34" x2="244.82" y2="83.02"/><line class="cls-1" x1="246.24" y1="74.22" x2="240.49" y2="81.83"/><line class="cls-1" x1="245.99" y1="73.69" x2="235.51" y2="79.02"/><line class="cls-1" x1="245.68" y1="73.19" x2="233.02" y2="76.67"/><line class="cls-1" x1="245.52" y1="72.88" x2="231.72" y2="74.12"/><line class="cls-1" x1="248.9" y1="83.53" x2="248.9" y2="216.77"/><line class="cls-1" x1="243.88" y1="83.02" x2="243.88" y2="216.26"/><line class="cls-1" x1="253.43" y1="83.28" x2="253.43" y2="216.77"/><path class="cls-1" d="M243.88,120.76a20.82,20.82,0,0,1-6.84-1.3,19.9,19.9,0,0,1-6.78-4.23"/><path class="cls-1" d="M230.24,115.47l.06,6.3a10.08,10.08,0,0,0,.86.84c1.06.93,2.57,1.86,6.5,2.86a47.73,47.73,0,0,0,6.22,1.16"/><path class="cls-1" d="M253.43,121.22a12,12,0,0,0,5-1.23,14.58,14.58,0,0,0,4.92-4"/><path class="cls-1" d="M263.34,116.23l0,5.94a9.5,9.5,0,0,1-.63.8c-.77.86-1.87,1.74-4.72,2.69a28.1,28.1,0,0,1-4.52,1.09"/><polygon class="cls-1" points="253.43 95.11 243.88 95.39 229.49 86.72 229.49 91.56 243.88 99.39 253.43 99.39 264.77 96.63 265.55 90.38 253.43 95.11"/><path class="cls-1" d="M263.3,122.17a10.85,10.85,0,0,0,3.19,4.11c.46.36,3.87,3,6.35,2.2.28-.09.64-.25.73-.14s-1,1.86-2.59,2.87a9.19,9.19,0,0,1-8.06.72,8.53,8.53,0,0,1-2.65-1.67"/><path class="cls-1" d="M260.3,124.56a5.58,5.58,0,0,1,.81,3.28,4.1,4.1,0,0,1-.84,2.42,3.33,3.33,0,0,1-3,1c-1.82-.3-3.39-2.33-3.88-5.1"/><path class="cls-1" d="M230.3,121.77a7.27,7.27,0,0,1-2.3,2.33,7.39,7.39,0,0,1-3.8,1.22c-1.16,0-1.76-.27-1.9,0-.24.41,1.31,1.88,3,2.75a11,11,0,0,0,5.81,1,12.93,12.93,0,0,0,7.52-3.31"/><path class="cls-1" d="M238.67,125.72a4.57,4.57,0,0,0-.64,2.69,2.68,2.68,0,0,0,.49,1.47,2.93,2.93,0,0,0,3.32.84,3.51,3.51,0,0,0,1.7-2.09,4.79,4.79,0,0,0,.34-1.26"/><polygon class="cls-1" points="253.61 147.76 243.79 147.76 229.76 140.83 229.76 146.38 243.79 152.28 253.61 152.28 263.4 149.64 263.4 144.84 253.61 147.76"/><polygon class="cls-1" points="227.76 173.59 243.88 179.78 253.43 180.08 264.66 176.21 264.66 182.12 253.43 184.82 244.23 184.45 227.76 178.4 227.76 173.59"/><path class="cls-1" d="M253.43,204.38l-9.55-.25-16-4.72v5.22l16,3.79,9.55-.25,11.24-2.8v-4.16Z"/><line class="cls-1" x1="265.92" y1="83.97" x2="265.18" y2="90.38"/><line class="cls-1" x1="264.43" y1="96.72" x2="262.79" y2="116.64"/><line class="cls-1" x1="262.92" y1="131.93" x2="262.36" y2="145.02"/><path class="cls-1" d="M262.75,149.93q.57,13.27,1.13,26.55"/><line class="cls-1" x1="263.88" y1="182.31" x2="263.88" y2="201.43"/><line class="cls-1" x1="263.88" y1="205.57" x2="263.88" y2="215.75"/><line class="cls-1" x1="229.98" y1="80.13" x2="229.98" y2="87.01"/><line class="cls-1" x1="230.24" y1="91.97" x2="231.26" y2="116.01"/><line class="cls-1" x1="231.15" y1="129.03" x2="230.75" y2="141.32"/><line class="cls-1" x1="230.79" y1="146.81" x2="228.96" y2="174.04"/><line class="cls-1" x1="228.7" y1="178.75" x2="228.44" y2="199.41"/><line class="cls-1" x1="228.57" y1="204.8" x2="228.44" y2="216.26"/></g></svg>