<svg xmlns="http://www.w3.org/2000/svg" viewBox="0 0 288 288"><defs><style>.cls-1{fill:none;stroke:#c84d00;stroke-miterlimit:10;stroke-width:0.5px;}</style></defs><g id="Layer_2" data-name="Layer 2"><path class="cls-1" d="M26.79,57.7v1.58A12.8,12.8,0,0,0,23.48,61a6.21,6.21,0,0,0-2.08,2.71c-1.23,3-.39,6.45-.09,7.56"/><path class="cls-1" d="M52.59,57.7l-.35,1.58a16.4,16.4,0,0,1,5.51,1.24,5.92,5.92,0,0,1,3.81,4.61c.17.79,0,.82.12,2.88.08,1.16.21,2.11.31,2.73"/><path class="cls-1" d="M26.79,59.27H52.24"/><path class="cls-1" d="M262.74,70.74c-.08-.86-.18-2.12-.24-3.66-.12-3.3.11-4.14-1.13-5.18a13.73,13.73,0,0,0-4.3-2,29.25,29.25,0,0,0-4.6-1.11c-2.66-.09-5.55-.13-8.64-.08-3.57,0-6.86.2-9.84.41"/><path class="cls-1" d="M234,57.7v1.42a13.56,13.56,0,0,0-5.8,1.3A4.26,4.26,0,0,0,226,63.23a15.12,15.12,0,0,0-.24,7.51"/><line class="cls-1" x1="252.16" y1="57.7" x2="252.08" y2="58.79"/><polygon class="cls-1" points="259.47 57.7 23.75 57.7 23.75 46.61 261.08 44.98 259.47 57.7"/><path class="cls-1" d="M22.63,43l1.12,3.58Z"/><path class="cls-1" d="M22.63,43l241-.21L261.08,45"/><path class="cls-1" d="M263.61,42.82a47.8,47.8,0,0,0,6.24-.37,26.23,26.23,0,0,0,6.36-1.3c2-.76,6-2.23,7.74-6,1.42-3,1.1-6.75-.07-7.6-.08-.05-.54-.38-.75-.24s.19,1.1.14,1.65c-.2,2.33-7.65,2.83-7.65,2.83-25.87,1.74-139.33,1.42-139.33,1.42-23.21-.07-43.35,1.1-43.35,1.1-22,1.27-44.08-.83-66,.94C25,35.43,9.6,36.68,8,31.89c-.65-1.95,1.06-4.64.57-4.88S6.1,28.77,5.66,31.33c-.6,3.49,1.92,6.86,4.08,8.56s4.15,2,6.86,2.6a26.5,26.5,0,0,0,6,.54"/><path class="cls-1" d="M146.11,9.06l-67,18.61,18.19-.19,118.42-1.22Z"/><line class="cls-1" x1="97.27" y1="33.95" x2="97.26" y2="27.48"/><path class="cls-1" d="M195.82,26.46c.08,2.18.15,4.36.23,6.54"/><path class="cls-1" d="M136.29,33.23a2.57,2.57,0,0,1,1.33-2c4.09-2.72,17.7-2.57,21.12,0a1.9,1.9,0,0,1,.88,1.77l12.65,9.92.9,2.68L192.32,57.7"/><polyline class="cls-1" points="217.1 57.7 216.31 50.36 237.75 50.23 238.23 57.7"/><ellipse class="cls-1" cx="227.27" cy="53.96" rx="7.8" ry="2.69"/><polyline class="cls-1" points="44.52 57.49 44.16 50.27 67.22 49.59 67.72 57.7"/><ellipse class="cls-1" cx="56.3" cy="54.43" rx="8.68" ry="2.51"/><path class="cls-1" d="M136.29,33.23,118.49,43,116.35,46,91.45,57.7"/><polyline class="cls-1" points="134.82 33.95 109.16 42.82 103.04 45.83 79.68 57.7"/><path class="cls-1" d="M160.39,33.13l29.23,9.69,1.65,2.64L207.69,57.7"/><path class="cls-1" d="M135.64,33.5,93.67,43l-3.33,2.8L67.22,49.59"/><path class="cls-1" d="M161.51,33.5l46.18,9.32,1.25,2.52,7.37,5"/><path class="cls-1" d="M147.38,27q-.78-8.66-1.57-17.3L125.75,27.18"/><path class="cls-1" d="M145.37,9.58l-42.24,17.9"/><path class="cls-1" d="M146.48,9.36,161.9,26.81"/><path class="cls-1" d="M146.48,9.36,191.4,26.51"/><path class="cls-1" d="M20.79,31.15a4.17,4.17,0,0,1-2.33.72c-1.68,0-3.07-1-2.77-1.88s2.35-1.28,2.77-1.37a13.92,13.92,0,0,1,4.92.08,11.29,11.29,0,0,1,2.23.6c2.21.95,2.84,3,.72,4-2.63,1.28-8,.29-10.28-.36-1-.27-4.27-1.19-4.56-2.69-.35-1.8,3.46-3.16,5.54-3.9,9.52-3.37,22.23-2.21,23.51-2.08,3.49.34,6.75,1.24,13.32,2.93,8.17,2.1,12.55,2.9,13.32,3.21a12.87,12.87,0,0,0,4.29,1.08c2.3.17,3.44-.33,4.83-.08a3.06,3.06,0,0,1,2.58,2.93"/><path class="cls-1" d="M18.46,28.62a49.89,49.89,0,0,1,16.27-1.08c3.36.39,3.84.91,9.92,2,5.4.93,10,1.38,13,1.6,3.49.27,8.22.5,13.86.4"/><path class="cls-1" d="M78.65,33.4c-11.37.09-19.61.21-26.14.35-7.09.14-14.36-.87-21.29-.18a5.65,5.65,0,0,1-2.31-.12c-.36-.19-.23-.53.06-1.19s.41-.94.73-1.13c1-.59,3.37-.48,4.16-.44,3.54.14,11.19.21,21.8.26"/><path class="cls-1" d="M266.51,27.9c0,.12-.13.77.85,1.23a7.17,7.17,0,0,0,5.08,0c1.25-.62.74-1.57,0-2.08-1.57-1.09-5.12-.92-5.76-.89a11.08,11.08,0,0,0-4.47,1c-1.91,1.09-1.33,2.84.77,3.9s5.62,1.27,8.17.89c3.42-.5,4.8-1.89,5.16-2.31,1.53-1.8-.43-3.47-1.29-4.21-.47-.41-3.25-2.69-8.86-3.29a37.37,37.37,0,0,0-8.17.35,142.89,142.89,0,0,0-15.3,2.67c-4.4.91-4.9,1.12-8.51,1.81a66.87,66.87,0,0,1-9.29,1.47,30.79,30.79,0,0,0-6.45.5,10.88,10.88,0,0,0-2.32.7c-2.47,1.14-1.79,3-1.63,3.35"/><path class="cls-1" d="M236.88,28.49a112.63,112.63,0,0,0,11.83-1.56c3.41-.64,6.85-1.27,10.4-1.74a32.69,32.69,0,0,1,5.18-.39l.75,0A17.87,17.87,0,0,1,271,26.4"/><path class="cls-1" d="M258.08,28.78a97,97,0,0,0-9.89-.42c-2.37,0-4,.13-7.95.14-2.48,0-4.18,0-5.47,0-3.07-.05-7.56-.09-13.55,0"/><path class="cls-1" d="M257.48,28.76a5,5,0,0,1,1.19.13c1.75.43,2.14,1.94,1.06,2.6-1.28.78-4.65.41-8.62.19-7.32-.41-5.21.32-23,.31-3.27,0-8,0-13.78-.16"/><path class="cls-1" d="M196,35.86c26.19-.59,40.54-.38,48.93,0s16.93-.11,25.39-.14a47.78,47.78,0,0,0,8.36-.6c2.42-.42,3.82-.91,4-.79s-3.27,2.09-7.54,3.34c-4.74,1.39-9.73,1.85-16.82,2.09-17.35.56-25.17-1-45.63-.56l-3.71.09"/><path class="cls-1" d="M98.38,36.56c-12.77.26-23.54.41-31.69.51-1.45,0-11.87.14-25.39.09-12.58,0-16.52-.19-21.17-.6-4.85-.42-9.4-1-9.6-.79s3.24.45,6.92,1.72c2.55.88,2.63,1.32,4.78,1.94a30.3,30.3,0,0,0,7.27,1c19.65.84,35.33.06,35.33.06,6.26-.31,16.43-.8,29.73-1.39"/><path class="cls-1" d="M226.54,62.06a72.47,72.47,0,0,0,16.11,1.54A71.73,71.73,0,0,0,260,61.17"/><path class="cls-1" d="M226.24,63.7a100.34,100.34,0,0,0,16.69,1,99.3,99.3,0,0,0,18.44-2.14"/><path class="cls-1" d="M22.25,61.87a85.83,85.83,0,0,0,17.56,1.54A84.66,84.66,0,0,0,58.67,61"/><path class="cls-1" d="M21.93,63.51a117.63,117.63,0,0,0,18.18,1,117.49,117.49,0,0,0,20.1-2.14"/><line class="cls-1" x1="83.49" y1="27.62" x2="83.49" y2="34.26"/><line class="cls-1" x1="210.15" y1="26.51" x2="210.98" y2="32.91"/></g></svg>