<svg xmlns="http://www.w3.org/2000/svg" viewBox="0 0 288 288"><defs><style>.cls-1{fill:none;stroke:#c84d00;stroke-miterlimit:10;stroke-width:0.5px;}</style></defs><g id="Layer_2" data-name="Layer 2"><path class="cls-1" d="M31.91,48.66c2.67-5.13,10.4-17.55,30.77-27.45C86.75,9.51,113,8.88,121.33,8.89"/><path class="cls-1" d="M123.45,16.74c-9.2.26-34.92,1.74-57.73,13.69C51.2,38,43.9,46.74,40.38,51.9L27,51.07l7.48,9.79-15.24.22,5.22,7"/><path class="cls-1" d="M257.22,52.73a38.86,38.86,0,0,0-9-15c-23.59-25-77.44-27.92-84.92-28.25"/><path class="cls-1" d="M158.5,16.67c8.67.41,29.57,2.12,50.53,11.46C231.08,38,240.37,50.5,243.58,55.48L263,55.14l-10.92,8.31,17.34.47-4,5"/><ellipse class="cls-1" cx="140.41" cy="24.98" rx="7.78" ry="13.63" transform="translate(111.53 164.64) rotate(-88.4)"/><path class="cls-1" d="M126.8,25.11,120.48,6.66l43.8,1.21q-5.24,8-10.48,15.94"/><path class="cls-1" d="M250.7,46.39l-5.58,5.83,6.34.36,22.4-.67-11.39,9.58,14.65-.7L270,69.06l-.08,3.26L18.07,71.69l-.76-3.63-7.24-10,16.59.44-12-10.27,23.09.55,1.85.69"/><line class="cls-1" x1="269.99" y1="69.06" x2="17.31" y2="68.06"/><path class="cls-1" d="M121.35,68.57c.15-.45,1.79-4.74,8.58-6.45A23.13,23.13,0,0,1,145.7,64a10.23,10.23,0,0,1,4.69,4.72"/><path class="cls-1" d="M124.32,68.68c.12-.45,1-3.26,5.34-4.79a17.82,17.82,0,0,1,11,0c4.39,1.58,5.25,4.49,5.36,4.88"/><path class="cls-1" d="M104.78,68.41c1-5.65,4.14-7.82,6.88-8.73s4.85-.45,9.3-1.55a35.37,35.37,0,0,0,9-3.89c6-3.74,9-12.34,5.09-22.19"/><path class="cls-1" d="M162.73,68.63a12.38,12.38,0,0,0-7.5-9.32c-4.25-1.83-6.53-.58-10.3-2.19-10-4.26-6.11-18.22-5.36-20.91a27.32,27.32,0,0,1,1.2-3.44"/><path class="cls-1" d="M37,48.79C39.36,44,46.35,32,65.74,22.46c23.11-11.35,48.56-11.67,56.18-11.59"/><path class="cls-1" d="M253.45,52.63a37.89,37.89,0,0,0-8.84-14.4c-21.5-22.52-68.25-26.31-80.41-27l-2.09-.1"/><path class="cls-1" d="M37.89,51.87C41,46.57,47.91,37.21,62.83,29c23.76-13.07,51.59-14.26,60.37-14.41"/><path class="cls-1" d="M246.53,55.74c-2.4-4.84-9.47-16.63-29.19-26.75C194.05,17,168.1,15.1,159.81,14.68"/><path class="cls-1" d="M241.59,58.63C238,53.49,231,45.5,217.94,38.28c-25.29-14-55.06-15-63.75-15.07"/><path class="cls-1" d="M258.78,58.32l-22.5.43c-4.18-5.13-17.71-20.07-46.48-28.22A143.38,143.38,0,0,0,154,25.35"/><path class="cls-1" d="M44.55,55.05c2.94-4.78,9.6-13.52,24-20.92,23-11.86,49.64-11.94,57.3-11.8"/><path class="cls-1" d="M28.93,53.64,50.2,55.56c2.39-4.09,6.84-10,15.26-15.63,11.31-7.6,23.83-10.8,29.08-12.1,4.65-1.15,8.39-1.76,9.71-2a123.23,123.23,0,0,1,23.1-1.36"/><polyline class="cls-1" points="269.69 52.04 270.49 49.2 259.01 49.13 260.03 52.32"/><polyline class="cls-1" points="18.36 48.3 17.43 45.48 31 45.37 30.25 48.62"/><ellipse class="cls-1" cx="264.88" cy="44.15" rx="5.11" ry="8.3" transform="translate(213.31 307.68) rotate(-88.39)"/><ellipse class="cls-1" cx="24.35" cy="40.09" rx="5.11" ry="9.27" transform="translate(-16.4 63.31) rotate(-88.41)"/><polygon class="cls-1" points="140.75 20.51 148.11 25.62 139.7 30.18 132.34 25.07 140.75 20.51"/><path class="cls-1" d="M34.45,60.86l70.38,5.42"/><line class="cls-1" x1="106.09" y1="64.43" x2="30.33" y2="55.47"/><line class="cls-1" x1="50.2" y1="55.56" x2="107.62" y2="62.24"/><line class="cls-1" x1="57.14" y1="46.71" x2="108.51" y2="61.39"/><line class="cls-1" x1="67.03" y1="38.91" x2="110.23" y2="60.28"/><line class="cls-1" x1="78.29" y1="33.09" x2="113.62" y2="59.22"/><line class="cls-1" x1="89.15" y1="29.05" x2="122.42" y2="57.5"/><line class="cls-1" x1="104.25" y1="25.86" x2="130.01" y2="54.24"/><line class="cls-1" x1="117.52" y1="24.36" x2="134.12" y2="50.23"/><path class="cls-1" d="M162.21,66.74l89.84-3.29"/><line class="cls-1" x1="161.07" y1="64.27" x2="233.33" y2="55.38"/><line class="cls-1" x1="161.69" y1="65.45" x2="236.28" y2="58.75"/><line class="cls-1" x1="160.26" y1="62.69" x2="223.96" y2="47.03"/><line class="cls-1" x1="210.6" y1="38.65" x2="158.63" y2="61.41"/><line class="cls-1" x1="193.66" y1="31.86" x2="155.23" y2="59.31"/><line class="cls-1" x1="176.94" y1="27.58" x2="149.75" y2="57.88"/><line class="cls-1" x1="162.04" y1="25.56" x2="144.93" y2="57.12"/><line class="cls-1" x1="158.28" y1="25.33" x2="141.25" y2="54.54"/><path class="cls-1" d="M127.53,17.35,124,8.65,158.67,9.9q-2.31,4.08-4.6,8.16"/><path class="cls-1" d="M120.15,10.74l-4.59,4.17"/><line class="cls-1" x1="115.05" y1="11.06" x2="120.28" y2="14.64"/><line class="cls-1" x1="167.17" y1="15.22" x2="164.2" y2="11.27"/><line class="cls-1" x1="168.51" y1="11.55" x2="162.74" y2="14.86"/><line class="cls-1" x1="171.94" y1="11.84" x2="174.14" y2="16.04"/><line class="cls-1" x1="176.28" y1="12.25" x2="169.97" y2="15.52"/><line class="cls-1" x1="179.58" y1="12.68" x2="181.84" y2="17.3"/><line class="cls-1" x1="184.4" y1="13.35" x2="177.22" y2="16.5"/><line class="cls-1" x1="187.16" y1="13.78" x2="188.09" y2="18.48"/><line class="cls-1" x1="191.64" y1="14.57" x2="183.64" y2="17.64"/><line class="cls-1" x1="194.54" y1="15.14" x2="195.76" y2="20.57"/><line class="cls-1" x1="199.19" y1="16.14" x2="190.42" y2="19.15"/><line class="cls-1" x1="202.21" y1="16.87" x2="202.26" y2="22.62"/><line class="cls-1" x1="207" y1="18.15" x2="196.93" y2="20.91"/><line class="cls-1" x1="209.76" y1="18.96" x2="208.32" y2="24.87"/><line class="cls-1" x1="214.44" y1="20.49" x2="203.47" y2="23.04"/><line class="cls-1" x1="217.42" y1="21.57" x2="214.65" y2="27.65"/><line class="cls-1" x1="222.32" y1="23.55" x2="209.95" y2="25.55"/><line class="cls-1" x1="224.5" y1="24.52" x2="220.33" y2="30.58"/><line class="cls-1" x1="228.83" y1="26.67" x2="216.04" y2="28.33"/><line class="cls-1" x1="231.07" y1="27.9" x2="226.62" y2="34.44"/><line class="cls-1" x1="235.38" y1="30.56" x2="221.53" y2="31.39"/><line class="cls-1" x1="237.38" y1="32.04" x2="232.12" y2="38.53"/><line class="cls-1" x1="240.81" y1="34.66" x2="228.17" y2="35.59"/><line class="cls-1" x1="242.59" y1="36.38" x2="236.69" y2="42.49"/><line class="cls-1" x1="245.99" y1="39.8" x2="233.24" y2="39.6"/><line class="cls-1" x1="247.2" y1="41.2" x2="241.18" y2="47.49"/><line class="cls-1" x1="249.84" y1="44.93" x2="237.63" y2="43.51"/><line class="cls-1" x1="252.46" y1="49.97" x2="242.28" y2="48.91"/><line class="cls-1" x1="112.15" y1="11.11" x2="109.13" y2="15.47"/><line class="cls-1" x1="107.92" y1="11.42" x2="113.44" y2="15.06"/><line class="cls-1" x1="105.07" y1="11.7" x2="102.98" y2="16.25"/><line class="cls-1" x1="101.2" y1="12.16" x2="106.91" y2="15.72"/><line class="cls-1" x1="98.65" y1="12.53" x2="96.9" y2="17.27"/><line class="cls-1" x1="95.23" y1="13.1" x2="101.1" y2="16.54"/><path class="cls-1" d="M93,13.52c-.56,1.7-1.13,3.39-1.69,5.08"/><path class="cls-1" d="M89.43,14.21l5.93,3.36"/><line class="cls-1" x1="86.91" y1="14.87" x2="85.46" y2="19.93"/><line class="cls-1" x1="83.1" y1="15.82" x2="89.66" y2="18.83"/><line class="cls-1" x1="79.81" y1="16.87" x2="78.82" y2="22"/><line class="cls-1" x1="76.25" y1="18.06" x2="83.33" y2="20.55"/><line class="cls-1" x1="73.36" y1="19.13" x2="73.24" y2="24"/><line class="cls-1" x1="70.04" y1="20.48" x2="77.27" y2="22.54"/><line class="cls-1" x1="67.68" y1="21.54" x2="67.9" y2="26.41"/><line class="cls-1" x1="64.67" y1="23" x2="71.68" y2="24.72"/><line class="cls-1" x1="62.88" y1="23.93" x2="63.87" y2="28.43"/><line class="cls-1" x1="59.86" y1="25.64" x2="66.94" y2="26.87"/><line class="cls-1" x1="58.55" y1="26.43" x2="59.73" y2="30.79"/><line class="cls-1" x1="55.8" y1="28.22" x2="62.83" y2="29"/><line class="cls-1" x1="54.21" y1="29.15" x2="55.36" y2="33.63"/><line class="cls-1" x1="52.07" y1="30.94" x2="58.43" y2="31.49"/><line class="cls-1" x1="50.35" y1="32.33" x2="51.41" y2="36.59"/><line class="cls-1" x1="54.08" y1="34.55" x2="48.02" y2="34.39"/><line class="cls-1" x1="46.77" y1="35.58" x2="48.13" y2="39.42"/><line class="cls-1" x1="44.81" y1="37.6" x2="50.57" y2="37.28"/><line class="cls-1" x1="43.84" y1="38.67" x2="45.38" y2="42.09"/><line class="cls-1" x1="42.27" y1="40.57" x2="47.26" y2="40.23"/><line class="cls-1" x1="41.38" y1="41.75" x2="42.63" y2="45.14"/><line class="cls-1" x1="39.95" y1="43.84" x2="44.13" y2="43.37"/><path class="cls-1" d="M39.11,45,40,48.67"/><path class="cls-1" d="M37.64,47.6l4.2-1.31"/><line class="cls-1" x1="269.97" y1="70.11" x2="17.28" y2="69.11"/></g></svg>