<svg xmlns="http://www.w3.org/2000/svg" viewBox="0 0 288 288"><defs><style>.cls-1{fill:none;stroke:#c84d00;stroke-miterlimit:10;stroke-width:0.5px;}</style></defs><g id="Layer_2" data-name="Layer 2"><path class="cls-1" d="M226.65,67.63c0,1.36,0,2.72,0,4.08H270V65.92"/><path class="cls-1" d="M31.46,42.19,145.68,5.92,251.52,41.75"/><path class="cls-1" d="M209.85,41.75h49l-1.09,2.4h3.13l-12.25,2.6H218.56l-12-2.5,3.95-.09Z"/><path class="cls-1" d="M210.54,44.16h47.22"/><path class="cls-1" d="M25.52,42.37l56.92-1.76v2.75h3l-9.29,3.39L33.43,47.87,23.37,45.09l4.45-.26Z"/><path class="cls-1" d="M28,44.85l55.41-1.49"/><path class="cls-1" d="M35.74,47.81c-.09,1.68-.17,3.35-.26,5"/><path class="cls-1" d="M72.65,46.84l-.08,6.45"/><path class="cls-1" d="M220.9,46.75c0,1.76,0,3.53.08,5.29"/><path class="cls-1" d="M247.08,46.75l.83,5.19"/><path class="cls-1" d="M24.7,57.56a2.74,2.74,0,0,1,.74-3.62c1.16-.88,9.62-1.18,10-1.1,9.31,1.81,197.9-2.07,214.31-.78,1.25.09,4.81.37,6.15,1.74,1.14,1.16-.22,2.17,0,3.23.84,3.9,22.79,5.13,22.68,6-.14,1.05-34.88.58-43,.48-19-.23-38.07.06-57.1.07,0,0-33.25,0-69.39.51-49.92.65-102.6,2.14-102.81.72-.06-.39,3.76-.57,9.25-2.53A36.85,36.85,0,0,0,24.7,57.56Z"/><path class="cls-1" d="M24.7,57.56,255.94,57"/><path class="cls-1" d="M18,65.34v3.33l252-1.21V63.67"/><path class="cls-1" d="M71.47,41a16.7,16.7,0,0,1,5.33-7.33c24.66-20.57,125.69-16.29,142.81,4.21a12,12,0,0,1,2.24,3.92"/><path class="cls-1" d="M74.83,40.84a11.89,11.89,0,0,1,3.7-6.43c20-19.08,120.31-16.25,137.55,3.8a11.81,11.81,0,0,1,2.16,3.54"/><path class="cls-1" d="M76.18,46.75l.52,6.52"/><path class="cls-1" d="M218.56,46.75c-.26,1.7-.52,3.39-.79,5.09"/><polyline class="cls-1" points="82.44 40.61 85.47 39.95 85.47 43.36"/><path class="cls-1" d="M75.14,39.63,85.47,40"/><polyline class="cls-1" points="209.85 41.75 206.59 40.67 207.33 44.25"/><line class="cls-1" x1="72.95" y1="37.93" x2="75.68" y2="38.27"/><path class="cls-1" d="M74.55,36.11l1.93.4"/><line class="cls-1" x1="76.8" y1="33.62" x2="78.53" y2="34.41"/><line class="cls-1" x1="75.52" y1="34.78" x2="77.67" y2="35.31"/><line class="cls-1" x1="78.17" y1="32.56" x2="79.5" y2="33.07"/><line class="cls-1" x1="79.5" y1="31.42" x2="81.21" y2="31.95"/><line class="cls-1" x1="81.72" y1="30.35" x2="82.86" y2="30.96"/><line class="cls-1" x1="83.95" y1="29.23" x2="84.98" y2="30.16"/><path class="cls-1" d="M85.7,28.45l1.35.78"/><path class="cls-1" d="M89,27.18l1.34.8"/><path class="cls-1" d="M87.19,27.84l1.29.55"/><path class="cls-1" d="M90.33,26.71l1.52.9"/><path class="cls-1" d="M91.65,26.15l1.52.79"/><path class="cls-1" d="M95,25.31l1.46.84"/><path class="cls-1" d="M97,24.77l1.45.88"/><path class="cls-1" d="M98.89,24.33l1.37.92"/><path class="cls-1" d="M101.32,23.79l1.22,1"/><path class="cls-1" d="M103.53,23.35l1.13,1"/><path class="cls-1" d="M106.05,22.9l1.23,1.17"/><path class="cls-1" d="M108.52,22.49l.94,1.11"/><line class="cls-1" x1="111" y1="22.13" x2="111.88" y2="23.35"/><line class="cls-1" x1="93.48" y1="25.73" x2="94.98" y2="26.62"/><line class="cls-1" x1="144.84" y1="20.16" x2="144.84" y2="21.53"/><line class="cls-1" x1="142.39" y1="20.16" x2="142.39" y2="21.53"/><line class="cls-1" x1="139.15" y1="20.04" x2="139.15" y2="21.53"/><line class="cls-1" x1="136.35" y1="20.16" x2="136.35" y2="21.53"/><line class="cls-1" x1="133.7" y1="20.28" x2="133.7" y2="21.63"/><line class="cls-1" x1="130.89" y1="20.39" x2="131.24" y2="21.63"/><line class="cls-1" x1="127.9" y1="20.53" x2="128.34" y2="21.83"/><line class="cls-1" x1="125.34" y1="20.79" x2="125.83" y2="21.83"/><line class="cls-1" x1="123.05" y1="20.85" x2="123.68" y2="22.11"/><line class="cls-1" x1="120.81" y1="21.03" x2="121.57" y2="22.27"/><line class="cls-1" x1="118.27" y1="21.18" x2="119.14" y2="22.47"/><line class="cls-1" x1="116.06" y1="21.63" x2="117.04" y2="22.74"/><line class="cls-1" x1="113.27" y1="21.83" x2="114.35" y2="22.97"/><line class="cls-1" x1="147.4" y1="20.22" x2="146.91" y2="21.53"/><line class="cls-1" x1="149.76" y1="20.28" x2="149.17" y2="21.65"/><line class="cls-1" x1="152.06" y1="20.39" x2="151.28" y2="21.63"/><line class="cls-1" x1="154.27" y1="20.53" x2="153.29" y2="21.65"/><line class="cls-1" x1="156.8" y1="20.59" x2="155.55" y2="21.83"/><line class="cls-1" x1="159.33" y1="20.85" x2="158.05" y2="22.08"/><line class="cls-1" x1="162.32" y1="20.96" x2="160.76" y2="22.11"/><line class="cls-1" x1="73.46" y1="37.16" x2="75.68" y2="37.57"/><line class="cls-1" x1="72.36" y1="38.92" x2="74.83" y2="39.28"/><line class="cls-1" x1="71.79" y1="40.12" x2="74.57" y2="40.12"/><line class="cls-1" x1="164.92" y1="21.21" x2="163.11" y2="22.46"/><line class="cls-1" x1="168.05" y1="21.47" x2="165.86" y2="22.71"/><line class="cls-1" x1="170.91" y1="21.84" x2="169.17" y2="23.05"/><line class="cls-1" x1="173.75" y1="22.11" x2="171.8" y2="23.35"/><line class="cls-1" x1="176.27" y1="22.44" x2="174.33" y2="23.67"/><line class="cls-1" x1="178.89" y1="22.82" x2="177.04" y2="24.05"/><line class="cls-1" x1="181.85" y1="23.35" x2="179.74" y2="24.47"/><line class="cls-1" x1="184.13" y1="23.67" x2="181.85" y2="24.82"/><line class="cls-1" x1="186.6" y1="24.25" x2="184.13" y2="25.23"/><line class="cls-1" x1="189.15" y1="24.64" x2="186.6" y2="25.71"/><line class="cls-1" x1="191.71" y1="25.23" x2="189.15" y2="26.26"/><line class="cls-1" x1="194.19" y1="25.79" x2="191.35" y2="26.76"/><line class="cls-1" x1="196.51" y1="26.38" x2="193.9" y2="27.4"/><line class="cls-1" x1="199.26" y1="27.15" x2="196.51" y2="28.01"/><line class="cls-1" x1="202.02" y1="28.01" x2="198.61" y2="28.75"/><line class="cls-1" x1="204.19" y1="28.75" x2="201.02" y2="29.55"/><line class="cls-1" x1="206.07" y1="29.55" x2="203.35" y2="30.4"/><line class="cls-1" x1="208.63" y1="30.4" x2="205.38" y2="31.22"/><line class="cls-1" x1="210.54" y1="31.37" x2="207.36" y2="32.12"/><line class="cls-1" x1="212.45" y1="32.35" x2="209.24" y2="33.06"/><line class="cls-1" x1="214.2" y1="33.36" x2="210.84" y2="33.98"/><line class="cls-1" x1="216.01" y1="34.56" x2="212.52" y2="35.07"/><line class="cls-1" x1="217.51" y1="35.73" x2="213.71" y2="35.96"/><line class="cls-1" x1="218.81" y1="36.95" x2="215.07" y2="37.14"/><line class="cls-1" x1="220.02" y1="38.34" x2="216.27" y2="38.43"/><line class="cls-1" x1="220.72" y1="39.36" x2="217.04" y2="39.46"/><path class="cls-1" d="M221.21,40.22h-3.7l-10.92.45"/><line class="cls-1" x1="221.54" y1="40.92" x2="218.24" y2="40.92"/><path class="cls-1" d="M24.69,56.19l231.59-.73"/><polygon class="cls-1" points="117.04 18.33 146.07 8.5 171.8 18.33 117.04 18.33"/><polygon class="cls-1" points="43.83 40.12 72.95 30.81 68.9 39.46 43.83 40.12"/><polygon class="cls-1" points="225.53 40.44 221.21 34.41 242.71 40.12 225.53 40.44"/><line class="cls-1" x1="80.3" y1="45.25" x2="83.07" y2="53.23"/><line class="cls-1" x1="210.84" y1="45.25" x2="207.36" y2="51.94"/><path class="cls-1" d="M61.26,68.45v3.26H18V65.92"/></g></svg>