<svg xmlns="http://www.w3.org/2000/svg" viewBox="0 0 288 288"><defs><style>.cls-1{fill:none;stroke:#c84d00;stroke-miterlimit:10;stroke-width:0.5px;}</style></defs><g id="Layer_2" data-name="Layer 2"><path class="cls-1" d="M5.59,46.22H279.91a2.68,2.68,0,0,1-.61,1c-1,1.08-2.65,1.42-3.84,2a3.89,3.89,0,0,0-2.27,3.16H10.78a3.44,3.44,0,0,0-2-3.53,8,8,0,0,1-2.41-1.46A2.85,2.85,0,0,1,5.59,46.22Z"/><path class="cls-1" d="M12.42,52.42a2.7,2.7,0,0,0,.46,1.93,4.77,4.77,0,0,0,.84.93h256.1l2.27-2.86"/><path class="cls-1" d="M15.16,55.28a5.78,5.78,0,0,0,.76,2.89A8.71,8.71,0,0,0,17.4,60.1H267.64L269,55.28"/><path class="cls-1" d="M17.89,60.1c-.09.94-.14,1.93-.14,3,0,1.24.08,2.15.12,2.7.11,1.33.25,3.29.38,6"/><path class="cls-1" d="M23.47,60.1q.47,6,.94,11.9"/><path class="cls-1" d="M53.88,60.1q-.15,6-.29,11.9"/><path class="cls-1" d="M60.6,60.1,61,72"/><path class="cls-1" d="M29.93,63.28l18.4-.69a5.44,5.44,0,0,1,.47,1.86A5.29,5.29,0,0,1,48.33,67l-18.4.69Z"/><path class="cls-1" d="M227.18,60.1A34.34,34.34,0,0,0,227,64c0,1.17.07,1.82.12,2.92a49.86,49.86,0,0,1,0,5.06"/><path class="cls-1" d="M232.74,60.1q.3,5.85.59,11.7"/><path class="cls-1" d="M260.69,60.1c.12.66.23,1.32.34,2a55.49,55.49,0,0,1,.58,10.05"/><path class="cls-1" d="M267.21,60.33q.69,2.72,1.32,5.6.68,3.12,1.21,6.07"/><path class="cls-1" d="M261.56,35.84,21.92,35A29.19,29.19,0,0,1,16.19,34a19.54,19.54,0,0,1-5.76-2.69H269.1a6.51,6.51,0,0,1-2.76,2.84,24.33,24.33,0,0,1-4.78,1.74,16.11,16.11,0,0,0-6.13,3.72h-231a7.47,7.47,0,0,1-2-2.39A4.78,4.78,0,0,1,21.92,35"/><path class="cls-1" d="M30.85,25c.52,2.09,1,4.19,1.57,6.28"/><line class="cls-1" x1="81.87" y1="25.78" x2="82.06" y2="31.26"/><line class="cls-1" x1="74.14" y1="39.37" x2="74.76" y2="46.25"/><line class="cls-1" x1="68.39" y1="39.37" x2="68.93" y2="46.25"/><line class="cls-1" x1="25.03" y1="39.37" x2="25.91" y2="46.25"/><line class="cls-1" x1="30.44" y1="39.37" x2="31.42" y2="46.25"/><path class="cls-1" d="M36.69,41.37A2,2,0,0,0,36.34,43a3,3,0,0,0,1.07,1.51L61.78,44a7.09,7.09,0,0,1-.83-1.4,5.21,5.21,0,0,1-.36-1.2c-3.36-.16-7.19-.28-11.41-.29C44.52,41.07,40.33,41.19,36.69,41.37Z"/><line class="cls-1" x1="255.13" y1="39.37" x2="255.13" y2="46.25"/><line class="cls-1" x1="248.1" y1="39.37" x2="248.1" y2="46.25"/><path class="cls-1" d="M203.89,39.56q-.21,3.34-.41,6.69"/><line class="cls-1" x1="210.03" y1="39.37" x2="210.03" y2="46.25"/><line class="cls-1" x1="246.01" y1="24.49" x2="246.01" y2="31.26"/><line class="cls-1" x1="194.77" y1="24.49" x2="194.77" y2="31.26"/><path class="cls-1" d="M238.43,64.52a65.3,65.3,0,0,0,11.27.08c1.38-.12,6-.58,6-.58h0q0,.84,0,1.74A25.45,25.45,0,0,0,256,69.1c-1.28-.07-2.6-.13-3.94-.16a133,133,0,0,0-14.23.35,6.65,6.65,0,0,1,0-3A7.15,7.15,0,0,1,238.43,64.52Z"/><path class="cls-1" d="M217.06,41.44a3,3,0,0,1-.09,1,4.69,4.69,0,0,1-1.2,2.05l24.48-.16a3,3,0,0,0,.4-1.81,3.36,3.36,0,0,0-.4-1.18c-4.23,0-7.65,0-10.06.09s-4.28.14-7.33.14C220.42,41.53,218.42,41.48,217.06,41.44Z"/><line class="cls-1" x1="131.02" y1="39.37" x2="129.96" y2="46.25"/><line class="cls-1" x1="152.95" y1="39.37" x2="152.95" y2="46.25"/><polyline class="cls-1" points="131.02 31.26 130.49 21.85 141.63 15.24 152.95 22.37 152.95 31.26"/><path class="cls-1" d="M153,22.37l-22.46-.52"/><path class="cls-1" d="M195.63,14.66c-.74-.31-5.87,1.45-6.47,4.21s3.72,4.7,4.18,4.9c2.1.9,4.34,1.07,8,1.35a63.09,63.09,0,0,0,6.89.18c5.21-.15,13.08-.37,18-.43,5.86-.07,11.77-.66,17.58-.21a12.35,12.35,0,0,0,3.7-.22,6.79,6.79,0,0,0,4.32-2.78c2.19-3.2-2.22-7-3-6.85-.45.07.75,1.53-.4,3.24-.38.55-1.58,2-6.08,3.23-5.35,1.5-9.56,1.14-20.55,1.19C209,22.53,205,23.05,200,21.36c-1.49-.5-4.87-1.66-5.4-3.54C194.09,16.14,196.19,14.88,195.63,14.66Z"/><ellipse class="cls-1" cx="220.25" cy="15.7" rx="11.8" ry="6.41"/><path class="cls-1" d="M210.15,14.68c0-.18.49-.31,1-.47,1.8-.52,1.62-.6,2.64-.85a28.78,28.78,0,0,1,9.41-.58c1.6.2,1.29.34,4.49.87,1.73.28,2.69.39,2.74.65s-.68.46-2.59,1c-2.85.76-4.27,1.15-4.81,1.22a24.21,24.21,0,0,1-7-.09c-2.33-.34-1.8-.61-4.94-1.3C210.88,15.05,210.15,14.9,210.15,14.68Z"/><path class="cls-1" d="M218.63,12.67c.07,1.35.13,2.7.2,4"/><path class="cls-1" d="M221.65,12.66c.12,1.28.25,2.56.37,3.84"/><ellipse class="cls-1" cx="54.95" cy="14.15" rx="11.8" ry="7.08"/><path class="cls-1" d="M44.84,13.8c0-.18.49-.31,1-.47,1.79-.52,1.62-.6,2.63-.85a28.78,28.78,0,0,1,9.41-.58c1.61.2,1.3.34,4.49.87,1.74.28,2.7.38,2.75.65s-.69.46-2.59,1c-2.85.76-4.27,1.15-4.81,1.22a24.28,24.28,0,0,1-7-.09c-2.32-.34-1.8-.61-4.93-1.3C45.58,14.17,44.85,14,44.84,13.8Z"/><path class="cls-1" d="M53.33,11.79c.06,1.35.13,2.69.2,4"/><path class="cls-1" d="M56.34,11.78c.13,1.28.25,2.56.38,3.84"/><path class="cls-1" d="M30.09,14.73c-.48-.3-4.13.55-6.3,2.27-2.4,1.91-1.86,4-1.72,4.48a4.65,4.65,0,0,0,3.31,3.31c1.39.43,2.26,0,5.47.08a44.05,44.05,0,0,1,5.25.46c5.35.66,14.58.59,26.48.51,13.87-.11,12.89-.4,15.42-.12a21,21,0,0,0,5.81,0c.67-.1,4.82-.75,6.22-2.85,1-1.53-.14-3.13-.83-4.09-1.38-1.92-3.83-3.36-4.35-3.2s.77,1.18.48,2.81A4.49,4.49,0,0,1,84,20.63c-2.08,1.9-9.77,1-18.33.85-11.63-.23-16.8,1-28.9,0-2.28-.19-7.32-.67-8.29-2.32a3,3,0,0,1,.27-2.7C29.4,15.36,30.36,14.9,30.09,14.73Z"/><line class="cls-1" x1="36.78" y1="25.31" x2="37.35" y2="31.26"/><line class="cls-1" x1="41.08" y1="25.63" x2="41.56" y2="31.26"/><line class="cls-1" x1="44.47" y1="25.63" x2="45.3" y2="31.26"/><line class="cls-1" x1="48.75" y1="25.63" x2="49.31" y2="31.26"/><line class="cls-1" x1="53.33" y1="25.61" x2="53.53" y2="31.26"/><line class="cls-1" x1="58.43" y1="25.59" x2="58.43" y2="31.26"/><line class="cls-1" x1="62.58" y1="25.57" x2="62.58" y2="31.26"/><line class="cls-1" x1="66.75" y1="25.55" x2="66.75" y2="31.26"/><line class="cls-1" x1="71.09" y1="25.63" x2="70.46" y2="31.26"/><line class="cls-1" x1="74.2" y1="25.46" x2="73.92" y2="31.26"/><line class="cls-1" x1="78" y1="25.5" x2="77.72" y2="31.26"/><line class="cls-1" x1="197.03" y1="24.72" x2="196.56" y2="31.26"/><line class="cls-1" x1="201.3" y1="25.12" x2="200.8" y2="31.26"/><line class="cls-1" x1="206.07" y1="25.32" x2="206.41" y2="31.26"/><line class="cls-1" x1="209.59" y1="25.26" x2="209.59" y2="31.26"/><line class="cls-1" x1="213.09" y1="25.16" x2="213.09" y2="31.26"/><line class="cls-1" x1="216.79" y1="25.06" x2="216.79" y2="31.26"/><line class="cls-1" x1="220.25" y1="24.98" x2="220.74" y2="31.26"/><line class="cls-1" x1="223.38" y1="25.06" x2="224.06" y2="31.26"/><line class="cls-1" x1="226.17" y1="24.87" x2="226.98" y2="31.26"/><line class="cls-1" x1="230.43" y1="24.72" x2="230.47" y2="31.26"/><line class="cls-1" x1="233.92" y1="24.72" x2="233.92" y2="31.26"/><line class="cls-1" x1="237.68" y1="24.5" x2="237.68" y2="31.26"/><line class="cls-1" x1="242.31" y1="24.72" x2="241.97" y2="31.26"/><line class="cls-1" x1="134.83" y1="24.05" x2="148.84" y2="24.05"/><line class="cls-1" x1="135.98" y1="25.58" x2="147.87" y2="25.58"/><line class="cls-1" x1="135.62" y1="26.81" x2="147.87" y2="26.81"/><line class="cls-1" x1="136.51" y1="28.23" x2="147.87" y2="28.23"/><line class="cls-1" x1="136.51" y1="29.76" x2="147.43" y2="29.76"/><line class="cls-1" x1="133.07" y1="40.65" x2="149.46" y2="40.65"/><line class="cls-1" x1="133.77" y1="41.75" x2="149.99" y2="41.75"/><line class="cls-1" x1="133.77" y1="42.81" x2="148.67" y2="42.81"/><line class="cls-1" x1="133.77" y1="44.17" x2="149.99" y2="44.01"/><line class="cls-1" x1="133.07" y1="45.37" x2="150.61" y2="45.37"/><path class="cls-1" d="M153,23.09c.51,0,4.55-.13,5.88-1.46,1-1-.15-2.22-1.32-3.38-2.45-2.44-4.71-2.38-6.52-4.42-.62-.7-2.27-2.55-.67-4.42s6-2.61,6.72-2.72c1-.15,6-.87,9.17.7,2.54,1.25,2.42,3.16,2.17,3.2s-.32-.79-1.7-1.27c-2-.71-5.13-.12-5.77,0a7.63,7.63,0,0,0-2.74.85c-2,1.34.51,3.72,1,4.13,2.26,2.14,4.47,1.82,6.52,3.71.45.42,2.86,2.76.85,5.17-1.61,1.93-5.11,2.77-6.14,3a25.54,25.54,0,0,1-7.4.51"/><path class="cls-1" d="M130.5,22.71c-.35-.08-4.43-1.05-5-3.15a2.43,2.43,0,0,1,1.68-2.87c1.11-.5,1.89-.33,5.22-.84a23.75,23.75,0,0,0,5.6-1.2,4.38,4.38,0,0,0,3-3.52c.09-.5.47-2.62-2.42-4.36a10.38,10.38,0,0,0-5.79-1.67,8.58,8.58,0,0,0-4.57,1.25c-1,.69-1.16,1.54-.84,1.62s.79-.6,2.06-.74a6.19,6.19,0,0,1,3.07.6c.23.11,1.57.73,1.5,1.53s-1.8,1.45-3.36,2c-3.25,1-4.68.75-8.21,1.67a16.54,16.54,0,0,0-4.94,1.85c-2.88,1.89-2.18,4.18-2,4.55.57,1.7,2.48,2.8,4.29,3.84a39.12,39.12,0,0,0,5.87,2.55c2.12.82,4,1.44,5.23,1.85"/><line class="cls-1" x1="26.65" y1="37.57" x2="253.57" y2="38.04"/><line class="cls-1" x1="12.39" y1="50.51" x2="272.09" y2="50.99"/><line class="cls-1" x1="23.48" y1="57.69" x2="250.89" y2="58.17"/><line class="cls-1" x1="128.67" y1="39.37" x2="127.61" y2="46.25"/><line class="cls-1" x1="154.86" y1="39.43" x2="154.86" y2="46.31"/><line class="cls-1" x1="154.86" y1="26.67" x2="154.86" y2="31.26"/><line class="cls-1" x1="129.52" y1="27.03" x2="129.52" y2="31.26"/><path class="cls-1" d="M135.2,20.92l6.52-4.1L147.43,21Z"/></g></svg>