<svg xmlns="http://www.w3.org/2000/svg" viewBox="0 0 288 288"><defs><style>.cls-1{fill:none;stroke:#c84d00;stroke-miterlimit:10;stroke-width:0.5px;}</style></defs><g id="Layer_2" data-name="Layer 2"><path class="cls-1" d="M19.35,53.94a92.54,92.54,0,0,0,18.91-1.49c4.66-.86,17.8-3.28,27.23-10.63,1.32-1,4.91-5.63,12.1-14.84,5.31-6.79,6.54-8.57,10.22-10.88,2.24-1.41,9.41-5.91,18.9-5.44,2.11.1,7.1.35,9.84,2.72,4,3.48.77,9.49-2.65,12.61a74.66,74.66,0,0,1-7.56,5.44c-2.5,1.68-3,1.69-3.79,2.48-3.16,3.39-.15,8,.39,8.86a16.2,16.2,0,0,0,12.51,7.57c5.82.66,12.36-1,15.49-4.39.44-.48,3.24-3.62,1.68-6.72-.9-1.79-2.81-2.65-2.24-3.29s3,0,7.79.15a108,108,0,0,0,11-.28c4-.25,5.47-.53,6,0,.86.84-2.18,2.18-3,4.89a6.46,6.46,0,0,0,1.68,6.47c3.7,3.43,12.64,3.8,18.86,1.95C181.64,46.48,183,39.91,183,39.6c.92-5.13-3.56-9.08-5.6-10.26-.23-.13-1.22-.69-2.42-1.34-2.44-1.32-4.12-2.13-4.49-2.32-3.28-1.71-5.6-7.86-2.05-11.23,4.18-4,15.79-3.46,23.34-1.47,8.32,2.2,10.75,5.93,28,22.59,10.92,10.55,13.55,12.54,17.73,14.53,9.68,4.61,20.44,5.81,28,6.1"/><ellipse class="cls-1" cx="108.02" cy="18.18" rx="9.18" ry="6.84"/><ellipse class="cls-1" cx="177.01" cy="19.23" rx="9.18" ry="6.84"/><ellipse class="cls-1" cx="22.05" cy="60.07" rx="9.62" ry="6.29"/><ellipse class="cls-1" cx="261.92" cy="62.12" rx="9.62" ry="6.29"/><line class="cls-1" x1="31.68" y1="71.85" x2="242.7" y2="70.95"/><path class="cls-1" d="M256.28,67.21a16.37,16.37,0,0,0-9.6.16A8.34,8.34,0,0,0,242.09,71"/><path class="cls-1" d="M24.86,66.09a15,15,0,0,1,3.58-.3c1.11,0,3.34.12,4.46,1,1.37,1,1,3.18-1.22,5.09"/><path class="cls-1" d="M23.78,54.6c-.25,0-5.12-.44-8,1.88-2.65,2.15-2.36,5.65,1.12,7.53,2.95,1.59,7.64,1.71,10.58-.13,2.61-1.63,3.5-4.62.93-6.61s-7.2-2.28-9.94-.61c-1.91,1.17-3,3.3-1.48,5,1.74,2,6.42,2.67,8.72,1.21a2.84,2.84,0,0,0-.09-5.1c-1.44-.76-4.1-1-5.57-.06A1.88,1.88,0,0,0,19.23,60a3.28,3.28,0,0,0,3.15,1.88c1.79-.08,3.16-1.42,2.79-2.37A1.87,1.87,0,0,0,24,58.6a2.8,2.8,0,0,0-2.32.25A.83.83,0,0,0,21.55,60a1.43,1.43,0,0,0,1.11.61,1,1,0,0,0,.84-1.1"/><path class="cls-1" d="M262.42,56c.25,0,5.25.34,7.31,3,1.91,2.49.42,5.86-3.68,7.18-3.49,1.12-8.21.53-10.5-1.7-2.05-2-1.91-5,1.33-6.59,3.08-1.49,7.95-1.15,10.11.89,1.51,1.42,1.83,3.66-.22,5.07-2.41,1.67-7.32,1.66-9.11-.11-1.58-1.56-.78-4.15,1.83-5,1.7-.53,4.44-.39,5.57.77a1.71,1.71,0,0,1,.05,2.37,4.17,4.17,0,0,1-3.79,1.37c-1.76-.35-2.66-1.86-2-2.73a2.39,2.39,0,0,1,1.52-.7,2.6,2.6,0,0,1,2.23.58.85.85,0,0,1-.31,1.14,1.75,1.75,0,0,1-1.31.42.79.79,0,0,1-.46-1.19"/><path class="cls-1" d="M109.54,11.39c-.22,0-4.62-.49-7.2,2.08a5.29,5.29,0,0,0,1,8.34,8.71,8.71,0,0,0,9.55-.13c2.36-1.82,3.16-5.12.84-7.33s-6.49-2.53-9-.67c-1.73,1.29-2.68,3.65-1.34,5.51,1.57,2.18,5.79,3,7.87,1.34a3.49,3.49,0,0,0-.08-5.64c-1.31-.85-3.71-1.14-5-.07a2.33,2.33,0,0,0-.75,2.55,3,3,0,0,0,2.84,2.09c1.62-.09,2.85-1.58,2.52-2.62a1.74,1.74,0,0,0-1.09-1,2.11,2.11,0,0,0-2.1.27,1.06,1.06,0,0,0-.08,1.27c.15.27.56.73,1,.68a1,1,0,0,0,.75-1.21"/><path class="cls-1" d="M172.58,13.3c-.2.06-4.12,1.2-4,4.28.14,2.86,3.7,6.06,8,6.73,3.66.57,7.18-.8,7.54-3.45.33-2.36-1.89-5.45-5.66-6.51-3.57-1-7.38.12-7.76,2.56-.27,1.7,1,4,3.68,5.14,3.15,1.31,7.21.49,7.48-1.6.24-1.85-2.22-4.36-4.95-4.77-1.78-.26-3.94.33-4.09,1.7a3,3,0,0,0,1.61,2.43c1,.68,2.95,1.37,4.08.78s.92-2.34-.25-3.11a3.09,3.09,0,0,0-1.74-.47c-.67,0-1.51.34-1.45,1s.58.89,1,1.11,1.07.42,1.38.22.19-.75-.44-1.29"/><path class="cls-1" d="M150.06,35.76,149,33.17,137.26,33l-2,2.91"/><path class="cls-1" d="M138.43,22.73c.95-.53,2.41.27,5.2.19s3.66-1,4.57-.69c2.61.91.46,10-5,10.7a6.28,6.28,0,0,1-3.65-.73c-1.84-1.06-.61-2.33-1.45-7.17C138,23.88,137.73,23.12,138.43,22.73Z"/><path class="cls-1" d="M139.65,22.57a7,7,0,0,1,3.3-.94,7.31,7.31,0,0,1,3.76.78"/><path class="cls-1" d="M145.67,15.18a3.84,3.84,0,0,1,1.54,3c-.1,2.14-2.57,3.38-2.9,3.54"/><path class="cls-1" d="M147.16,11.59a13.06,13.06,0,0,1-4.06,5.77c-.37.32-1.42.61-1.74,1.31-.48,1,.61,2.17,1.59,3"/><path class="cls-1" d="M145.51,5c.24,0-.23.85.16,1.91s1.4,1.32,1.59,2.09c.42,1.66-3.47,3.7-4.26,3.39-.43-.18-.12-1.11.26-1.68.47-.72.94-.68,1.28-1.24.55-.91-.47-1.36-.26-2.66C144.45,5.8,145.27,5,145.51,5Z"/><path class="cls-1" d="M146,11.11c1.42.25,2.41,1.09,2.4,2s-1.18,1.9-2.77,2"/><path class="cls-1" d="M143,12.4c-.52.29-.75.72-.57,1.1a1.29,1.29,0,0,0,.67.54"/><path class="cls-1" d="M142.63,17.65a2.35,2.35,0,0,1-.45-2.1,3.61,3.61,0,0,1,1.54-1.74,9.56,9.56,0,0,1,3.44-1.48"/><polygon class="cls-1" points="76.94 65.23 140.64 50.56 209.54 63.37 76.94 65.23"/><path class="cls-1" d="M33.61,67.63l220.52-1.56"/><path class="cls-1" d="M100.48,22.08a44.38,44.38,0,0,0-11,7c-7.1,6.32-8.22,12.65-9.11,15.21-2.25,6.52-12.2,15-46.73,23.38"/><path class="cls-1" d="M103.56,24.16a13.23,13.23,0,0,0-2.25,3.26,11.53,11.53,0,0,0-1,6.08,16.11,16.11,0,0,0,.8,4.1"/><path class="cls-1" d="M99.25,16.16a31.16,31.16,0,0,0-7.63,3.57,20.49,20.49,0,0,0-6.08,6.15c-5.33,7.93-6.39,10.38-8.12,12.74C70,48.78,52.93,53.07,48.49,54.2A87.65,87.65,0,0,1,30.2,56.73"/><path class="cls-1" d="M178.67,26c1.34.33,4.4,1.21,5.41,3.12a3.58,3.58,0,0,1,.23,2.29A23.19,23.19,0,0,1,183,36.9"/><path class="cls-1" d="M185.08,16c12.24,3.61,18.16,8.11,21.29,11.66,2.71,3.05,1.57,3.39,5.94,9.11a66,66,0,0,0,13.62,13.42c3.47,2.54,5.21,3.8,8.18,5,7.77,3.22,16.22,3,20.66,2.72"/><path class="cls-1" d="M183.88,23.75C189.24,25.82,197,29.45,203,35.5c6.63,6.7,6,11,10.58,15.82s14.71,10.19,38.84,11.85"/><path class="cls-1" d="M21.47,53.79l.58-3.47,10.74-.25.41,3.17"/><path class="cls-1" d="M25.47,50.24C23,47.36,22.73,46.06,23,45.41A3.64,3.64,0,0,0,23.31,44c0-.73-.27-1,0-1.21s1.25-.08,3.05-.2c2-.14,2.81-.61,3.31-.3.33.21.16.52.13,1.21a6.63,6.63,0,0,0,.38,2.21c.16.81,0,2.17-1.4,4.5"/><path class="cls-1" d="M25.66,28.43A3,3,0,0,1,25.28,30c-.49.89-1.22,1.27-1,1.91.13.39.46.44.45.79,0,.51-.73.66-.89,1.13-.1.27,0,.71.89,1.37"/><path class="cls-1" d="M25.28,30a5.54,5.54,0,0,1,1.27,3.16,4.51,4.51,0,0,1-.19,1.54"/><path class="cls-1" d="M25.47,38.91a3.36,3.36,0,0,1-1.15-1.49,2.47,2.47,0,0,1,.39-2.21c.26-.4.57-.86,1-.87s1.16.75,1.27,1.37c.18,1-1,1.87-1.27,2.08"/><path class="cls-1" d="M25.54,42.09c-1.33-.67-1.61-1.21-1.61-1.59s.17-.46.41-1.08a6.3,6.3,0,0,0,.36-1.28"/><path class="cls-1" d="M26.49,37.12a4.45,4.45,0,0,1,.05,4.22,5.31,5.31,0,0,1-.91,1.23"/><path class="cls-1" d="M248.54,54l.12-2.92,11.7.49a2.58,2.58,0,0,0-.48,1.94,3.9,3.9,0,0,0,2,2.37"/><path class="cls-1" d="M251.09,43.73c.64-.32,1.47.23,3.17.25s2.6-.53,3-.25-.08.65-.38,1.36c-.61,1.45.07,1.82-.29,3.22-.26,1-1.09,2.73-2.3,2.79-1,0-1.76-1-2.46-1.83-1.22-1.51-1.2-2.71-1.17-4.61C250.68,44.29,250.71,43.92,251.09,43.73Z"/><path class="cls-1" d="M257,28.13a13.18,13.18,0,0,1,.75,2.57c.34,1.93.62,3.72-1,4.72-.36.23-.35.12-.74.36-1.67,1-.71,2.24-2.09,3.71-.78.81-1.29.66-1.76,1.37a2.57,2.57,0,0,0,.41,2.92"/><path class="cls-1" d="M257,28.13c.25,1.43-.23,2-.74,2.3a4.56,4.56,0,0,0-1.29.75,2,2,0,0,0-.47.84c-.2.77.29,2.16,1.49,3.76"/><path class="cls-1" d="M255.26,34.41l-1.47,1.24a13.3,13.3,0,0,0-1.5,1.3c-.35.47-.64,1.38.85,3.13"/><path class="cls-1" d="M256.34,35.72c1.39,1,1.55,1.62,1.42,2.05-.29.94-2,1-2.57,2.13-.43.85.3,1.22-.11,2.29a3.77,3.77,0,0,1-1.35,1.61"/><path class="cls-1" d="M256.29,39.13a2.91,2.91,0,0,1,.92,2.47,3.64,3.64,0,0,1-1.68,2.28"/><polygon class="cls-1" points="102.01 62.33 140.51 53.46 182.16 61.21 102.01 62.33"/><line class="cls-1" x1="101.2" y1="59.64" x2="103.56" y2="61.97"/><line class="cls-1" x1="104.99" y1="58.77" x2="106.8" y2="61.23"/><line class="cls-1" x1="108.79" y1="57.89" x2="110.38" y2="60.4"/><line class="cls-1" x1="111.94" y1="57.17" x2="113.55" y2="59.4"/><line class="cls-1" x1="115.64" y1="56.2" x2="117.46" y2="58.77"/><line class="cls-1" x1="119.45" y1="55.44" x2="121.26" y2="57.89"/><line class="cls-1" x1="122.64" y1="54.7" x2="124.41" y2="57.17"/><line class="cls-1" x1="126.51" y1="53.81" x2="127.82" y2="56.38"/><line class="cls-1" x1="130.36" y1="52.92" x2="131.92" y2="55.44"/><line class="cls-1" x1="134.05" y1="52.08" x2="135.84" y2="54.54"/><line class="cls-1" x1="137.76" y1="51.22" x2="138.73" y2="53.81"/><line class="cls-1" x1="140.64" y1="50.56" x2="140.51" y2="53.46"/><line class="cls-1" x1="143.87" y1="51.22" x2="142.46" y2="53.82"/><line class="cls-1" x1="147.07" y1="52.01" x2="145.35" y2="54.36"/><line class="cls-1" x1="150.68" y1="52.52" x2="148.84" y2="55.01"/><line class="cls-1" x1="154.76" y1="53.18" x2="152.72" y2="55.73"/><line class="cls-1" x1="158.13" y1="53.81" x2="155.81" y2="56.3"/><line class="cls-1" x1="161.65" y1="54.45" x2="159.71" y2="57.01"/><line class="cls-1" x1="165.05" y1="55.1" x2="162.78" y2="57.6"/><line class="cls-1" x1="168.97" y1="55.73" x2="166.48" y2="58.09"/><line class="cls-1" x1="172.46" y1="56.48" x2="170.41" y2="59.02"/><line class="cls-1" x1="176.49" y1="57.23" x2="173.94" y2="59.68"/><line class="cls-1" x1="180.08" y1="57.89" x2="177.76" y2="60.39"/><line class="cls-1" x1="184.18" y1="58.66" x2="181.41" y2="61.22"/><line class="cls-1" x1="140.57" y1="61.79" x2="140.64" y2="64.34"/><line class="cls-1" x1="143.87" y1="61.79" x2="144.16" y2="64.29"/><line class="cls-1" x1="147.07" y1="61.79" x2="147.3" y2="64.05"/><line class="cls-1" x1="150.68" y1="61.65" x2="151.01" y2="64.19"/><line class="cls-1" x1="153.74" y1="61.65" x2="154.21" y2="64.15"/><line class="cls-1" x1="157.24" y1="61.56" x2="157.52" y2="63.9"/><line class="cls-1" x1="160.33" y1="61.65" x2="160.68" y2="64.06"/><line class="cls-1" x1="163.3" y1="61.47" x2="163.3" y2="63.9"/><line class="cls-1" x1="166.48" y1="61.47" x2="166.79" y2="63.9"/><line class="cls-1" x1="170.04" y1="61.47" x2="170.72" y2="63.9"/><line class="cls-1" x1="173.19" y1="61.47" x2="173.94" y2="63.87"/><line class="cls-1" x1="176.49" y1="61.47" x2="177.76" y2="63.9"/><line class="cls-1" x1="179.42" y1="61.24" x2="180.6" y2="63.78"/><line class="cls-1" x1="182.16" y1="61.21" x2="185.08" y2="63.72"/><polyline class="cls-1" points="187.26 59.23 185.08 61.47 207.61 63.4"/><line class="cls-1" x1="188.4" y1="63.78" x2="184.18" y2="61.32"/><line class="cls-1" x1="190.75" y1="59.94" x2="185.08" y2="61.47"/><polyline class="cls-1" points="196.35 60.92 192.1 62.07 194.22 63.4"/><line class="cls-1" x1="137.19" y1="61.97" x2="137.19" y2="64.29"/><line class="cls-1" x1="134.05" y1="61.88" x2="133.68" y2="64.29"/><line class="cls-1" x1="130.88" y1="61.88" x2="130.36" y2="64.48"/><line class="cls-1" x1="127.41" y1="61.97" x2="126.76" y2="64.53"/><line class="cls-1" x1="123.52" y1="61.97" x2="122.64" y2="64.48"/><line class="cls-1" x1="119.56" y1="62.08" x2="118.9" y2="64.64"/><line class="cls-1" x1="115.82" y1="62.14" x2="115.12" y2="64.53"/><line class="cls-1" x1="111.4" y1="62.2" x2="110.7" y2="64.64"/><line class="cls-1" x1="106.98" y1="62.33" x2="105.41" y2="64.64"/><line class="cls-1" x1="103.56" y1="62.46" x2="101.2" y2="64.89"/><polyline class="cls-1" points="98.4 60.4 100.77 62.46 78.45 65.06"/><line class="cls-1" x1="98.53" y1="64.93" x2="100.77" y2="62.46"/><polyline class="cls-1" points="93.68 61.6 97.09 62.73 94.11 65.06"/><polyline class="cls-1" points="89.17 62.46 92.54 63.33 89.39 64.93"/><polygon class="cls-1" points="68.52 65.93 140.78 49.28 218.96 63.82 68.52 65.93"/><polygon class="cls-1" points="90.85 37.25 74.03 62.51 105.41 54.36 90.85 37.25"/><polygon class="cls-1" points="193.68 36.09 214.95 60.4 179.67 53.93 193.68 36.09"/><polygon class="cls-1" points="140.72 47.39 136.09 39.26 147.3 39.01 140.72 47.39"/><path class="cls-1" d="M226.68,71v.68H270v-6"/><path class="cls-1" d="M61.31,71.69H18v-6"/></g></svg>