<svg id="Layer_1" data-name="Layer 1" xmlns="http://www.w3.org/2000/svg" viewBox="0 0 288 288"><defs><style>.cls-1{fill:none;stroke:#c84d00;stroke-miterlimit:10;stroke-width:0.5px;}</style></defs><path class="cls-1" d="M24.64,215.81c1.72,21.51,3,35.5,3.61,36.88a2.35,2.35,0,0,1-.14,2.1,2.14,2.14,0,0,1-1.27,1c-.74.25-1.51.16-1.61.36s.58.5.7.55c2.94,1.22,12.3,1.21,12.3,1.21,3.93,0,8.78,0,15-.36,1.63-.1,4.35-.3,4.49-.83.06-.25-.48-.5-1-.69a8.29,8.29,0,0,1-1.35-1.19c-.46-.47-.85-17.08-.81-39.81"/><path class="cls-1" d="M25.93,256.73a2.68,2.68,0,0,0-1.33.26.64.64,0,0,0-.36.48c0,.89,9.82,1.45,9.82,1.45s16.28.93,24.54-1.39c.2-.06.78-.22.77-.42s-.38-.28-.48-.31a2.57,2.57,0,0,0-1.15-.05"/><path class="cls-1" d="M24.9,257.87c-.32,0-1.27.14-1.38.43s.94.71,1.35.87c4.18,1.6,17.73,1.34,17.73,1.34s10.95-.21,16-2c.95-.33,1-.6,1-.73s-.24-.39-.43-.49"/><path class="cls-1" d="M25.4,259.34A9.07,9.07,0,0,0,23,261a5.31,5.31,0,0,0-1.4,2.7,14.48,14.48,0,0,0-.31,4.52c0,1,.11,2.33.28,3.93"/><path class="cls-1" d="M58.31,258.75A9.23,9.23,0,0,1,62,263a8.48,8.48,0,0,1,.31,2.87c0,1.25,0,3-.1,5.08"/><path class="cls-1" d="M21,272.2a120.14,120.14,0,0,0,23.75,1.1,114.72,114.72,0,0,0,18.19-2.38,2.39,2.39,0,0,1,.15,1.16,2.88,2.88,0,0,1-.57,1.39"/><path class="cls-1" d="M21.28,274.27a111,111,0,0,0,21.62,1.45,106.71,106.71,0,0,0,19.57-2.38"/><path class="cls-1" d="M21.11,272.11a2.09,2.09,0,0,0-.15,1.06,2.44,2.44,0,0,0,.49,1.17"/><path class="cls-1" d="M24.4,272a17.68,17.68,0,0,1,.08-7.09c.14-.67-.31-1.84.88-2.94s3.55-1.83,4-1.58-.54.85-1.36,2c-2,2.78-.31,4.17-1.86,9-.09.27-.17.49-.22.62"/><path class="cls-1" d="M29.36,272.08c.25-4.74,1.19-7.37,2-8.9.22-.39,1.34-2.38.9-2.49-.12,0-.31.08-.6.24A5,5,0,0,0,30.33,262c-1,1.29-1.19,5.91-2.63,9.13a12.84,12.84,0,0,1-.63,1.21"/><path class="cls-1" d="M30.72,260.58a14.47,14.47,0,0,0-3.1,6.11,11.47,11.47,0,0,0-.17,3.77"/><path class="cls-1" d="M26.94,260.17a7.66,7.66,0,0,0-1.57.55c-1.9.92-2.59,2.44-2.59,8.35,0,1,0,1.91,0,2.51"/><path class="cls-1" d="M32.46,262.27c.65-.72,1.46-1.52,1.78-1.46s-.4,1.93-.05,2,1.3-1.65,1.91-1.58c.36,0,.42.67.43.76a1.68,1.68,0,0,1-.38,1.13c-.44.54-.92,2.82-1.28,9.26"/><path class="cls-1" d="M33.9,263.27a12.79,12.79,0,0,0-2.08,8.22c0,.35.1.7.17,1.05"/><path class="cls-1" d="M37.42,271.25c-1.43-4.54-.88-7.13-.26-8.57.19-.43.75-1.72,1.24-1.7.17,0,.46.2.67,1.72.4,2.77-.19,4.66-.42,7.33,0,.61-.11,1.56-.09,2.74"/><path class="cls-1" d="M40,271.37a14.12,14.12,0,0,1-.21-3.06c.15,0,.63,3.59.94,3.58.53,0,0-10.93.29-10.93s.52,11.45,1.19,11.46c.31,0,.67-2.52.72-4.71a24.49,24.49,0,0,0-.59-5.94,26.7,26.7,0,0,1,1.23,8.69,10,10,0,0,0,0,2.53,9.9,9.9,0,0,0,.85-3.32c.7-5.12-1.19-8.6-.34-8.74.55-.09,1.78,1.33,2.45,2.23a11.07,11.07,0,0,1,2,9.28"/><path class="cls-1" d="M49.21,271.7c0,.48.09.6.13.6.29,0,2.66-4.65-.25-8.81-.86-1.23-2.2-2.44-1.78-2.6s1.59.52,2.67,1.14"/><path class="cls-1" d="M49,262.08a18.52,18.52,0,0,1,1.32,2A13,13,0,0,1,52,268.79c.13,1,0,1.11-.08,1.12s-.6-.55-.89-1"/><path class="cls-1" d="M50.15,261.1c2.36,3,4,6.62,3.18,10.6-.06.29-.14.58-.22.87"/><path class="cls-1" d="M52,262.08c-.42-.8-.86-1.76-.55-1.84.51-.12,3,2,4.33,4.11a8.57,8.57,0,0,1,.93,7.61"/><path class="cls-1" d="M54.52,271.56a12.1,12.1,0,0,0,.72-4.42A12.6,12.6,0,0,0,54,262.21"/><path class="cls-1" d="M54.86,262.15c-.61-.83-1.19-1.76-.77-1.91.59-.21,2.91,1.17,4,2a8.08,8.08,0,0,1,3.31,8.54"/><path class="cls-1" d="M55.32,260.93a15.67,15.67,0,0,1,2,3.06,11.82,11.82,0,0,1,1.19,7.28"/><path class="cls-1" d="M56.81,259.72a8.91,8.91,0,0,1,3.56,2.55,4.21,4.21,0,0,1,.81,1.72"/><path class="cls-1" d="M60.24,271.45a20.19,20.19,0,0,0-2.58-10.3c-.27-.49-.55-1-.85-1.43"/><path class="cls-1" d="M57.4,259.29a6,6,0,0,1,1,.45,3.79,3.79,0,0,1,1.48,1.32"/><path class="cls-1" d="M27.24,217.11q1.88,19.48,3.73,39"/><path class="cls-1" d="M32.82,217.12l2.29,39.59"/><path class="cls-1" d="M40.81,256.71l-3.3-40.18"/><path class="cls-1" d="M43,216.25l2.93,40.46"/><path class="cls-1" d="M47.51,216.64l2.64,39.28"/><path class="cls-1" d="M52.37,216.75q.32,19.08.65,38.16"/><path class="cls-1" d="M263.31,215.44c-.61,21.81-1.2,36-1.72,37.42a2.41,2.41,0,0,0,.25,2.12,2.16,2.16,0,0,0,1.32,1c.76.21,1.52.09,1.64.29s-.56.52-.69.58c-2.88,1.38-12.24,1.85-12.24,1.85-3.93.19-8.78.49-15.05.4-1.63,0-4.37-.08-4.53-.61-.07-.25.45-.54.93-.74a8.91,8.91,0,0,0,1.29-1.28c.44-.49,0-17.29-1.22-40.23"/><path class="cls-1" d="M264.11,256.82a2.74,2.74,0,0,1,1.35.2.63.63,0,0,1,.38.47c0,.89-9.75,2-9.75,2s-16.24,1.76-24.62-.16c-.21-.05-.79-.18-.79-.39s.37-.3.46-.34a2.66,2.66,0,0,1,1.15-.1"/><path class="cls-1" d="M265.21,257.92c.32,0,1.28.08,1.4.37s-.9.76-1.31.94c-4.1,1.83-17.66,2.25-17.66,2.25s-11,.35-16.11-1.19c-1-.29-1.07-.56-1.08-.69s.22-.4.4-.51"/><path class="cls-1" d="M264.79,259.44A8.87,8.87,0,0,1,267.3,261a5.42,5.42,0,0,1,1.54,2.66,14.83,14.83,0,0,1,.54,4.55c0,1,0,2.36-.08,4"/><path class="cls-1" d="M231.82,260.5a9.39,9.39,0,0,0-3.44,4.43,8.76,8.76,0,0,0-.16,2.91c.05,1.27.14,3,.37,5.13"/><path class="cls-1" d="M269.9,272.19a119.39,119.39,0,0,1-23.71,2.32A113.89,113.89,0,0,1,227.86,273a2.44,2.44,0,0,0-.09,1.18,3,3,0,0,0,.65,1.37"/><path class="cls-1" d="M269.67,274.3a110,110,0,0,1-21.56,2.56,106.22,106.22,0,0,1-19.7-1.41"/><path class="cls-1" d="M269.73,272.11a2.13,2.13,0,0,1,.2,1.06,2.43,2.43,0,0,1-.43,1.21"/><path class="cls-1" d="M266.43,272.14A18.15,18.15,0,0,0,266,265c-.18-.67.21-1.88-1-2.92s-3.64-1.67-4.12-1.39.59.83,1.46,1.95c2.12,2.72.53,4.2,2.33,9,.1.27.19.49.24.62"/><path class="cls-1" d="M261.47,272.5c-.49-4.78-1.56-7.38-2.49-8.89-.23-.38-1.46-2.33-1-2.46.12,0,.31.06.61.21a4.9,4.9,0,0,1,1.42,1c1,1.25,1.48,5.91,3.09,9.08a11.15,11.15,0,0,0,.7,1.2"/><path class="cls-1" d="M259.53,261a14.8,14.8,0,0,1,3.41,6,11.67,11.67,0,0,1,.36,3.8"/><path class="cls-1" d="M263.28,260.35a7.72,7.72,0,0,1,1.6.47c1.95.83,2.72,2.34,3,8.31.05,1.05.08,1.92.09,2.53"/><path class="cls-1" d="M257.87,262.75c-.69-.69-1.55-1.46-1.85-1.38s.49,1.92.14,2-1.39-1.6-2-1.5c-.36.06-.39.7-.39.8a1.75,1.75,0,0,0,.44,1.11c.47.52,1.06,2.81,1.75,9.29"/><path class="cls-1" d="M256.48,263.84A13,13,0,0,1,259,272c0,.37-.06.72-.11,1.07"/><path class="cls-1" d="M253.37,272.06c1.19-4.64.51-7.24-.19-8.66-.21-.42-.84-1.7-1.32-1.65-.17,0-.45.22-.59,1.77-.25,2.82.44,4.69.8,7.38.08.61.19,1.57.23,2.77"/><path class="cls-1" d="M250.82,272.31a14.84,14.84,0,0,0,.06-3.09c-.14,0-.45,3.65-.75,3.66-.53,0-.58-11-.86-11s.07,11.59-.6,11.63c-.31,0-.8-2.51-1-4.72a24.79,24.79,0,0,1,.29-6,27.23,27.23,0,0,0-.79,8.84,10.26,10.26,0,0,1,.09,2.56,10.14,10.14,0,0,1-1-3.31c-1-5.13.75-8.75-.11-8.84-.56-.06-1.71,1.42-2.34,2.37a11.27,11.27,0,0,0-1.53,9.47"/><path class="cls-1" d="M241.59,273.12c0,.49-.06.61-.1.61-.29,0-2.9-4.55-.2-8.91.8-1.28,2.07-2.57,1.65-2.72s-1.57.62-2.61,1.3"/><path class="cls-1" d="M241.26,263.4a22.46,22.46,0,0,0-1.22,2.06,13.55,13.55,0,0,0-1.41,4.86c-.07,1,.06,1.13.15,1.13s.57-.58.84-1.08"/><path class="cls-1" d="M240.11,262.47c-2.21,3.13-3.69,6.88-2.64,10.86.08.29.17.58.27.86"/><path class="cls-1" d="M238.33,263.55c.38-.83.78-1.83.46-1.89-.51-.1-2.88,2.21-4.12,4.37a8.73,8.73,0,0,0-.54,7.74"/><path class="cls-1" d="M236.27,273.25a12.38,12.38,0,0,1-1-4.43,12.72,12.72,0,0,1,1-5"/><path class="cls-1" d="M235.45,263.77c.57-.87,1.09-1.84.67-2-.6-.19-2.85,1.33-3.89,2.18a8.22,8.22,0,0,0-2.88,8.79"/><path class="cls-1" d="M234.92,262.56a15.87,15.87,0,0,0-1.88,3.19,12,12,0,0,0-.82,7.41"/><path class="cls-1" d="M233.37,261.41a9,9,0,0,0-3.43,2.76,4.24,4.24,0,0,0-.72,1.77"/><path class="cls-1" d="M230.54,273.43a20.63,20.63,0,0,1,2.06-10.54c.24-.5.5-1,.77-1.48"/><path class="cls-1" d="M232.76,261a5.89,5.89,0,0,0-1,.5,3.7,3.7,0,0,0-1.41,1.41"/><path class="cls-1" d="M260.78,216.89,259,256.42"/><path class="cls-1" d="M255.19,217.18l-.26,40.09"/><path class="cls-1" d="M249.22,257.56q.63-20.37,1.25-40.74"/><path class="cls-1" d="M245,216.81l-.87,41"/><path class="cls-1" d="M240.47,217.44l-.63,39.79"/><path class="cls-1" d="M235.62,217.79q.65,19.29,1.3,38.57"/></svg>